<svg xmlns="http://www.w3.org/2000/svg" width="375" viewBox="0 0 375 375" height="375" version="1.0"><defs><clipPath id="a"><path d="M 113 7.6875 L 284 7.6875 L 284 236 L 113 236 Z M 113 7.6875"/></clipPath><clipPath id="b"><path d="M 14.207031 229 L 360 229 L 360 366.9375 L 14.207031 366.9375 Z M 14.207031 229"/></clipPath></defs><path d="M 183.386719 182.871094 L 191.90625 182.871094 L 191.90625 194.972656 C 191.90625 198.753906 194.933594 201.78125 198.71875 201.78125 C 202.5 201.78125 205.53125 198.753906 205.53125 194.972656 L 205.53125 182.871094 L 214.046875 182.871094 C 217.832031 182.871094 220.859375 179.84375 220.859375 176.0625 L 220.859375 145.242188 C 220.859375 141.457031 217.832031 138.433594 214.046875 138.433594 L 190.203125 138.433594 L 190.203125 121.414062 L 207.234375 121.414062 L 207.234375 124.820312 C 207.234375 128.601562 210.261719 131.625 214.046875 131.625 C 217.832031 131.625 220.859375 128.601562 220.859375 124.820312 L 220.859375 114.605469 C 220.859375 110.824219 217.832031 107.800781 214.046875 107.800781 L 205.53125 107.800781 L 205.53125 99.667969 C 205.53125 95.886719 202.5 92.863281 198.71875 92.863281 C 194.933594 92.863281 191.90625 95.886719 191.90625 99.667969 L 191.90625 107.800781 L 183.386719 107.800781 C 179.605469 107.800781 176.574219 110.824219 176.574219 114.605469 L 176.574219 145.429688 C 176.574219 149.210938 179.605469 152.238281 183.386719 152.238281 L 207.234375 152.238281 L 207.234375 169.253906 L 190.203125 169.253906 L 190.203125 165.851562 C 190.203125 162.070312 187.171875 159.042969 183.386719 159.042969 C 179.605469 159.042969 176.574219 162.070312 176.574219 165.851562 L 176.574219 176.0625 C 176.574219 179.84375 179.605469 182.871094 183.386719 182.871094 Z M 183.386719 182.871094"/><g clip-path="url(#a)"><path d="M 144.214844 235.816406 L 252.460938 235.816406 C 260.789062 235.816406 268.546875 232.601562 274.414062 226.742188 C 280.28125 220.878906 283.496094 213.125 283.496094 204.804688 L 283.496094 109.691406 C 283.496094 80.757812 264.195312 56.175781 237.699219 48.046875 L 251.894531 27.625 C 253.027344 25.921875 253.40625 23.84375 252.839844 21.949219 C 252.273438 20.058594 250.949219 18.359375 249.246094 17.601562 C 248.488281 17.222656 228.429688 7.769531 198.527344 7.769531 C 168.628906 7.769531 148.566406 17.222656 147.8125 17.601562 C 145.917969 18.546875 144.59375 20.058594 144.214844 21.949219 C 143.648438 23.84375 144.027344 25.921875 145.160156 27.625 L 159.355469 48.046875 C 132.671875 55.988281 113.179688 80.570312 113.179688 109.691406 L 113.179688 204.996094 C 113.179688 213.316406 116.398438 221.066406 122.265625 226.929688 C 128.128906 232.601562 135.890625 235.816406 144.214844 235.816406 Z M 161.4375 27.054688 C 169.195312 24.597656 182.253906 21.382812 198.527344 21.382812 C 214.800781 21.382812 228.050781 24.597656 235.617188 27.054688 L 222.75 45.398438 C 221.425781 45.398438 220.101562 45.210938 218.777344 45.210938 L 177.710938 45.210938 C 176.574219 45.210938 175.441406 45.398438 174.304688 45.398438 Z M 126.804688 109.691406 C 126.804688 81.703125 149.515625 58.824219 177.710938 58.824219 L 218.964844 58.824219 C 246.972656 58.824219 269.683594 81.515625 269.683594 109.691406 L 269.683594 204.996094 C 269.683594 209.722656 267.789062 214.070312 264.574219 217.285156 C 261.355469 220.5 257.003906 222.390625 252.273438 222.390625 L 144.214844 222.390625 C 139.484375 222.390625 135.132812 220.5 131.914062 217.285156 C 128.699219 214.070312 126.804688 209.722656 126.804688 204.996094 Z M 126.804688 109.691406"/></g><g clip-path="url(#b)"><path d="M 356.355469 281.386719 C 352.378906 273.257812 343.109375 269.097656 334.402344 271.367188 L 258.707031 291.03125 C 256.246094 291.601562 253.597656 291.976562 251.136719 291.976562 L 245.082031 291.976562 C 246.214844 289.140625 246.972656 286.304688 246.972656 283.089844 C 246.972656 277.039062 244.703125 271.367188 240.351562 267.207031 C 236.1875 263.046875 230.320312 260.589844 224.453125 260.589844 L 178.277344 260.589844 L 116.585938 245.082031 C 116.019531 244.894531 115.449219 244.894531 114.882812 244.894531 L 82.523438 245.082031 L 82.523438 236.195312 C 82.523438 232.414062 79.496094 229.386719 75.710938 229.386719 L 21.019531 229.386719 C 17.234375 229.386719 14.207031 232.414062 14.207031 236.195312 L 14.207031 345.679688 C 14.207031 349.460938 17.234375 352.488281 21.019531 352.488281 L 75.710938 352.488281 C 79.496094 352.488281 82.523438 349.460938 82.523438 345.679688 L 82.523438 336.792969 L 113.9375 336.792969 C 119.234375 338.117188 150.460938 346.4375 174.496094 358.539062 C 185.660156 364.023438 197.769531 366.859375 209.691406 366.859375 C 220.859375 366.859375 232.210938 364.402344 242.808594 359.484375 C 257.570312 352.675781 276.117188 346.4375 294.285156 340.386719 C 311.882812 334.523438 328.535156 329.039062 341.59375 322.988281 C 349.164062 319.585938 355.03125 312.96875 357.867188 305.027344 C 360.707031 297.460938 360.140625 288.761719 356.355469 281.386719 Z M 27.832031 338.875 L 27.832031 243.003906 L 68.898438 243.003906 L 68.898438 338.683594 L 27.832031 338.683594 Z M 345 300.867188 C 343.484375 305.214844 340.078125 308.996094 335.917969 310.886719 C 323.617188 316.558594 307.339844 322.042969 290.121094 327.714844 C 271.765625 333.769531 252.839844 340.195312 237.320312 347.382812 C 219.15625 355.703125 198.71875 355.324219 180.738281 346.4375 C 153.109375 332.632812 118.101562 323.746094 116.585938 323.367188 C 116.019531 323.179688 115.449219 323.179688 114.882812 323.179688 L 82.710938 323.179688 L 82.710938 258.695312 L 114.125 258.507812 L 175.820312 274.015625 C 176.386719 274.203125 176.953125 274.203125 177.523438 274.203125 L 224.453125 274.203125 C 226.726562 274.203125 228.996094 275.148438 230.699219 276.851562 C 232.402344 278.550781 233.347656 280.820312 233.347656 283.089844 C 233.347656 285.359375 232.402344 287.628906 230.699219 289.332031 C 228.996094 291.03125 226.726562 291.976562 224.453125 291.976562 L 161.816406 291.976562 C 158.03125 291.976562 155.003906 295.003906 155.003906 298.785156 C 155.003906 302.566406 158.03125 305.59375 161.816406 305.59375 L 250.949219 305.59375 C 254.730469 305.59375 258.328125 305.023438 261.921875 304.269531 L 337.621094 284.601562 C 340.078125 283.847656 342.917969 285.171875 344.054688 287.441406 C 346.136719 291.601562 346.515625 296.515625 345 300.867188 Z M 345 300.867188"/></g></svg>