<svg xmlns="http://www.w3.org/2000/svg" width="375" viewBox="0 0 375 375" height="375" version="1.0"><path fill="#6F3B3B" d="M 184.238281 363.105469 C 184.238281 363.105469 183.347656 373.179688 184.9375 374.09375 C 186.535156 375.007812 204.984375 374.09375 204.984375 374.09375 C 204.984375 374.09375 208.75 361.988281 200.316406 360.226562 C 191.886719 358.464844 184.484375 357.027344 184.238281 363.105469"/><path fill="#DFBD4E" d="M 163.328125 207.871094 C 163.328125 207.871094 155.710938 278.148438 161.480469 284.839844 C 167.25 291.535156 173.910156 290.925781 177.566406 284.839844 C 181.222656 278.753906 184.5625 249.777344 185.472656 248.75 C 186.382812 247.722656 191.277344 248.636719 190.347656 250.765625 C 189.421875 252.894531 191.242188 294.574219 188.507812 301.570312 C 185.777344 308.570312 179.097656 363.332031 182.589844 363.332031 C 186.082031 363.332031 195.496094 358.464844 199.441406 359.984375 C 199.441406 359.984375 202.480469 362.117188 202.480469 353.898438 C 202.480469 345.6875 205.820312 295.792969 207.640625 290.316406 C 209.460938 284.839844 213.609375 218.792969 211.839844 207.09375 C 210.070312 195.394531 163.328125 207.871094 163.328125 207.871094"/><path fill="#C0A346" d="M 211.839844 207.136719 C 210.746094 204.878906 208.054688 203.339844 204.355469 202.429688 C 190.722656 200.605469 163.328125 207.90625 163.328125 207.90625 C 163.328125 207.90625 155.710938 278.183594 161.480469 284.878906 C 167.25 291.570312 173.910156 290.964844 177.5625 284.878906 C 156.976562 288.148438 161.300781 224.070312 168.085938 222.28125 C 215.914062 209.695312 211.839844 207.136719 211.839844 207.136719"/><path fill="#FEF7E6" d="M 240.378906 7.535156 C 240.378906 7.535156 255.320312 2.667969 256.078125 3.882812 C 256.839844 5.101562 264.859375 68.230469 263.886719 71.269531 C 262.910156 74.316406 257.597656 74.359375 257.597656 74.359375 L 240.378906 7.535156"/><path fill="#E0CCA7" d="M 245.015625 9.1875 L 254.804688 6.847656 L 255.605469 9.585938 L 247.007812 11.640625 L 247.972656 14.324219 L 255.605469 12.382812 L 256.230469 15.117188 L 248.203125 17.402344 L 249.058594 20.367188 L 256.261719 18.828125 L 256.261719 21.738281 L 250.214844 22.992188 L 247.859375 24.246094 L 245.015625 9.1875"/><path fill="#FDE9C1" d="M 235.410156 37.761719 C 235.410156 37.761719 217.398438 10.5 219.5625 8.21875 C 221.726562 5.933594 243.25 0.00390625 245.070312 2.058594 C 246.894531 4.109375 265.683594 75.214844 263.75 76.570312 C 261.808594 77.925781 242.90625 82.03125 243.019531 77.125 C 243.136719 72.21875 241.996094 53.96875 241.996094 53.96875 L 235.410156 37.761719"/><path fill="#B9AA8C" d="M 258.09375 59.179688 L 257.460938 54.59375 L 242.339844 59.253906 C 242.425781 60.804688 242.523438 62.574219 242.617188 64.394531 L 258.09375 59.179688"/><path fill="#B9AA8C" d="M 258.917969 65.203125 L 242.796875 68.144531 C 242.878906 69.9375 242.953125 71.675781 242.996094 73.1875 L 259 69.832031 L 258.917969 65.203125"/><path fill="#B9AA8C" d="M 240.8125 50.984375 L 242.023438 53.96875 C 242.023438 53.96875 242.066406 54.652344 242.132812 55.78125 L 256.261719 50.472656 L 255.472656 45.910156 L 240.8125 50.984375"/><path fill="#B9AA8C" d="M 234.171875 35.824219 C 234.957031 37.035156 235.4375 37.761719 235.4375 37.761719 L 236.476562 40.320312 L 252.917969 32.632812 L 251.78125 28.144531 L 234.171875 35.824219"/><path fill="#B9AA8C" d="M 237.558594 42.980469 L 239.445312 47.621094 L 254.808594 40.441406 L 253.667969 35.953125 L 237.558594 42.980469"/><path fill="#519CDA" d="M 152.703125 77.125 C 152.703125 77.125 142.292969 91.074219 144.226562 93.652344 C 146.164062 96.238281 155.96875 97.605469 158.753906 95.722656 C 161.539062 93.839844 152.703125 77.125 152.703125 77.125"/><path fill="#6FBCEA" d="M 186.785156 70.664062 C 186.785156 70.664062 185.394531 54.308594 174.308594 54.574219 C 163.226562 54.839844 146.21875 57.550781 150.472656 78.671875 L 186.785156 70.664062"/><path fill="#5EACE3" d="M 162.769531 73.1875 C 156.667969 61.390625 162.75 56.117188 162.769531 56.101562 C 154.535156 58.453125 147.578125 64.292969 150.472656 78.671875 L 163.59375 75.777344 C 163.511719 74.996094 163.261719 74.140625 162.769531 73.1875"/><path fill="#F25B4E" d="M 154.722656 89.640625 C 154.722656 89.640625 152.597656 89.335938 151.953125 91.007812 C 151.308594 92.679688 154.988281 98.949219 157.949219 97.46875 C 160.910156 95.988281 154.722656 89.640625 154.722656 89.640625"/><path fill="#F25B4E" d="M 187.449219 79.210938 C 187.449219 79.210938 190.863281 72.621094 188.355469 67.660156 L 186.535156 69.195312 C 186.535156 69.195312 184.199219 61.835938 179.53125 60.582031 C 179.929688 61.894531 180.386719 65.203125 179.53125 66.171875 C 175.546875 63.664062 166.207031 61.328125 164.5 58.871094 C 164.214844 61.4375 164.847656 64.976562 165.8125 66.457031 C 162.390625 64.121094 157.609375 60.753906 157.609375 60.753906 C 157.609375 60.753906 154.988281 65.632812 155.957031 69.039062 C 153.507812 66.746094 149.296875 66.914062 149.296875 66.914062 C 149.296875 66.914062 148.042969 74.046875 150.433594 77.582031 C 147.074219 77.066406 146.449219 77.238281 146.449219 77.238281 C 146.449219 77.238281 150.035156 89.734375 154.820312 89.847656 C 159.601562 89.960938 187.449219 79.210938 187.449219 79.210938"/><path fill="#F25B4E" d="M 187.0625 79.503906 C 187.0625 79.503906 188.617188 78.023438 190.113281 79.007812 C 191.609375 79.996094 192.246094 87.242188 188.976562 87.757812 C 185.707031 88.273438 187.0625 79.503906 187.0625 79.503906"/><path fill="#FBC555" d="M 143.144531 122.25 C 143.144531 122.25 128.339844 115.347656 127.429688 112.265625 C 126.519531 109.1875 126.292969 79.410156 127.429688 78.722656 C 128.570312 78.042969 134.859375 77.46875 134.902344 76.097656 C 134.945312 74.730469 133.125 72.449219 129.023438 73.132812 C 129.933594 70.398438 130.960938 58.988281 129.023438 58.53125 C 127.085938 58.074219 124.808594 65.71875 124.808594 65.71875 C 124.808594 65.71875 125.664062 54.765625 124.355469 54.59375 C 123.046875 54.425781 120.082031 55.222656 119.914062 65.089844 C 119.914062 65.089844 118.832031 54.710938 116.382812 55.621094 C 113.933594 56.535156 115.359375 65.890625 115.359375 65.890625 C 115.359375 65.890625 111.769531 57.960938 110.40625 59.730469 C 109.039062 61.496094 112.625 70.796875 112.625 70.796875 C 112.625 70.796875 113.195312 117.429688 115.585938 120.78125 C 117.976562 124.128906 133.808594 139.925781 148.609375 140.355469 C 163.417969 140.789062 143.144531 122.25 143.144531 122.25"/><path fill="#FBC555" d="M 204.605469 103.214844 C 204.605469 103.214844 230.722656 52.558594 231.179688 47.234375 C 231.632812 41.914062 231.179688 38.871094 231.9375 38.71875 C 232.695312 38.566406 239.679688 34.609375 241.046875 36.4375 C 242.414062 38.261719 240.914062 40.445312 240.230469 40.734375 C 239.546875 41.019531 238.40625 41.816406 238.40625 41.816406 L 241.996094 54.25 C 241.996094 54.25 216.027344 111.582031 214.890625 114.660156 C 213.753906 117.742188 204.605469 103.214844 204.605469 103.214844"/><path fill="#FBC555" d="M 152.75 82.867188 C 152.75 82.867188 157.152344 105.78125 165.582031 108.671875 L 167.859375 120.78125 C 167.859375 120.78125 176.4375 122.496094 177.046875 122.25 C 177.652344 122 183.878906 117.53125 183.878906 117.257812 C 183.878906 116.980469 182.171875 108.613281 182.171875 108.613281 C 182.171875 108.613281 188.429688 108.160156 190.101562 101.238281 C 191.773438 94.316406 185.851562 72.867188 185.851562 72.867188 C 185.851562 72.867188 181.449219 67.695312 169.679688 71.164062 C 161.636719 73.535156 151.878906 78.257812 152.75 82.867188"/><path fill="#F9A84C" d="M 183.929688 117.171875 C 183.929688 116.894531 182.226562 108.527344 182.226562 108.527344 C 182.226562 108.527344 188.484375 108.070312 190.15625 101.148438 C 190.242188 100.796875 190.300781 100.398438 190.347656 99.976562 C 189.089844 104.417969 177.640625 106.871094 170.8125 105.046875 C 164.007812 103.230469 157.238281 76.757812 157.191406 76.570312 C 154.277344 78.503906 152.398438 80.652344 152.800781 82.78125 C 152.800781 82.78125 157.203125 105.695312 165.632812 108.585938 L 167.910156 120.691406 C 167.910156 120.691406 176.488281 122.410156 177.097656 122.164062 C 177.707031 121.914062 183.929688 117.445312 183.929688 117.171875"/><path fill="#F9A84C" d="M 211.914062 105.1875 C 211.914062 105.1875 234.03125 54.53125 234.144531 51.335938 C 234.257812 48.140625 232.46875 40.476562 233.007812 39.242188 C 233.484375 38.148438 239.125 36.398438 240.378906 36.023438 C 238.171875 35.460938 232.617188 38.574219 231.941406 38.710938 C 231.183594 38.859375 231.640625 41.90625 231.183594 47.230469 C 230.753906 52.253906 207.46875 97.648438 204.859375 102.726562 L 211.914062 105.1875"/><path fill="#F9A84C" d="M 139.152344 129.847656 C 139.152344 129.847656 121.730469 122.648438 119.222656 119.226562 C 116.71875 115.804688 116.148438 81.007812 115.921875 76.683594 C 115.699219 72.476562 110.390625 61.328125 110.113281 60.753906 C 109.828125 63.667969 112.617188 70.910156 112.617188 70.910156 C 112.617188 70.910156 113.1875 117.542969 115.578125 120.894531 C 117.292969 123.296875 125.921875 132.070312 136.117188 137.015625 C 137.730469 133.613281 139.152344 129.847656 139.152344 129.847656"/><path fill="#6FBCEA" d="M 139.160156 118.273438 L 132.78125 140.9375 C 132.78125 140.9375 152.824219 146.265625 154.644531 149.761719 C 156.472656 153.261719 163.53125 195.089844 160.339844 209.921875 C 160.339844 209.921875 203.390625 214.257812 213.867188 205.816406 C 213.636719 188.933594 207.714844 142.613281 210.449219 137.820312 C 213.183594 133.027344 220.472656 112.949219 220.472656 112.949219 L 203.84375 97.890625 C 203.84375 97.890625 198.835938 113.863281 185.394531 116.828125 C 185.394531 116.828125 164.785156 126.792969 139.160156 118.273438"/><path fill="#90D4F4" d="M 174.238281 120.25 C 174.238281 120.480469 177.730469 139.949219 178.714844 140.253906 C 179.703125 140.558594 182.664062 140.179688 182.585938 139.113281 C 182.511719 138.046875 179.246094 119.109375 179.246094 119.109375 L 174.238281 120.25"/><path fill="#BEE9FA" d="M 175.332031 120.0625 C 174.914062 120.15625 165.957031 116.90625 164.136719 117.96875 C 162.316406 119.035156 164.136719 121.617188 164.136719 121.617188 C 164.136719 121.617188 174.539062 124.433594 174.917969 123.675781 C 175.296875 122.914062 175.332031 120.0625 175.332031 120.0625"/><path fill="#BEE9FA" d="M 177.566406 119.519531 L 179.453125 122.003906 C 179.667969 122.289062 180.082031 122.332031 180.351562 122.09375 L 186.722656 116.484375 C 186.722656 116.484375 187.296875 112.265625 184.941406 112.265625 C 182.585938 112.265625 177.566406 119.519531 177.566406 119.519531"/><path fill="#FFF" d="M 167.855469 97.46875 C 167.855469 97.46875 176.800781 92.015625 181.808594 91.957031 C 181.808594 93.609375 181.523438 98.0625 178.847656 99.65625 C 176.171875 101.253906 168.597656 102.011719 167.855469 97.46875"/><path fill="#6C6D6F" d="M 168.484375 85.496094 C 168.484375 85.496094 164.414062 82.558594 162.820312 87.40625 C 162.507812 88.804688 163.816406 89.148438 164.128906 88.832031 C 164.441406 88.519531 164.527344 86.609375 165.496094 86.324219 C 166.460938 86.039062 167.488281 85.953125 168.03125 86.265625 C 168.570312 86.582031 169.308594 86.296875 168.484375 85.496094"/><path fill="#6C6D6F" d="M 175.847656 84.191406 C 175.847656 84.191406 176.445312 79.199219 181.085938 81.308594 C 182.324219 82.027344 181.6875 83.222656 181.246094 83.242188 C 180.804688 83.257812 179.34375 82.027344 178.476562 82.546875 C 177.609375 83.066406 176.855469 83.765625 176.71875 84.375 C 176.582031 84.988281 175.871094 85.339844 175.847656 84.191406"/><path fill="#F25B4E" d="M 160.539062 82.867188 C 160.539062 82.867188 163.585938 77.953125 166.890625 78.867188 C 170.191406 79.78125 159.574219 85.5 160.539062 82.867188"/><path fill="#F25B4E" d="M 181.152344 76.179688 C 181.152344 76.179688 175.640625 74.457031 173.738281 77.3125 C 171.832031 80.164062 183.601562 77.535156 181.152344 76.179688"/><path fill="#B9AA8C" d="M 246.691406 6.480469 C 246.691406 6.480469 233.964844 8.847656 228.730469 12.097656 L 235.335938 27.328125 L 251.121094 21.875 C 251.121094 21.875 247.742188 8.507812 246.691406 6.480469"/><path fill="#E0CCA7" d="M 252.890625 28.410156 L 257.21875 27.328125 L 259.570312 41.835938 L 256.523438 42.332031 L 252.890625 28.410156"/><path fill="#5EACE3" d="M 136.25 128.605469 L 132.785156 140.9375 C 132.785156 140.9375 152.824219 146.261719 154.648438 149.761719 C 156.472656 153.257812 163.53125 195.089844 160.34375 209.921875 C 160.34375 209.921875 164.925781 210.382812 171.453125 210.710938 C 175.347656 192.472656 169.527344 148.03125 167.527344 141.46875 C 165.378906 134.398438 136.25 128.605469 136.25 128.605469"/><path fill="#C0A346" d="M 202.425781 353.898438 C 202.425781 350.527344 202.988281 340.125 203.777344 328.65625 C 201.769531 327.890625 199.484375 326.335938 198.046875 324.921875 C 195.488281 322.414062 193.3125 309.40625 194.855469 302.105469 C 196.394531 294.804688 200.148438 248.027344 196.503906 243.691406 C 192.859375 239.359375 185.417969 248.75 185.417969 248.75 C 186.328125 247.726562 191.222656 248.636719 190.296875 250.765625 C 189.367188 252.894531 191.1875 294.574219 188.457031 301.570312 C 185.722656 308.570312 179.046875 363.332031 182.535156 363.332031 C 186.027344 363.332031 195.441406 358.464844 199.390625 359.984375 C 199.390625 359.984375 202.425781 362.117188 202.425781 353.898438"/><path fill="#BEE9FA" d="M 188.242188 131.488281 L 189.496094 136.792969 L 200.085938 134.742188 L 198.777344 129.148438 L 188.242188 131.488281"/></svg>