<svg xmlns="http://www.w3.org/2000/svg" width="375" viewBox="0 0 375 375" height="375" version="1.0"><defs><clipPath id="a"><path d="M 18 31.132812 L 375 31.132812 L 375 350.632812 L 18 350.632812 Z M 18 31.132812"/></clipPath></defs><g clip-path="url(#a)"><path fill="#040606" d="M 349.496094 167.910156 C 349.472656 167.910156 349.472656 167.957031 349.449219 167.980469 C 345.867188 170.40625 341.910156 172 337.679688 172.71875 C 334.441406 173.273438 332.265625 176.300781 332.820312 179.535156 C 333.285156 182.425781 335.804688 184.480469 338.648438 184.480469 C 338.972656 184.480469 339.296875 184.457031 339.621094 184.390625 C 343.761719 183.695312 347.691406 182.355469 351.394531 180.484375 C 352.503906 182.308594 353.613281 184.320312 353.9375 184.945312 C 355.1875 187.832031 355.972656 190.859375 356.25 193.933594 C 356.25 193.957031 356.25 193.980469 356.273438 194.003906 C 356.367188 194.929688 356.414062 195.875 356.414062 196.800781 C 356.414062 213.023438 343.253906 226.222656 326.53125 226.359375 C 314.273438 226.246094 303.726562 218.757812 299.402344 207.800781 C 307.101562 206.136719 314.296875 201.90625 319.59375 195.296875 C 321.628906 192.753906 321.210938 189.035156 318.667969 187 C 316.125 184.945312 312.398438 185.382812 310.339844 187.902344 C 306.386719 192.847656 300.742188 195.945312 294.476562 196.660156 C 288.183594 197.332031 281.984375 195.550781 277.058594 191.601562 C 274.492188 189.566406 270.769531 190.003906 268.734375 192.546875 C 266.699219 195.089844 267.113281 198.8125 269.660156 200.84375 C 274.839844 205.003906 280.851562 207.386719 287.027344 208.21875 C 291.46875 223.933594 304.722656 235.441406 320.839844 237.753906 C 320.839844 237.917969 320.886719 238.054688 320.886719 238.214844 C 320.886719 254.535156 307.613281 267.800781 291.285156 267.800781 C 290.589844 267.800781 290.035156 267.660156 289.386719 267.636719 C 285.847656 255.945312 277.382812 246.558594 266.351562 241.753906 C 270.839844 235.8125 273.519531 228.464844 273.519531 220.464844 C 273.519531 217.207031 270.863281 214.550781 267.601562 214.550781 C 264.339844 214.550781 261.679688 217.207031 261.679688 220.464844 C 261.679688 233.523438 251.0625 244.132812 237.996094 244.132812 C 234.734375 244.132812 232.074219 246.792969 232.074219 250.050781 C 232.074219 253.308594 234.734375 255.964844 237.996094 255.964844 C 244.679688 255.964844 250.925781 254.070312 256.269531 250.859375 C 267.738281 253.402344 276.757812 262.484375 278.933594 274.226562 C 278.933594 274.25 278.957031 274.269531 278.957031 274.292969 C 279.28125 275.890625 279.441406 277.667969 279.441406 279.632812 C 279.441406 295.949219 266.167969 309.214844 249.839844 309.214844 C 247.941406 309.214844 246.023438 309.03125 244.125 308.660156 C 244.125 308.660156 244.125 308.660156 244.101562 308.660156 C 240.308594 307.921875 236.722656 306.441406 233.464844 304.292969 C 230.757812 302.46875 227.078125 303.207031 225.277344 305.933594 C 223.449219 308.660156 224.1875 312.335938 226.917969 314.140625 C 230.316406 316.40625 233.996094 318.136719 237.878906 319.292969 C 237.925781 319.871094 237.996094 320.449219 237.996094 321.050781 C 237.996094 330.847656 230.039062 338.800781 220.234375 338.800781 C 216.347656 338.800781 212.601562 337.527344 209.386719 335.078125 C 204.992188 331.773438 202.472656 326.667969 202.472656 321.050781 L 202.472656 72.550781 C 202.472656 56.234375 215.746094 42.964844 232.074219 42.964844 C 236.378906 42.964844 240.539062 43.890625 244.472656 45.695312 C 245.328125 46.085938 246.089844 46.550781 246.902344 47.011719 C 242.230469 52.972656 239.246094 60.070312 238.320312 67.558594 C 234.179688 68.527344 230.273438 70.46875 227.171875 73.566406 C 224.859375 75.878906 224.859375 79.621094 227.171875 81.933594 C 229.484375 84.246094 233.230469 84.246094 235.542969 81.933594 C 240.03125 77.472656 247.804688 77.472656 252.289062 81.933594 C 253.445312 83.089844 254.949219 83.667969 256.476562 83.667969 C 258.003906 83.667969 259.503906 83.089844 260.660156 81.933594 C 262.976562 79.621094 262.976562 75.878906 260.660156 73.566406 C 257.769531 70.65625 254.117188 68.804688 250.277344 67.789062 C 251.339844 61.25 254.578125 55.167969 259.574219 50.640625 C 259.621094 50.59375 259.691406 50.59375 259.738281 50.546875 C 265.125 45.671875 272.132812 42.964844 279.441406 42.964844 C 289.039062 42.964844 298.082031 47.636719 303.609375 55.492188 C 303.632812 55.492188 303.632812 55.492188 303.632812 55.492188 C 307.171875 60.507812 309.046875 66.402344 309.046875 72.550781 C 309.046875 75.808594 311.707031 78.464844 314.964844 78.464844 C 318.226562 78.464844 320.886719 75.808594 320.886719 72.550781 C 320.886719 66.609375 319.570312 60.878906 317.164062 55.5625 C 317.859375 55.425781 318.550781 55.238281 319.269531 55.148438 C 319.9375 55.054688 320.632812 54.960938 321.304688 54.914062 C 322.136719 54.847656 323.015625 54.800781 323.847656 54.800781 C 341.796875 54.800781 356.414062 69.40625 356.414062 87.339844 C 356.414062 91.15625 355.648438 95.039062 354.03125 99.566406 C 353.820312 100.144531 353.519531 100.722656 353.128906 101.484375 C 352.363281 103.105469 351.394531 104.652344 350.328125 106.15625 C 338.695312 100.769531 324.773438 101.09375 313.417969 107.03125 C 308.769531 103.9375 303.195312 102.132812 297.203125 102.132812 C 293.941406 102.132812 291.285156 104.792969 291.285156 108.050781 C 291.285156 111.308594 293.941406 113.964844 297.203125 113.964844 C 307.011719 113.964844 314.964844 121.917969 314.964844 131.714844 C 314.964844 134.976562 317.625 137.632812 320.886719 137.632812 C 324.148438 137.632812 326.808594 134.976562 326.808594 131.714844 C 326.808594 125.9375 325.074219 120.578125 322.183594 116.023438 C 330.625 112.855469 340.453125 113.550781 348.226562 118.359375 C 348.292969 118.382812 348.386719 118.382812 348.433594 118.425781 C 348.527344 118.496094 348.570312 118.589844 348.664062 118.660156 C 357.222656 124.113281 362.332031 133.425781 362.332031 143.550781 C 362.332031 153.28125 357.546875 162.386719 349.496094 167.910156 Z M 190.628906 334.546875 L 57.390625 199.875 C 21.910156 164.027344 21.910156 105.738281 57.414062 69.890625 C 74.503906 52.535156 97.238281 42.964844 121.429688 42.964844 C 145.621094 42.964844 168.359375 52.535156 185.472656 69.890625 L 190.628906 75.136719 Z M 360.296875 112.648438 C 361.664062 110.707031 362.84375 108.675781 363.8125 106.617188 C 364.320312 105.601562 364.808594 104.558594 365.179688 103.542969 C 367.257812 97.789062 368.253906 92.496094 368.253906 87.339844 C 368.253906 62.867188 348.339844 42.964844 323.847656 42.964844 C 322.785156 42.964844 321.652344 43.035156 320.515625 43.105469 C 319.476562 43.175781 318.503906 43.289062 317.625 43.429688 C 315.175781 43.753906 312.769531 44.285156 310.410156 45.023438 C 302.59375 36.265625 291.328125 31.132812 279.441406 31.132812 C 270.90625 31.132812 262.675781 33.746094 255.78125 38.574219 C 253.792969 37.164062 251.664062 35.964844 249.398438 34.921875 C 243.941406 32.40625 238.113281 31.132812 232.074219 31.132812 C 213.480469 31.132812 197.730469 43.429688 192.480469 60.300781 C 173.308594 41.511719 148.191406 31.132812 121.429688 31.132812 C 94.023438 31.132812 68.304688 41.949219 48.96875 61.59375 C 8.957031 101.996094 8.957031 167.769531 48.96875 208.171875 L 187.367188 348.089844 C 189.058594 349.753906 191.300781 350.632812 193.589844 350.632812 C 194.746094 350.632812 195.902344 350.402344 197.035156 349.941406 C 199.511719 348.898438 201.316406 346.820312 202.078125 344.347656 C 202.148438 344.417969 202.195312 344.460938 202.242188 344.507812 C 207.492188 348.507812 213.710938 350.632812 220.234375 350.632812 C 236.5625 350.632812 249.839844 337.367188 249.839844 321.050781 C 272.6875 321.050781 291.285156 302.46875 291.285156 279.632812 C 314.132812 279.632812 332.730469 261.050781 332.730469 238.214844 C 332.730469 238.078125 332.730469 237.9375 332.730469 237.800781 C 352.78125 234.910156 368.253906 217.625 368.253906 196.800781 C 368.253906 195.484375 368.183594 194.097656 368.046875 192.777344 C 367.628906 188.480469 366.542969 184.296875 364.761719 180.136719 C 364.160156 178.84375 362.886719 176.207031 361.246094 173.59375 C 369.433594 165.851562 374.175781 154.992188 374.175781 143.550781 C 374.175781 131.578125 369.085938 120.4375 360.296875 112.648438"/></g><path fill="#040606" d="M 261.679688 125.800781 C 238.828125 125.800781 220.234375 144.382812 220.234375 167.214844 C 220.234375 170.476562 222.894531 173.132812 226.15625 173.132812 C 229.414062 173.132812 232.074219 170.476562 232.074219 167.214844 C 232.074219 150.898438 245.351562 137.632812 261.679688 137.632812 C 264.941406 137.632812 267.601562 134.976562 267.601562 131.714844 C 267.601562 128.457031 264.941406 125.800781 261.679688 125.800781"/><path fill="#040606" d="M 121.429688 54.800781 C 100.429688 54.800781 80.679688 63.121094 65.808594 78.234375 C 51.722656 92.449219 43.511719 111.355469 42.679688 131.460938 C 42.539062 134.746094 45.085938 137.496094 48.347656 137.632812 C 48.414062 137.632812 48.507812 137.632812 48.601562 137.632812 C 51.746094 137.632812 54.382812 135.136719 54.5 131.972656 C 55.214844 114.796875 62.222656 98.667969 74.226562 86.53125 C 86.878906 73.707031 103.621094 66.632812 121.429688 66.632812 C 124.691406 66.632812 127.351562 63.976562 127.351562 60.714844 C 127.351562 57.457031 124.691406 54.800781 121.429688 54.800781"/><path fill="#040606" d="M 57.066406 153.765625 C 56.164062 150.621094 52.902344 148.796875 49.757812 149.699219 C 46.613281 150.574219 44.785156 153.835938 45.664062 157 C 46.265625 159.152344 46.980469 161.277344 47.769531 163.378906 C 48.648438 165.761719 50.914062 167.214844 53.296875 167.214844 C 53.988281 167.214844 54.707031 167.101562 55.378906 166.847656 C 58.453125 165.691406 60.003906 162.269531 58.847656 159.21875 C 58.175781 157.417969 57.574219 155.613281 57.066406 153.765625"/></svg>