<svg xmlns="http://www.w3.org/2000/svg" width="375" viewBox="0 0 375 375" height="375" version="1.0"><defs><clipPath id="a"><path d="M 42.441406 2.945312 L 335.191406 2.945312 L 335.191406 374.300781 L 42.441406 374.300781 Z M 42.441406 2.945312"/></clipPath><clipPath id="b"><path d="M 163.15625 89.679688 L 335.191406 89.679688 L 335.191406 372.574219 L 163.15625 372.574219 Z M 163.15625 89.679688"/></clipPath><clipPath id="c"><path d="M 181 277.734375 L 219.867188 277.734375 L 219.867188 374.300781 L 181 374.300781 Z M 181 277.734375"/></clipPath><clipPath id="d"><path d="M 219.054688 193 L 324 193 L 324 374.300781 L 219.054688 374.300781 Z M 219.054688 193"/></clipPath></defs><g clip-path="url(#a)"><path fill="#DB8951" d="M 323.125 367.832031 C 321.125 357.023438 315.570312 327.449219 309.207031 297.265625 C 309.300781 297.40625 309.382812 297.550781 309.476562 297.691406 C 316.59375 308.976562 325.621094 319.53125 329.605469 332.480469 C 332.683594 342.5 331.488281 354.226562 326.339844 363.410156 C 325.4375 365.023438 324.386719 366.503906 323.125 367.832031 Z M 284.507812 207.515625 C 287.214844 211.390625 289.296875 215.757812 290.863281 220.195312 C 290.90625 220.410156 290.976562 220.59375 291.0625 220.753906 C 291.191406 221.136719 291.320312 221.523438 291.445312 221.90625 C 292.847656 226.246094 293.765625 230.671875 294.441406 235.136719 C 291.324219 224.476562 287.894531 215.445312 284.507812 207.515625 Z M 222.066406 160.964844 C 218.316406 155.390625 217.84375 148.597656 218.433594 142.078125 C 218.953125 136.363281 219.722656 129.777344 223.101562 124.960938 C 224.519531 122.9375 226.394531 121.433594 228.386719 120.070312 C 233.652344 124.109375 239.410156 127.558594 243.515625 130.894531 C 241.496094 138.765625 238.777344 149.292969 235.167969 163.164062 C 234.609375 165.308594 234.09375 167.703125 233.613281 170.320312 C 229.035156 168.070312 224.917969 165.195312 222.066406 160.964844 Z M 322.03125 309.425781 C 318.195312 303.6875 314.125 298.09375 310.648438 292.121094 C 308.917969 289.144531 307.410156 286.089844 306.132812 282.941406 C 304.371094 274.894531 302.582031 267.015625 300.820312 259.648438 C 299.796875 250.347656 299.453125 240.953125 297.855469 231.722656 C 297.113281 227.445312 296.046875 223.148438 294.589844 218.992188 C 292.667969 208.179688 286.765625 198.855469 278.292969 191.945312 C 277.824219 191.5625 277.34375 191.1875 276.863281 190.816406 C 276.859375 190.816406 276.859375 190.8125 276.859375 190.808594 C 276.859375 190.808594 276.855469 190.808594 276.855469 190.808594 C 276.855469 190.808594 276.859375 190.808594 276.859375 190.808594 C 271.542969 179.671875 265.949219 173.917969 265.570312 163.863281 C 265.171875 153.273438 267.507812 145.660156 269.585938 141.074219 C 270.253906 141.488281 270.894531 141.136719 271.1875 140.558594 C 279.738281 145.808594 291.699219 147.628906 306.746094 142.183594 C 321.992188 136.667969 325.191406 115.636719 324.246094 94.683594 C 325.089844 94.175781 325.820312 93.46875 326.328125 92.574219 C 327.152344 91.121094 324.914062 89.808594 324.085938 91.261719 C 324.078125 91.277344 324.066406 91.292969 324.058594 91.308594 C 323.746094 86.53125 323.238281 81.804688 322.632812 77.3125 C 323.421875 77.191406 324.101562 76.429688 323.671875 75.597656 C 326.558594 73.589844 328.707031 71.347656 329.808594 68.757812 C 337.503906 50.683594 330.140625 26.839844 308.339844 19.011719 C 307.914062 18.359375 307.480469 17.714844 307.03125 17.078125 C 306.265625 15.996094 304.945312 16.046875 304.097656 16.636719 C 300.925781 13.242188 291.730469 4.851562 277.367188 3.402344 C 264.984375 2.15625 230.914062 0.929688 214.488281 36.945312 C 198.0625 72.953125 209.949219 97.429688 218.683594 110.367188 C 220.441406 112.972656 222.726562 115.332031 225.25 117.519531 C 223.878906 118.507812 222.574219 119.578125 221.433594 120.847656 C 217.75 124.933594 216.335938 130.136719 215.433594 135.445312 C 214.320312 141.980469 213.648438 148.832031 215.335938 155.332031 C 217.773438 164.710938 224.878906 170.1875 232.976562 174.082031 C 232.121094 179.480469 231.304688 185.433594 230.535156 191.804688 C 227.351562 192.035156 224.167969 192.109375 220.964844 191.867188 C 215.316406 191.441406 209.757812 189.710938 205.257812 186.1875 C 205.136719 186.09375 205.023438 185.992188 204.90625 185.898438 C 203.046875 175.875 200.878906 167.21875 198.34375 160.839844 C 197.230469 158.042969 196.128906 155.402344 195.046875 152.910156 C 199.699219 118.738281 200.554688 69.945312 172.652344 50.378906 C 127.71875 18.875 76.082031 51.695312 65.289062 77.785156 C 63.726562 81.5625 62.605469 85.171875 61.859375 88.644531 C 60.75 88.449219 59.566406 89.050781 59.742188 90.460938 C 59.957031 92.175781 60.335938 93.789062 60.890625 95.304688 C 59.539062 112.71875 67.945312 127.25 79.03125 145.011719 C 93.613281 168.378906 52.476562 187.644531 44.984375 213.0625 C 37.484375 238.480469 47.738281 248.996094 60.617188 255.550781 C 73.492188 262.101562 94.242188 257.417969 98.257812 275.207031 C 102.273438 293.003906 76.875 288.472656 76.9375 305.621094 C 76.980469 318.90625 90.082031 324.914062 107.9375 326.90625 C 102.886719 352.335938 99.300781 372.070312 99.300781 372.070312 L 143.4375 373.035156 L 181.320312 373.855469 L 219.109375 374.300781 C 219.109375 374.300781 218.574219 328.859375 215.140625 277.78125 C 214.894531 274.105469 214.632812 270.402344 214.351562 266.683594 C 214.117188 263.535156 213.871094 260.378906 213.613281 257.222656 C 213.3125 253.515625 212.992188 249.816406 212.652344 246.121094 C 212.367188 242.957031 212.066406 239.800781 211.75 236.660156 C 211.375 232.929688 210.984375 229.222656 210.570312 225.5625 C 209.214844 213.503906 207.644531 201.894531 205.828125 191.277344 C 205.90625 191.324219 205.980469 191.375 206.066406 191.425781 C 213.398438 195.738281 221.785156 196.253906 230.082031 195.6875 C 222.246094 263.742188 219.109375 374.300781 219.109375 374.300781 L 231.664062 374.039062 L 269.320312 373.035156 L 323.917969 372.132812 C 323.917969 372.132812 323.910156 372.097656 323.898438 372.027344 C 324.25 371.972656 324.601562 371.816406 324.929688 371.519531 C 332.367188 364.757812 335.121094 353.035156 335.195312 343.34375 C 335.289062 330.875 328.75 319.488281 322.03125 309.425781"/></g><path fill="#FEECE1" d="M 110.613281 193.175781 C 115.558594 181.316406 112.007812 166.730469 102.246094 158.410156 C 100.347656 156.792969 97.578125 159.535156 99.492188 161.167969 C 108.328125 168.691406 111.320312 181.4375 106.859375 192.140625 C 105.898438 194.449219 109.664062 195.457031 110.613281 193.175781"/><path fill="#FEECE1" d="M 111.957031 93.753906 C 101.394531 99.007812 87.992188 97.300781 79.089844 89.558594 C 77.207031 87.917969 74.441406 90.664062 76.335938 92.3125 C 86.632812 101.265625 101.707031 103.195312 113.925781 97.121094 C 116.167969 96.003906 114.199219 92.640625 111.957031 93.753906"/><path fill="#FEECE1" d="M 139.6875 50.386719 C 152.601562 49.953125 165.46875 54.871094 174.585938 64.09375 C 183.703125 73.316406 188.46875 86.25 187.894531 99.164062 C 187.785156 101.671875 191.679688 101.667969 191.792969 99.164062 C 192.410156 85.257812 187.144531 71.253906 177.339844 61.335938 C 167.535156 51.421875 153.589844 46.023438 139.6875 46.488281 C 137.1875 46.574219 137.171875 50.46875 139.6875 50.386719"/><path fill="#FEECE1" d="M 153.8125 58.921875 C 151.304688 58.839844 151.308594 62.738281 153.8125 62.820312 C 162.425781 63.097656 170.164062 69.222656 172.492188 77.511719 C 173.164062 79.921875 176.925781 78.898438 176.242188 76.476562 C 173.445312 66.488281 164.15625 59.257812 153.8125 58.921875"/><path fill="#FEECE1" d="M 85.757812 247.386719 C 78.257812 247.695312 70.410156 247.15625 63.902344 243.050781 C 58.089844 239.390625 54.898438 233.359375 54.917969 226.515625 C 54.957031 211.621094 67.253906 201.332031 77.777344 192.667969 C 79.71875 191.074219 76.949219 188.332031 75.023438 189.914062 C 65.554688 197.707031 55.40625 206.292969 52.101562 218.640625 C 50.609375 224.21875 50.535156 230.355469 52.746094 235.75 C 54.917969 241.054688 59.136719 245.171875 64.234375 247.703125 C 70.90625 251.015625 78.425781 251.585938 85.757812 251.285156 C 88.253906 251.183594 88.265625 247.285156 85.757812 247.386719"/><path fill="#FEECE1" d="M 70.289062 216.632812 C 72.507812 215.460938 70.539062 212.09375 68.324219 213.269531 C 62.371094 216.414062 61.410156 224.355469 64.851562 229.71875 C 69.226562 236.542969 77.429688 238.347656 84.886719 239.605469 C 87.339844 240.019531 88.394531 236.261719 85.921875 235.847656 C 80.097656 234.871094 73.65625 233.847656 69.433594 229.308594 C 66.089844 225.71875 65.351562 219.246094 70.289062 216.632812"/><path fill="#FEECE1" d="M 101.996094 257.203125 C 99.769531 256.058594 97.796875 259.421875 100.03125 260.566406 C 106.148438 263.707031 110.503906 269.964844 110.699219 276.9375 C 110.898438 284.070312 107.089844 290.238281 101.246094 294.070312 C 96.542969 297.15625 90.582031 300.632812 91.21875 307.164062 C 91.960938 314.84375 99.863281 317.867188 106.230469 319.671875 C 108.648438 320.355469 109.679688 316.597656 107.265625 315.914062 C 103.757812 314.921875 99.820312 313.921875 97.246094 311.148438 C 94.785156 308.503906 94.308594 304.980469 96.773438 302.203125 C 98.75 299.976562 101.527344 298.59375 103.957031 296.941406 C 106.664062 295.097656 108.988281 292.898438 110.796875 290.152344 C 118.234375 278.835938 113.980469 263.355469 101.996094 257.203125"/><path fill="#FEECE1" d="M 111.652344 308.527344 C 111.515625 308.542969 111.375 308.574219 111.226562 308.621094 C 107.644531 309.753906 104.859375 305.664062 107.5625 302.878906 C 109.308594 301.082031 106.558594 298.320312 104.808594 300.125 C 102.476562 302.527344 101.804688 306.332031 103.589844 309.269531 C 105.089844 311.742188 108.007812 312.980469 110.800781 312.675781 C 111.296875 312.621094 111.78125 312.527344 112.261719 312.378906 C 114.496094 311.667969 113.734375 308.308594 111.652344 308.527344"/><path fill="#FEECE1" d="M 103.042969 190.222656 C 104.847656 183.1875 102.648438 175.632812 97.679688 170.417969 C 95.945312 168.597656 93.195312 171.359375 94.925781 173.171875 C 103.375 182.039062 100.007812 196.890625 88.410156 201.03125 C 86.066406 201.867188 87.078125 205.632812 89.445312 204.785156 C 96.007812 202.445312 101.296875 197.050781 103.042969 190.222656"/><path fill="#FEECE1" d="M 131.773438 225.5625 C 130.734375 228.636719 129.71875 231.855469 128.730469 235.238281 C 128.59375 235.707031 128.457031 236.179688 128.320312 236.660156 L 150.6875 236.660156 C 150.894531 233.839844 151.101562 231.078125 151.304688 228.371094 C 151.308594 228.292969 151.316406 228.210938 151.320312 228.132812 C 151.378906 227.375 151.433594 226.621094 151.488281 225.875 C 151.5 225.773438 151.503906 225.664062 151.515625 225.5625 L 131.773438 225.5625"/><path fill="#FEECE1" d="M 125.746094 246.121094 C 124.832031 249.628906 123.902344 253.34375 122.96875 257.222656 L 149.207031 257.222656 C 149.210938 257.179688 149.214844 257.140625 149.21875 257.105469 C 149.476562 253.394531 149.738281 249.726562 150 246.121094 L 125.746094 246.121094"/><path fill="#FEECE1" d="M 120.726562 266.683594 C 119.886719 270.300781 119.046875 274.015625 118.210938 277.78125 L 147.800781 277.78125 C 147.804688 277.738281 147.804688 277.699219 147.808594 277.652344 C 148.054688 273.984375 148.300781 270.324219 148.550781 266.683594 L 120.726562 266.683594"/><path fill="#FEECE1" d="M 190.476562 224.34375 C 190.460938 224.75 190.445312 225.15625 190.429688 225.5625 C 190.355469 227.367188 190.277344 229.199219 190.195312 231.042969 C 190.195312 231.128906 190.191406 231.21875 190.1875 231.304688 C 190.148438 232.144531 190.113281 232.980469 190.078125 233.832031 C 190.066406 234 190.0625 234.167969 190.050781 234.339844 C 190.019531 235.09375 189.984375 235.851562 189.949219 236.609375 C 189.949219 236.625 189.945312 236.644531 189.945312 236.660156 L 211.75 236.660156 C 211.375 232.929688 210.984375 229.222656 210.570312 225.5625 L 190.429688 225.5625 C 190.445312 225.15625 190.460938 224.75 190.476562 224.34375"/><path fill="#FEECE1" d="M 151.738281 222.601562 C 151.855469 221.019531 151.972656 219.464844 152.089844 217.9375 C 152.089844 217.941406 152.089844 217.941406 152.089844 217.941406 C 151.972656 219.464844 151.855469 221.019531 151.738281 222.601562"/><path fill="#FEECE1" d="M 267.871094 216.621094 C 266.84375 212.03125 265.410156 207.390625 262.464844 203.640625 C 259.9375 200.414062 256.339844 197.925781 252.210938 197.414062 C 248 196.890625 243.957031 198.621094 240.839844 201.382812 C 233.28125 208.074219 232.882812 219.574219 231.945312 228.894531 C 230.660156 241.695312 230.167969 254.566406 230.410156 267.433594 C 230.4375 268.757812 231.535156 269.375 232.5625 269.300781 C 233.425781 269.238281 234.226562 268.675781 234.292969 267.617188 C 234.296875 267.550781 234.304688 267.5 234.304688 267.433594 C 234.113281 257.285156 234.371094 247.132812 235.132812 237.011719 C 235.503906 232.023438 235.988281 227.042969 236.597656 222.078125 C 237.15625 217.539062 237.84375 212.800781 240.015625 208.710938 C 241.898438 205.183594 245.1875 201.957031 249.277344 201.304688 C 253.28125 200.667969 256.992188 202.972656 259.398438 206.007812 C 262.113281 209.433594 263.273438 213.824219 264.191406 218.019531 C 265.261719 222.886719 266.128906 227.800781 266.859375 232.726562 C 268.523438 243.925781 269.308594 255.25 269.328125 266.570312 C 269.328125 266.648438 269.34375 266.71875 269.347656 266.792969 C 269.375 267.035156 269.433594 267.253906 269.527344 267.445312 C 270.316406 269.03125 273.226562 268.742188 273.222656 266.570312 C 273.203125 255.453125 272.410156 244.363281 270.859375 233.355469 C 270.066406 227.75 269.105469 222.148438 267.871094 216.621094"/><path fill="#FEECE1" d="M 318.476562 46.382812 C 317.171875 36.625 313.726562 27.246094 308.339844 19.011719 C 307.914062 18.359375 307.480469 17.714844 307.03125 17.078125 C 306.265625 15.996094 304.945312 16.046875 304.097656 16.636719 C 303.363281 17.152344 302.988281 18.089844 303.664062 19.046875 C 309.277344 26.980469 313.125 36.21875 314.503906 45.855469 C 314.53125 46.035156 314.558594 46.207031 314.582031 46.382812 C 314.757812 47.707031 315.980469 48.324219 317.007812 48.21875 C 317.886719 48.132812 318.628906 47.523438 318.476562 46.382812"/><path fill="#FEECE1" d="M 303.957031 30.523438 C 291.613281 22.605469 275.179688 22.410156 262.628906 29.976562 C 260.484375 31.269531 262.441406 34.640625 264.59375 33.339844 C 276.011719 26.460938 290.773438 26.699219 301.988281 33.886719 C 304.105469 35.242188 306.0625 31.871094 303.957031 30.523438"/><path fill="#FEECE1" d="M 275.472656 22.453125 C 282.972656 19.578125 291.257812 20.765625 297.671875 25.597656 C 299.675781 27.105469 301.617188 23.722656 299.636719 22.230469 C 292.5 16.851562 282.777344 15.5 274.4375 18.699219 C 272.121094 19.585938 273.125 23.355469 275.472656 22.453125"/><path fill="#FEECE1" d="M 189.496094 246.15625 C 189.40625 247.972656 189.3125 249.800781 189.21875 251.636719 C 189.21875 251.648438 189.21875 251.65625 189.214844 251.671875 C 189.121094 253.511719 189.027344 255.363281 188.929688 257.222656 C 188.847656 258.714844 188.765625 260.21875 188.683594 261.722656 C 188.765625 260.21875 188.847656 258.714844 188.929688 257.222656 L 213.613281 257.222656 C 213.3125 253.515625 212.992188 249.816406 212.652344 246.121094 L 189.496094 246.121094 C 189.496094 246.132812 189.496094 246.144531 189.496094 246.15625"/><path fill="#FEECE1" d="M 188.410156 266.683594 C 188.410156 266.699219 188.410156 266.71875 188.410156 266.738281 C 188.203125 270.414062 187.992188 274.101562 187.777344 277.78125 C 187.761719 278.066406 187.746094 278.355469 187.726562 278.644531 C 187.746094 278.355469 187.761719 278.066406 187.777344 277.78125 L 215.140625 277.78125 C 214.894531 274.105469 214.632812 270.402344 214.351562 266.683594 L 188.410156 266.683594"/><path fill="#FEECE1" d="M 60.890625 95.304688 C 61.996094 98.339844 63.820312 100.980469 66.484375 103.222656 C 70.691406 106.757812 75.609375 109.136719 81.210938 108.742188 C 81.523438 108.71875 81.792969 108.636719 82.027344 108.511719 C 82.734375 108.140625 83.082031 107.378906 83.078125 106.644531 C 83.078125 105.675781 82.457031 104.753906 81.210938 104.84375 C 72.921875 105.433594 64.65625 98.714844 63.636719 90.460938 C 63.507812 89.402344 62.707031 88.792969 61.859375 88.644531 C 60.75 88.449219 59.566406 89.050781 59.742188 90.460938 C 59.957031 92.175781 60.335938 93.789062 60.890625 95.304688"/><g clip-path="url(#b)"><path fill="#ADCDD9" d="M 322.03125 309.425781 C 318.195312 303.6875 314.125 298.09375 310.648438 292.121094 C 308.917969 289.144531 307.410156 286.089844 306.132812 282.941406 C 304.789062 279.621094 303.707031 276.199219 302.898438 272.652344 C 301.925781 268.355469 301.300781 264.011719 300.820312 259.648438 C 299.796875 250.347656 299.453125 240.953125 297.855469 231.722656 C 297.113281 227.445312 296.046875 223.148438 294.589844 218.992188 C 292.667969 208.179688 286.765625 198.855469 278.292969 191.945312 C 277.824219 191.5625 277.34375 191.1875 276.863281 190.816406 C 276.859375 190.816406 276.859375 190.8125 276.855469 190.808594 C 269.328125 185.027344 260.667969 180.996094 251.914062 177.414062 C 246.207031 175.074219 239.523438 173.222656 233.613281 170.320312 C 229.035156 168.070312 224.917969 165.195312 222.066406 160.964844 C 218.316406 155.390625 217.84375 148.597656 218.433594 142.078125 C 218.953125 136.363281 219.722656 129.777344 223.101562 124.960938 C 224.519531 122.9375 226.394531 121.433594 228.386719 120.070312 C 230.035156 118.941406 231.769531 117.910156 233.390625 116.765625 C 235.21875 115.476562 236.863281 114.042969 238.335938 112.472656 C 239.171875 111.570312 239.953125 110.625 240.683594 109.628906 C 240.921875 109.296875 241.160156 108.960938 241.390625 108.625 C 241.71875 108.664062 242.046875 108.695312 242.382812 108.695312 C 243.554688 108.695312 244.667969 108.425781 245.664062 107.957031 C 248.316406 106.722656 250.160156 104.035156 250.160156 100.910156 C 250.160156 98.03125 248.59375 95.523438 246.273438 94.179688 C 245.125 93.515625 243.800781 93.128906 242.382812 93.128906 C 240.535156 93.128906 238.835938 93.777344 237.503906 94.851562 C 235.738281 96.28125 234.601562 98.464844 234.601562 100.910156 C 234.601562 103.445312 235.820312 105.691406 237.695312 107.109375 C 237.082031 107.972656 236.421875 108.792969 235.710938 109.578125 C 234.351562 111.082031 232.8125 112.441406 231.0625 113.652344 C 229.15625 114.96875 227.136719 116.164062 225.25 117.519531 C 223.878906 118.507812 222.574219 119.578125 221.433594 120.847656 C 217.75 124.933594 216.335938 130.136719 215.433594 135.445312 C 214.320312 141.980469 213.648438 148.832031 215.335938 155.332031 C 217.773438 164.710938 224.878906 170.1875 232.976562 174.082031 C 233.53125 174.347656 234.089844 174.609375 234.652344 174.859375 C 234.683594 174.875 234.714844 174.890625 234.746094 174.902344 C 236.699219 175.777344 238.691406 176.570312 240.679688 177.316406 C 250.785156 181.105469 260.941406 184.894531 270.070312 190.773438 C 270.492188 191.046875 270.914062 191.328125 271.332031 191.609375 C 271.34375 191.621094 271.355469 191.625 271.367188 191.636719 C 271.925781 192.011719 272.472656 192.398438 273.011719 192.796875 C 272.207031 192.429688 271.386719 192.101562 270.554688 191.796875 C 270.527344 191.789062 270.496094 191.777344 270.472656 191.769531 C 265.992188 190.152344 261.148438 189.386719 256.132812 189.394531 C 254.222656 189.394531 252.316406 189.484375 250.410156 189.632812 C 250.183594 189.648438 249.957031 189.667969 249.730469 189.6875 C 243.320312 190.21875 236.941406 191.335938 230.535156 191.804688 C 227.351562 192.035156 224.167969 192.109375 220.964844 191.867188 C 215.316406 191.441406 209.757812 189.710938 205.257812 186.1875 C 205.136719 186.09375 205.023438 185.992188 204.90625 185.898438 C 200.480469 182.304688 197.347656 177.394531 194.878906 172.3125 C 192.128906 166.648438 190.160156 160.621094 188.15625 154.664062 C 186.277344 149.0625 184.484375 143.429688 182.867188 137.746094 C 181.5625 133.171875 180.390625 128.5625 179.273438 123.941406 C 178.394531 120.300781 177.554688 116.660156 176.71875 113.011719 C 176.375 111.507812 176.027344 110.003906 175.683594 108.496094 C 175.585938 108.070312 175.488281 107.640625 175.390625 107.210938 C 175.1875 106.324219 174.976562 105.441406 174.773438 104.554688 C 175.414062 104.21875 176.003906 103.796875 176.527344 103.296875 C 178.015625 101.878906 178.949219 99.882812 178.949219 97.660156 C 178.949219 93.363281 175.46875 89.878906 171.171875 89.878906 C 171.132812 89.878906 171.097656 89.882812 171.058594 89.886719 C 168.351562 89.921875 165.980469 91.347656 164.617188 93.480469 C 163.847656 94.6875 163.394531 96.121094 163.394531 97.660156 C 163.394531 99.589844 164.097656 101.355469 165.261719 102.710938 C 165.839844 103.386719 166.523438 103.957031 167.292969 104.398438 C 167.828125 104.707031 168.398438 104.957031 169.003906 105.132812 C 169.238281 105.199219 169.472656 105.257812 169.714844 105.300781 C 170.125 105.382812 170.542969 105.421875 170.972656 105.433594 C 171.703125 108.628906 172.425781 111.832031 173.160156 115.027344 C 173.304688 115.644531 173.445312 116.265625 173.59375 116.882812 C 174.695312 121.667969 175.832031 126.449219 177.058594 131.210938 C 177.316406 132.210938 177.585938 133.207031 177.851562 134.203125 C 178.382812 136.183594 178.929688 138.160156 179.496094 140.132812 C 181.066406 145.574219 182.769531 150.984375 184.589844 156.351562 C 185.238281 158.257812 185.902344 160.15625 186.578125 162.054688 C 186.613281 162.144531 186.644531 162.238281 186.679688 162.335938 C 186.882812 162.90625 187.082031 163.484375 187.292969 164.058594 C 189.125 169.121094 191.253906 174.328125 194.097656 179.019531 C 194.144531 179.105469 194.195312 179.1875 194.246094 179.273438 C 194.511719 179.699219 194.777344 180.121094 195.046875 180.535156 C 196.519531 182.773438 198.171875 184.871094 200.054688 186.742188 C 200.089844 186.777344 200.121094 186.816406 200.15625 186.851562 C 201.847656 188.523438 203.730469 190.015625 205.828125 191.277344 C 205.90625 191.324219 205.980469 191.375 206.066406 191.425781 C 213.398438 195.738281 221.785156 196.253906 230.082031 195.6875 C 232.988281 195.488281 235.886719 195.152344 238.722656 194.808594 C 249.832031 193.449219 262.175781 191.363281 272.589844 196.742188 C 277.492188 199.273438 281.410156 203.074219 284.507812 207.515625 C 287.214844 211.390625 289.296875 215.757812 290.863281 220.195312 C 290.90625 220.410156 290.976562 220.59375 291.0625 220.753906 C 291.191406 221.136719 291.320312 221.523438 291.445312 221.90625 C 292.847656 226.246094 293.765625 230.671875 294.441406 235.136719 C 295.664062 243.28125 296.046875 251.570312 296.945312 259.75 C 297.675781 266.472656 298.707031 273.203125 300.757812 279.660156 C 302.738281 285.90625 305.746094 291.722656 309.207031 297.265625 C 309.300781 297.40625 309.382812 297.550781 309.476562 297.691406 C 316.59375 308.976562 325.621094 319.53125 329.605469 332.480469 C 332.683594 342.5 331.488281 354.226562 326.339844 363.410156 C 325.4375 365.023438 324.386719 366.503906 323.125 367.832031 C 322.820312 368.152344 322.503906 368.464844 322.175781 368.765625 C 320.644531 370.160156 322.25 372.265625 323.898438 372.027344 C 324.25 371.972656 324.601562 371.816406 324.929688 371.519531 C 332.367188 364.757812 335.121094 353.035156 335.195312 343.34375 C 335.289062 330.875 328.75 319.488281 322.03125 309.425781"/></g><path fill="#F1483A" d="M 187.265625 174.757812 C 188.296875 178.472656 188.761719 182.351562 189.398438 186.148438 C 189.441406 186.40625 189.480469 186.660156 189.527344 186.914062 C 189.929688 194.136719 190.210938 201.367188 190.746094 208.578125 C 190.773438 208.945312 190.863281 209.265625 190.996094 209.550781 C 190.976562 210.308594 190.949219 211.074219 190.925781 211.84375 C 190.917969 212.074219 190.914062 212.308594 190.902344 212.539062 C 190.886719 213.09375 190.867188 213.648438 190.847656 214.207031 C 190.839844 214.464844 190.828125 214.726562 190.824219 214.984375 C 190.800781 215.585938 190.78125 216.191406 190.761719 216.800781 C 190.753906 216.992188 190.746094 217.183594 190.742188 217.382812 C 190.710938 218.121094 190.6875 218.871094 190.660156 219.617188 C 190.644531 219.960938 190.628906 220.308594 190.617188 220.652344 C 190.601562 221.09375 190.585938 221.53125 190.570312 221.976562 C 190.554688 222.371094 190.539062 222.769531 190.523438 223.171875 C 190.507812 223.558594 190.492188 223.953125 190.476562 224.34375 C 190.460938 224.75 190.445312 225.15625 190.429688 225.5625 L 210.570312 225.5625 C 209.214844 213.503906 207.644531 201.894531 205.828125 191.277344 C 203.730469 190.015625 201.847656 188.523438 200.15625 186.851562 L 196.0625 186.851562 C 196.0625 186.84375 196.0625 186.832031 196.058594 186.824219 C 195.925781 186.023438 195.792969 185.222656 195.65625 184.421875 C 195.445312 183.164062 195.253906 181.863281 195.046875 180.535156 C 194.777344 180.121094 194.511719 179.699219 194.246094 179.273438 C 194.195312 179.1875 194.144531 179.105469 194.097656 179.019531 C 191.253906 174.328125 189.125 169.121094 187.292969 164.058594 C 187.082031 163.484375 186.882812 162.90625 186.679688 162.335938 C 186.644531 162.238281 186.613281 162.144531 186.578125 162.054688 C 186.359375 161.980469 186.140625 161.910156 185.917969 161.847656 C 184.3125 160.898438 182.597656 160.347656 180.84375 160.125 C 177.011719 159.644531 173 160.75 169.59375 162.789062 C 166.15625 164.730469 163.039062 167.339844 160.28125 170.1875 C 153.3125 177.371094 148.644531 186.078125 146.992188 189.417969 C 146.640625 190.152344 146.289062 190.894531 145.929688 191.640625 C 145.75 192.027344 145.5625 192.414062 145.378906 192.804688 C 145.285156 193.007812 145.1875 193.210938 145.085938 193.414062 C 144.828125 193.964844 144.570312 194.511719 144.304688 195.070312 C 144.265625 195.152344 144.222656 195.242188 144.1875 195.328125 C 143.949219 195.828125 143.710938 196.335938 143.46875 196.847656 C 143.386719 197.027344 143.304688 197.210938 143.21875 197.390625 C 142.972656 197.914062 142.730469 198.4375 142.488281 198.96875 C 142.449219 199.054688 142.40625 199.136719 142.371094 199.222656 C 142.097656 199.816406 141.820312 200.417969 141.542969 201.027344 C 141.464844 201.203125 141.386719 201.382812 141.304688 201.558594 C 141.070312 202.074219 140.835938 202.601562 140.601562 203.125 C 140.542969 203.253906 140.488281 203.378906 140.433594 203.503906 C 140.152344 204.128906 139.871094 204.765625 139.59375 205.410156 C 139.519531 205.582031 139.441406 205.757812 139.367188 205.933594 C 139.136719 206.46875 138.902344 207.003906 138.667969 207.550781 C 138.601562 207.707031 138.535156 207.855469 138.472656 208.011719 C 138.1875 208.675781 137.90625 209.351562 137.621094 210.035156 C 137.554688 210.199219 137.488281 210.359375 137.421875 210.519531 C 137.1875 211.085938 136.953125 211.660156 136.71875 212.238281 C 136.652344 212.414062 136.578125 212.589844 136.507812 212.769531 C 136.222656 213.476562 135.9375 214.191406 135.652344 214.917969 C 135.601562 215.058594 135.546875 215.195312 135.492188 215.335938 C 135.253906 215.953125 135.011719 216.578125 134.773438 217.207031 C 134.699219 217.402344 134.625 217.597656 134.550781 217.792969 C 134.265625 218.550781 133.984375 219.3125 133.699219 220.089844 C 133.667969 220.175781 133.636719 220.273438 133.601562 220.359375 C 133.347656 221.058594 133.09375 221.765625 132.839844 222.480469 C 132.769531 222.691406 132.695312 222.902344 132.617188 223.109375 C 132.335938 223.921875 132.054688 224.734375 131.773438 225.5625 L 151.515625 225.5625 C 151.519531 225.507812 151.523438 225.460938 151.523438 225.40625 C 151.585938 224.605469 151.644531 223.820312 151.703125 223.035156 C 151.714844 222.886719 151.726562 222.742188 151.738281 222.601562 C 151.855469 221.019531 151.972656 219.464844 152.089844 217.941406 C 152.089844 217.941406 152.089844 217.941406 152.089844 217.9375 C 153.304688 211.265625 154.925781 204.671875 156.988281 198.203125 C 157.507812 196.5625 158.050781 194.917969 158.617188 193.269531 C 160.605469 187.488281 162.914062 181.730469 165.890625 176.445312 C 166.050781 176.164062 166.207031 175.878906 166.371094 175.601562 C 169.390625 170.414062 175.894531 163.890625 182.484375 167.359375 C 185.226562 168.804688 186.480469 171.933594 187.265625 174.757812"/><path fill="#F1483A" d="M 122.96875 257.222656 C 122.222656 260.28125 121.476562 263.445312 120.726562 266.683594 L 148.550781 266.683594 C 148.765625 263.539062 148.984375 260.414062 149.203125 257.316406 C 149.203125 257.285156 149.203125 257.253906 149.207031 257.222656 L 122.96875 257.222656"/><path fill="#F1483A" d="M 128.320312 236.660156 C 127.484375 239.585938 126.621094 242.757812 125.746094 246.121094 L 150 246.121094 C 150.230469 242.910156 150.460938 239.753906 150.6875 236.660156 L 128.320312 236.660156"/><path fill="#F1483A" d="M 118.210938 277.78125 C 115.960938 287.886719 113.738281 298.375 111.652344 308.527344 C 113.734375 308.308594 114.496094 311.667969 112.261719 312.378906 C 111.78125 312.527344 111.296875 312.621094 110.800781 312.675781 C 109.808594 317.550781 108.847656 322.320312 107.9375 326.90625 C 102.886719 352.335938 99.300781 372.070312 99.300781 372.070312 L 143.4375 373.035156 C 143.269531 357.6875 144.496094 331.25 146.222656 302.625 C 146.46875 298.542969 146.722656 294.414062 146.988281 290.269531 C 146.988281 290.257812 146.988281 290.25 146.988281 290.238281 C 147.121094 288.183594 147.253906 286.125 147.386719 284.066406 C 147.386719 284.027344 147.390625 283.984375 147.394531 283.945312 C 147.527344 281.910156 147.660156 279.878906 147.796875 277.847656 C 147.796875 277.824219 147.800781 277.800781 147.800781 277.78125 L 118.210938 277.78125"/><path fill="#F1483A" d="M 188.683594 261.722656 C 188.679688 261.84375 188.671875 261.96875 188.664062 262.089844 C 188.582031 263.589844 188.5 265.097656 188.414062 266.605469 C 188.414062 266.632812 188.410156 266.65625 188.410156 266.683594 L 214.351562 266.683594 C 214.117188 263.535156 213.871094 260.378906 213.613281 257.222656 L 188.929688 257.222656 C 188.847656 258.714844 188.765625 260.21875 188.683594 261.722656"/><path fill="#F1483A" d="M 189.945312 236.660156 C 189.945312 236.703125 189.945312 236.742188 189.941406 236.789062 C 189.875 238.238281 189.808594 239.699219 189.738281 241.167969 C 189.730469 241.273438 189.730469 241.375 189.722656 241.484375 C 189.648438 243.011719 189.574219 244.550781 189.496094 246.097656 C 189.496094 246.105469 189.496094 246.113281 189.496094 246.121094 L 212.652344 246.121094 C 212.367188 242.957031 212.066406 239.800781 211.75 236.660156 L 189.945312 236.660156"/><g clip-path="url(#c)"><path fill="#F1483A" d="M 187.777344 277.78125 C 187.761719 278.066406 187.746094 278.355469 187.726562 278.644531 C 187.695312 279.203125 187.660156 279.761719 187.628906 280.324219 C 187.609375 280.644531 187.589844 280.972656 187.570312 281.292969 C 187.527344 282.050781 187.476562 282.808594 187.433594 283.566406 C 187.414062 283.898438 187.394531 284.234375 187.375 284.566406 C 187.34375 285.101562 187.3125 285.636719 187.277344 286.171875 C 187.253906 286.542969 187.230469 286.910156 187.210938 287.277344 C 187.167969 287.96875 187.128906 288.660156 187.085938 289.351562 C 187.0625 289.699219 187.042969 290.046875 187.023438 290.394531 C 186.980469 291.035156 186.945312 291.675781 186.902344 292.3125 C 186.878906 292.691406 186.859375 293.066406 186.832031 293.445312 C 186.796875 294.023438 186.761719 294.601562 186.726562 295.179688 C 186.707031 295.511719 186.683594 295.847656 186.660156 296.175781 C 186.617188 296.90625 186.574219 297.628906 186.527344 298.355469 C 186.507812 298.675781 186.488281 298.996094 186.464844 299.3125 C 186.433594 299.851562 186.398438 300.386719 186.363281 300.921875 C 186.339844 301.320312 186.3125 301.71875 186.289062 302.117188 C 186.25 302.730469 186.210938 303.34375 186.171875 303.960938 C 186.148438 304.328125 186.125 304.699219 186.101562 305.070312 C 186.066406 305.609375 186.03125 306.148438 185.996094 306.683594 C 185.964844 307.152344 185.9375 307.617188 185.910156 308.078125 C 185.875 308.613281 185.839844 309.148438 185.804688 309.679688 C 185.785156 309.984375 185.761719 310.289062 185.746094 310.59375 C 185.699219 311.285156 185.65625 311.976562 185.609375 312.667969 C 185.585938 313.023438 185.5625 313.386719 185.539062 313.746094 C 185.507812 314.230469 185.476562 314.714844 185.445312 315.195312 C 185.425781 315.492188 185.40625 315.785156 185.386719 316.082031 C 185.339844 316.792969 185.292969 317.5 185.246094 318.203125 C 185.226562 318.503906 185.207031 318.804688 185.183594 319.101562 C 185.144531 319.710938 185.105469 320.320312 185.0625 320.929688 C 185.042969 321.25 185.019531 321.570312 185 321.894531 C 184.960938 322.4375 184.929688 322.980469 184.890625 323.519531 C 184.871094 323.824219 184.847656 324.128906 184.828125 324.433594 C 184.785156 325.085938 184.742188 325.738281 184.695312 326.386719 C 184.679688 326.695312 184.65625 327.003906 184.632812 327.3125 C 184.601562 327.820312 184.566406 328.332031 184.53125 328.835938 C 184.511719 329.078125 184.496094 329.320312 184.480469 329.554688 C 184.4375 330.207031 184.394531 330.847656 184.351562 331.492188 C 184.328125 331.832031 184.304688 332.171875 184.277344 332.511719 C 184.246094 333.019531 184.210938 333.527344 184.175781 334.03125 C 184.15625 334.351562 184.132812 334.671875 184.109375 334.988281 C 184.074219 335.503906 184.039062 336.019531 184.003906 336.527344 C 183.984375 336.792969 183.96875 337.0625 183.949219 337.328125 C 183.90625 337.945312 183.863281 338.5625 183.820312 339.179688 C 183.800781 339.46875 183.777344 339.761719 183.761719 340.050781 C 183.730469 340.46875 183.703125 340.886719 183.671875 341.300781 C 183.652344 341.570312 183.632812 341.839844 183.617188 342.113281 C 183.574219 342.710938 183.53125 343.304688 183.492188 343.894531 C 183.472656 344.171875 183.453125 344.449219 183.433594 344.726562 C 183.398438 345.21875 183.363281 345.71875 183.328125 346.207031 C 183.3125 346.441406 183.292969 346.679688 183.277344 346.914062 C 183.246094 347.425781 183.207031 347.9375 183.171875 348.441406 C 183.152344 348.675781 183.136719 348.914062 183.121094 349.152344 C 183.082031 349.691406 183.042969 350.226562 183.007812 350.753906 C 182.988281 351.003906 182.972656 351.25 182.953125 351.5 C 182.921875 351.953125 182.890625 352.402344 182.859375 352.847656 C 182.84375 353.011719 182.832031 353.175781 182.824219 353.339844 C 182.78125 353.882812 182.746094 354.414062 182.707031 354.945312 C 182.691406 355.191406 182.671875 355.429688 182.65625 355.675781 C 182.613281 356.222656 182.578125 356.769531 182.539062 357.304688 C 182.535156 357.320312 182.535156 357.335938 182.53125 357.355469 C 182.492188 357.910156 182.453125 358.457031 182.414062 358.996094 C 182.402344 359.160156 182.390625 359.316406 182.378906 359.476562 C 182.34375 359.972656 182.308594 360.457031 182.273438 360.9375 C 182.257812 361.148438 182.242188 361.351562 182.226562 361.558594 C 182.195312 361.992188 182.164062 362.421875 182.132812 362.84375 C 182.128906 362.933594 182.121094 363.023438 182.113281 363.113281 C 182.078125 363.617188 182.042969 364.113281 182.007812 364.601562 C 181.996094 364.746094 181.984375 364.886719 181.976562 365.027344 C 181.945312 365.410156 181.917969 365.777344 181.894531 366.144531 C 181.878906 366.375 181.859375 366.597656 181.84375 366.820312 C 181.816406 367.1875 181.789062 367.550781 181.761719 367.90625 C 181.753906 368.046875 181.742188 368.183594 181.730469 368.320312 C 181.703125 368.738281 181.671875 369.15625 181.644531 369.554688 C 181.632812 369.667969 181.628906 369.773438 181.617188 369.886719 C 181.59375 370.230469 181.566406 370.570312 181.542969 370.902344 C 181.53125 371.027344 181.523438 371.15625 181.511719 371.28125 C 181.484375 371.65625 181.460938 372.023438 181.429688 372.382812 C 181.421875 372.515625 181.410156 372.648438 181.402344 372.777344 C 181.375 373.144531 181.34375 373.507812 181.320312 373.855469 L 219.109375 374.300781 C 219.109375 374.300781 218.574219 328.859375 215.140625 277.78125 L 187.777344 277.78125"/></g><path fill="#F1483A" d="M 308.339844 19.011719 C 313.726562 27.246094 317.171875 36.625 318.476562 46.382812 C 318.628906 47.523438 317.886719 48.132812 317.007812 48.21875 C 318.007812 52.140625 320.351562 61.949219 322.136719 73.863281 C 322.683594 74.308594 323.171875 74.832031 323.585938 75.4375 C 323.621094 75.492188 323.644531 75.546875 323.671875 75.597656 C 326.558594 73.589844 328.707031 71.347656 329.808594 68.757812 C 337.503906 50.683594 330.140625 26.839844 308.339844 19.011719"/><path fill="#F1483A" d="M 301.988281 33.886719 C 290.773438 26.699219 276.011719 26.460938 264.59375 33.339844 C 262.441406 34.640625 260.484375 31.269531 262.628906 29.976562 C 275.179688 22.410156 291.613281 22.605469 303.957031 30.523438 C 306.0625 31.871094 304.105469 35.242188 301.988281 33.886719 Z M 274.4375 18.699219 C 282.777344 15.5 292.5 16.851562 299.636719 22.230469 C 301.617188 23.722656 299.675781 27.105469 297.671875 25.597656 C 291.257812 20.765625 282.972656 19.578125 275.472656 22.453125 C 273.125 23.355469 272.121094 19.585938 274.4375 18.699219 Z M 304.097656 16.636719 C 300.925781 13.242188 291.730469 4.851562 277.367188 3.402344 C 264.984375 2.15625 230.914062 0.929688 214.488281 36.945312 C 198.0625 72.953125 209.949219 97.429688 218.683594 110.367188 C 220.441406 112.972656 222.726562 115.332031 225.25 117.519531 C 227.136719 116.164062 229.15625 114.96875 231.0625 113.652344 C 232.8125 112.441406 234.351562 111.082031 235.710938 109.578125 C 234.375 107.601562 233.304688 105.011719 232.660156 101.625 C 228.820312 81.347656 248.738281 82.398438 250.484375 92.535156 C 250.484375 92.535156 268.476562 34.789062 314.503906 45.855469 C 313.125 36.21875 309.277344 26.980469 303.664062 19.046875 C 302.988281 18.089844 303.363281 17.152344 304.097656 16.636719"/><path fill="#F1483A" d="M 233.390625 116.765625 C 231.769531 117.910156 230.035156 118.941406 228.386719 120.070312 C 233.652344 124.109375 239.410156 127.558594 243.515625 130.894531 C 245.359375 123.699219 246.621094 118.722656 247.449219 115.433594 C 244.457031 115.4375 241.132812 114.75 238.335938 112.472656 C 236.863281 114.042969 235.21875 115.476562 233.390625 116.765625"/><path fill="#295086" d="M 104.0625 137.949219 C 104.089844 135.1875 105.3125 132.808594 107.453125 131.089844 C 108.757812 130.042969 106.910156 128.210938 105.617188 129.25 C 102.96875 131.378906 101.496094 134.558594 101.464844 137.949219 C 101.445312 139.621094 104.042969 139.621094 104.0625 137.949219"/><path fill="#295086" d="M 147.9375 113.269531 C 141.550781 111.136719 134.601562 112.570312 129.472656 116.890625 C 128.191406 117.96875 130.035156 119.796875 131.308594 118.726562 C 135.746094 114.992188 141.777344 113.945312 147.246094 115.777344 C 148.835938 116.304688 149.519531 113.796875 147.9375 113.269531"/><path fill="#295086" d="M 176.527344 103.296875 C 176.003906 103.796875 175.414062 104.21875 174.773438 104.554688 C 174.976562 105.441406 175.1875 106.324219 175.390625 107.210938 C 175.488281 107.640625 175.585938 108.070312 175.683594 108.496094 C 177.125 107.25 177.476562 105.011719 176.527344 103.296875"/><path fill="#295086" d="M 165.261719 102.710938 C 165.691406 104.003906 166.25 105.25 166.914062 106.421875 C 167.515625 107.492188 168.886719 107.082031 169.289062 106.113281 C 169.398438 105.839844 169.542969 105.566406 169.714844 105.300781 C 169.472656 105.257812 169.238281 105.199219 169.003906 105.132812 C 168.398438 104.957031 167.828125 104.707031 167.292969 104.398438 C 166.523438 103.957031 165.839844 103.386719 165.261719 102.710938"/><path fill="#295086" d="M 164.617188 93.480469 C 165.980469 91.347656 168.351562 89.921875 171.058594 89.886719 C 168.183594 88.007812 165.351562 90.472656 164.617188 93.480469"/><path fill="#295086" d="M 110.796875 290.152344 C 108.988281 292.898438 106.664062 295.097656 103.957031 296.941406 C 101.527344 298.59375 98.75 299.976562 96.773438 302.203125 C 94.308594 304.980469 94.785156 308.503906 97.246094 311.148438 C 99.820312 313.921875 103.757812 314.921875 107.265625 315.914062 C 109.679688 316.597656 108.648438 320.355469 106.230469 319.671875 C 99.863281 317.867188 91.960938 314.84375 91.21875 307.164062 C 90.582031 300.632812 96.542969 297.15625 101.246094 294.070312 C 107.089844 290.238281 110.898438 284.070312 110.699219 276.9375 C 110.503906 269.964844 106.148438 263.707031 100.03125 260.566406 C 97.796875 259.421875 99.769531 256.058594 101.996094 257.203125 C 113.980469 263.355469 118.234375 278.835938 110.796875 290.152344 Z M 89.445312 204.785156 C 87.078125 205.632812 86.066406 201.867188 88.410156 201.03125 C 100.007812 196.890625 103.375 182.039062 94.925781 173.171875 C 93.195312 171.359375 95.945312 168.597656 97.679688 170.417969 C 102.648438 175.632812 104.847656 183.1875 103.042969 190.222656 C 101.296875 197.050781 96.007812 202.445312 89.445312 204.785156 Z M 85.757812 251.285156 C 78.425781 251.585938 70.90625 251.015625 64.234375 247.703125 C 59.136719 245.171875 54.917969 241.054688 52.746094 235.75 C 50.535156 230.355469 50.609375 224.21875 52.101562 218.640625 C 55.40625 206.292969 65.554688 197.707031 75.023438 189.914062 C 76.949219 188.332031 79.71875 191.074219 77.777344 192.667969 C 67.253906 201.332031 54.957031 211.621094 54.917969 226.515625 C 54.898438 233.359375 58.089844 239.390625 63.902344 243.050781 C 70.410156 247.15625 78.257812 247.695312 85.757812 247.386719 C 88.265625 247.285156 88.253906 251.183594 85.757812 251.285156 Z M 85.921875 235.847656 C 88.394531 236.261719 87.339844 240.019531 84.886719 239.605469 C 77.429688 238.347656 69.226562 236.542969 64.851562 229.71875 C 61.410156 224.355469 62.371094 216.414062 68.324219 213.269531 C 70.539062 212.09375 72.507812 215.460938 70.289062 216.632812 C 65.351562 219.246094 66.089844 225.71875 69.433594 229.308594 C 73.65625 233.847656 80.097656 234.871094 85.921875 235.847656 Z M 102.246094 158.410156 C 112.007812 166.730469 115.558594 181.316406 110.613281 193.175781 C 109.664062 195.457031 105.898438 194.449219 106.859375 192.140625 C 111.320312 181.4375 108.328125 168.691406 99.492188 161.167969 C 97.578125 159.535156 100.347656 156.792969 102.246094 158.410156 Z M 177.511719 135.027344 C 177.148438 142.027344 174.769531 148.234375 170.902344 153.828125 C 170.160156 154.902344 169.371094 155.957031 168.523438 156.988281 C 167.992188 157.628906 168.191406 158.414062 168.652344 158.875 C 168.175781 159.4375 167.679688 159.992188 167.164062 160.539062 C 166.019531 161.75 164.769531 162.914062 163.410156 164.023438 C 160.976562 166.007812 158.191406 167.808594 155.03125 169.371094 C 153.792969 169.980469 152.503906 170.558594 151.144531 171.089844 C 119.972656 183.332031 87.542969 119.875 82.027344 108.511719 C 81.792969 108.636719 81.523438 108.71875 81.210938 108.742188 C 75.609375 109.136719 70.691406 106.757812 66.484375 103.222656 C 63.820312 100.980469 61.996094 98.339844 60.890625 95.304688 C 59.539062 112.71875 67.945312 127.25 79.03125 145.011719 C 93.613281 168.378906 52.476562 187.644531 44.984375 213.0625 C 37.484375 238.480469 47.738281 248.996094 60.617188 255.550781 C 73.492188 262.101562 94.242188 257.417969 98.257812 275.207031 C 102.273438 293.003906 76.875 288.472656 76.9375 305.621094 C 76.980469 318.90625 90.082031 324.914062 107.9375 326.90625 C 108.847656 322.320312 109.808594 317.550781 110.800781 312.675781 C 108.007812 312.980469 105.089844 311.742188 103.589844 309.269531 C 101.804688 306.332031 102.476562 302.527344 104.808594 300.125 C 106.558594 298.320312 109.308594 301.082031 107.5625 302.878906 C 104.859375 305.664062 107.644531 309.753906 111.226562 308.621094 C 111.375 308.574219 111.515625 308.542969 111.652344 308.527344 C 113.738281 298.375 115.960938 287.886719 118.210938 277.78125 C 119.046875 274.015625 119.886719 270.300781 120.726562 266.683594 C 121.476562 263.445312 122.222656 260.28125 122.96875 257.222656 C 123.902344 253.34375 124.832031 249.628906 125.746094 246.121094 C 126.621094 242.757812 127.484375 239.585938 128.320312 236.660156 C 128.457031 236.179688 128.59375 235.707031 128.730469 235.238281 C 129.71875 231.855469 130.734375 228.636719 131.773438 225.5625 C 132.054688 224.734375 132.335938 223.921875 132.617188 223.109375 C 132.695312 222.902344 132.769531 222.691406 132.839844 222.480469 C 133.09375 221.765625 133.347656 221.058594 133.601562 220.359375 C 133.636719 220.273438 133.667969 220.175781 133.699219 220.089844 C 133.984375 219.3125 134.265625 218.550781 134.550781 217.792969 C 134.625 217.597656 134.699219 217.402344 134.773438 217.207031 C 135.011719 216.578125 135.253906 215.953125 135.492188 215.335938 C 135.546875 215.195312 135.601562 215.058594 135.652344 214.917969 C 135.9375 214.191406 136.222656 213.476562 136.507812 212.769531 C 136.578125 212.589844 136.652344 212.414062 136.71875 212.238281 C 136.953125 211.660156 137.1875 211.085938 137.421875 210.519531 C 137.488281 210.359375 137.554688 210.199219 137.621094 210.035156 C 137.90625 209.351562 138.1875 208.675781 138.472656 208.011719 C 138.535156 207.855469 138.601562 207.707031 138.667969 207.550781 C 138.902344 207.003906 139.136719 206.46875 139.367188 205.933594 C 139.441406 205.757812 139.519531 205.582031 139.59375 205.410156 C 139.871094 204.765625 140.152344 204.128906 140.433594 203.503906 C 140.488281 203.378906 140.542969 203.253906 140.601562 203.125 C 140.835938 202.601562 141.070312 202.074219 141.304688 201.558594 C 141.386719 201.382812 141.464844 201.203125 141.542969 201.027344 C 141.820312 200.417969 142.097656 199.816406 142.371094 199.222656 C 142.40625 199.136719 142.449219 199.054688 142.488281 198.96875 C 142.730469 198.4375 142.972656 197.914062 143.21875 197.390625 C 143.304688 197.210938 143.386719 197.027344 143.46875 196.847656 C 143.710938 196.335938 143.949219 195.828125 144.1875 195.328125 C 144.222656 195.242188 144.265625 195.152344 144.304688 195.070312 C 144.570312 194.511719 144.828125 193.964844 145.085938 193.414062 C 145.1875 193.210938 145.285156 193.007812 145.378906 192.804688 C 145.5625 192.414062 145.75 192.027344 145.929688 191.640625 C 146.289062 190.894531 146.640625 190.152344 146.992188 189.417969 C 148.644531 186.078125 153.3125 177.371094 160.28125 170.1875 C 163.039062 167.339844 166.15625 164.730469 169.59375 162.789062 C 169.625 162.363281 169.652344 161.933594 169.667969 161.5 C 169.691406 160.832031 169.679688 160.1875 169.640625 159.5625 C 169.628906 159.460938 169.617188 159.355469 169.609375 159.25 C 169.871094 159.226562 170.132812 159.097656 170.359375 158.824219 C 171.769531 157.113281 173.042969 155.351562 174.175781 153.539062 C 176.761719 149.394531 178.585938 144.953125 179.496094 140.132812 C 178.929688 138.160156 178.382812 136.183594 177.851562 134.203125 C 177.660156 134.40625 177.527344 134.679688 177.511719 135.027344"/><path fill="#295086" d="M 112.675781 128.859375 C 111.597656 127.578125 109.769531 129.421875 110.839844 130.695312 C 116.902344 137.917969 122.964844 145.140625 129.027344 152.363281 C 131.148438 154.894531 133.355469 157.898438 136.65625 158.921875 C 139.441406 159.78125 142.375 158.996094 144.085938 156.625 C 145.070312 155.265625 142.820312 153.96875 141.847656 155.3125 C 139.632812 158.378906 135.605469 155.789062 133.722656 153.839844 C 131.328125 151.363281 129.21875 148.566406 127.003906 145.933594 C 122.230469 140.242188 117.453125 134.550781 112.675781 128.859375"/><path fill="#295086" d="M 140.511719 164.710938 C 138.84375 164.777344 138.835938 167.378906 140.511719 167.304688 C 148.679688 166.960938 155.878906 161.519531 158.457031 153.761719 C 158.988281 152.171875 156.480469 151.488281 155.953125 153.070312 C 153.75 159.699219 147.488281 164.410156 140.511719 164.710938"/><path fill="#295086" d="M 147.300781 132.292969 C 145.703125 131.78125 145.019531 134.289062 146.609375 134.796875 C 151.617188 136.40625 156.207031 131.957031 155.0625 126.914062 C 154.691406 125.285156 152.1875 125.976562 152.558594 127.605469 C 153.285156 130.808594 150.339844 133.269531 147.300781 132.292969"/><path fill="#295086" d="M 121.015625 149.136719 C 120.007812 151.480469 117.351562 152.164062 115.496094 150.253906 C 114.332031 149.050781 112.496094 150.890625 113.660156 152.089844 C 116.558594 155.074219 121.582031 154.355469 123.257812 150.449219 C 123.910156 148.929688 121.671875 147.601562 121.015625 149.136719"/><path fill="#295086" d="M 287.929688 92.628906 C 286.859375 91.34375 285.03125 93.191406 286.09375 94.46875 C 290.007812 99.183594 297.066406 100.292969 302.289062 97.144531 C 303.71875 96.285156 302.414062 94.035156 300.980469 94.902344 C 296.679688 97.496094 291.121094 96.472656 287.929688 92.628906"/><path fill="#295086" d="M 324.085938 91.261719 C 324.078125 91.277344 324.066406 91.292969 324.058594 91.308594 C 323.769531 91.792969 323.328125 92.210938 322.804688 92.515625 C 321.882812 93.0625 320.71875 93.25 319.761719 92.832031 C 319.195312 92.585938 318.65625 92.742188 318.285156 93.070312 C 317.734375 88.003906 317.183594 82.933594 316.632812 77.867188 C 316.453125 76.222656 313.855469 76.207031 314.035156 77.867188 C 314.757812 84.519531 315.480469 91.171875 316.203125 97.820312 C 316.484375 100.425781 319.726562 116.367188 313.328125 114.054688 C 311.75 113.488281 311.074219 115.996094 312.636719 116.5625 C 315.035156 117.425781 317.613281 116.191406 318.898438 114.058594 C 320.722656 111.03125 319.800781 107.050781 319.441406 103.761719 C 319.128906 100.875 318.816406 97.984375 318.5 95.09375 C 320.367188 95.886719 322.542969 95.695312 324.246094 94.683594 C 325.089844 94.175781 325.820312 93.46875 326.328125 92.574219 C 327.152344 91.121094 324.914062 89.808594 324.085938 91.261719"/><path fill="#295086" d="M 287.023438 79.875 C 290.066406 76.558594 293.910156 74.464844 298.332031 73.671875 C 299.976562 73.378906 299.28125 70.875 297.644531 71.167969 C 292.820312 72.03125 288.5 74.425781 285.1875 78.035156 C 284.058594 79.265625 285.890625 81.109375 287.023438 79.875"/><path fill="#295086" d="M 316.757812 74.828125 C 318.464844 74.511719 320.367188 75.320312 321.34375 76.75 C 321.671875 77.234375 322.167969 77.378906 322.632812 77.3125 C 323.421875 77.191406 324.101562 76.429688 323.671875 75.597656 C 323.644531 75.546875 323.621094 75.492188 323.585938 75.4375 C 323.171875 74.832031 322.683594 74.308594 322.136719 73.863281 C 320.46875 72.5 318.269531 71.917969 316.066406 72.320312 C 314.425781 72.625 315.117188 75.128906 316.757812 74.828125"/><path fill="#295086" d="M 291.234375 125.355469 C 297.929688 127.003906 304.722656 128.386719 311.574219 129.171875 C 304.628906 131.910156 296.695312 130.488281 291.234375 125.355469 Z M 317.277344 128.335938 C 317.277344 128.285156 317.269531 128.238281 317.265625 128.1875 C 317.265625 128.171875 317.261719 128.15625 317.261719 128.140625 C 317.15625 127.449219 316.550781 126.835938 315.835938 126.988281 C 306.398438 126.261719 297.046875 124.222656 287.910156 121.828125 C 286.890625 121.558594 285.761719 122.769531 286.445312 123.734375 C 293.316406 133.433594 306.5 136.09375 316.484375 129.554688 C 317.035156 129.402344 317.300781 128.875 317.277344 128.335938"/><path fill="#295086" d="M 269.488281 141.015625 C 269.523438 141.039062 269.554688 141.054688 269.585938 141.074219 C 270.253906 141.488281 270.894531 141.136719 271.1875 140.558594 C 271.472656 140.003906 271.441406 139.242188 270.796875 138.773438 C 263.65625 133.554688 257.527344 127.054688 253.808594 118.953125 C 253.109375 117.433594 250.871094 118.753906 251.566406 120.261719 C 255.472656 128.777344 261.992188 135.542969 269.488281 141.015625"/><path fill="#295086" d="M 191.792969 99.164062 C 191.679688 101.667969 187.785156 101.671875 187.894531 99.164062 C 188.46875 86.25 183.703125 73.316406 174.585938 64.09375 C 165.46875 54.871094 152.601562 49.953125 139.6875 50.386719 C 137.171875 50.46875 137.1875 46.574219 139.6875 46.488281 C 153.589844 46.023438 167.535156 51.421875 177.339844 61.335938 C 187.144531 71.253906 192.410156 85.257812 191.792969 99.164062 Z M 172.492188 77.511719 C 170.164062 69.222656 162.425781 63.097656 153.8125 62.820312 C 151.308594 62.738281 151.304688 58.839844 153.8125 58.921875 C 164.15625 59.257812 173.445312 66.488281 176.242188 76.476562 C 176.925781 78.898438 173.164062 79.921875 172.492188 77.511719 Z M 113.925781 97.121094 C 101.707031 103.195312 86.632812 101.265625 76.335938 92.3125 C 74.441406 90.664062 77.207031 87.917969 79.089844 89.558594 C 87.992188 97.300781 101.394531 99.007812 111.957031 93.753906 C 114.199219 92.640625 116.167969 96.003906 113.925781 97.121094 Z M 172.652344 50.378906 C 127.71875 18.875 76.082031 51.695312 65.289062 77.785156 C 63.726562 81.5625 62.605469 85.171875 61.859375 88.644531 C 62.707031 88.792969 63.507812 89.402344 63.636719 90.460938 C 64.65625 98.714844 72.921875 105.433594 81.210938 104.84375 C 82.457031 104.753906 83.078125 105.675781 83.078125 106.644531 L 159.105469 100.648438 C 151.324219 87.859375 173.09375 74.933594 180.28125 93.285156 C 184.59375 104.296875 180.601562 110.117188 176.71875 113.011719 C 177.554688 116.660156 178.394531 120.300781 179.273438 123.941406 C 183.550781 129.9375 189.058594 139.148438 195.046875 152.910156 C 199.699219 118.738281 200.554688 69.945312 172.652344 50.378906"/><path fill="#295086" d="M 173.160156 115.027344 C 172.757812 115.195312 172.410156 115.320312 172.140625 115.410156 C 172.558594 115.804688 173.042969 116.296875 173.59375 116.882812 C 173.445312 116.265625 173.304688 115.644531 173.160156 115.027344"/><path fill="#295086" d="M 237.503906 94.851562 C 238.835938 93.777344 240.535156 93.128906 242.382812 93.128906 C 243.800781 93.128906 245.125 93.515625 246.273438 94.179688 C 246.078125 93.949219 245.871094 93.726562 245.648438 93.515625 C 243.335938 91.359375 239.789062 90.53125 237.070312 92.40625 C 236.003906 93.140625 236.554688 94.660156 237.503906 94.851562"/><path fill="#295086" d="M 241.390625 108.625 C 241.160156 108.960938 240.921875 109.296875 240.683594 109.628906 C 241.9375 110.558594 243.675781 110.816406 245.316406 109.832031 C 246.082031 109.375 246.0625 108.527344 245.664062 107.957031 C 244.667969 108.425781 243.554688 108.695312 242.382812 108.695312 C 242.046875 108.695312 241.71875 108.664062 241.390625 108.625"/><path fill="#295086" d="M 273.011719 192.796875 C 272.472656 192.398438 271.925781 192.011719 271.367188 191.636719 C 271.09375 191.691406 270.824219 191.746094 270.554688 191.796875 C 271.386719 192.101562 272.207031 192.429688 273.011719 192.796875"/><g clip-path="url(#d)"><path fill="#295086" d="M 322.175781 368.765625 C 322.503906 368.464844 322.820312 368.152344 323.125 367.832031 C 321.125 357.023438 315.570312 327.449219 309.207031 297.265625 C 305.746094 291.722656 302.738281 285.90625 300.757812 279.660156 C 298.707031 273.203125 297.675781 266.472656 296.945312 259.75 C 296.046875 251.570312 295.664062 243.28125 294.441406 235.136719 C 291.324219 224.476562 287.894531 215.445312 284.507812 207.515625 C 281.410156 203.074219 277.492188 199.273438 272.589844 196.742188 C 262.175781 191.363281 249.832031 193.449219 238.722656 194.808594 C 235.886719 195.152344 232.988281 195.488281 230.082031 195.6875 C 222.246094 263.742188 219.109375 374.300781 219.109375 374.300781 L 231.664062 374.039062 L 232.5625 269.300781 C 231.535156 269.375 230.4375 268.757812 230.410156 267.433594 C 230.167969 254.566406 230.660156 241.695312 231.945312 228.894531 C 232.882812 219.574219 233.28125 208.074219 240.839844 201.382812 C 243.957031 198.621094 248 196.890625 252.210938 197.414062 C 256.339844 197.925781 259.9375 200.414062 262.464844 203.640625 C 265.410156 207.390625 266.84375 212.03125 267.871094 216.621094 C 269.105469 222.148438 270.066406 227.75 270.859375 233.355469 C 272.410156 244.363281 273.203125 255.453125 273.222656 266.570312 C 273.226562 268.742188 270.316406 269.03125 269.527344 267.445312 L 269.320312 373.035156 L 323.917969 372.132812 C 323.917969 372.132812 323.910156 372.097656 323.898438 372.027344 C 322.25 372.265625 320.644531 370.160156 322.175781 368.765625"/></g><path fill="#295086" d="M 302.898438 272.652344 C 303.707031 276.199219 304.789062 279.621094 306.132812 282.941406 C 304.371094 274.894531 302.582031 267.015625 300.820312 259.648438 C 301.300781 264.011719 301.925781 268.355469 302.898438 272.652344"/><path fill="#295086" d="M 234.652344 174.859375 C 234.089844 174.609375 233.53125 174.347656 232.976562 174.082031 C 232.121094 179.480469 231.304688 185.433594 230.535156 191.804688 C 236.941406 191.335938 243.320312 190.21875 249.730469 189.6875 C 241.335938 185.730469 236.667969 178.664062 234.652344 174.859375"/><path fill="#295086" d="M 269.328125 266.570312 C 269.308594 255.25 268.523438 243.925781 266.859375 232.726562 C 266.128906 227.800781 265.261719 222.886719 264.191406 218.019531 C 263.273438 213.824219 262.113281 209.433594 259.398438 206.007812 C 256.992188 202.972656 253.28125 200.667969 249.277344 201.304688 C 245.1875 201.957031 241.898438 205.183594 240.015625 208.710938 C 237.84375 212.800781 237.15625 217.539062 236.597656 222.078125 C 235.988281 227.042969 235.503906 232.023438 235.132812 237.011719 C 234.371094 247.132812 234.113281 257.285156 234.304688 267.433594 C 234.304688 267.5 234.296875 267.550781 234.292969 267.617188 C 239.007812 269.902344 252.96875 275.117188 269.347656 266.792969 C 269.34375 266.71875 269.328125 266.648438 269.328125 266.570312"/><path fill="#295086" d="M 276.859375 190.808594 C 276.859375 190.808594 276.855469 190.808594 276.855469 190.808594 C 276.859375 190.8125 276.859375 190.816406 276.863281 190.816406 C 276.859375 190.816406 276.859375 190.8125 276.859375 190.808594"/></svg>