<svg xmlns="http://www.w3.org/2000/svg" width="375" viewBox="0 0 375 375" height="375" version="1.0"><path stroke-linecap="round" transform="matrix(.6441 0 0 .6441 -41.416 -41.416)" fill="none" stroke-linejoin="round" d="M 487.595857 275.438512 L 464.865795 298.180703 L 419.405671 252.70845 L 442.111475 229.978389 Z M 487.595857 275.438512" stroke="#373431" stroke-width="12" stroke-miterlimit="10"/><path stroke-linecap="round" transform="matrix(.6441 0 0 .6441 -41.416 -41.416)" fill="none" stroke-linejoin="round" d="M 298.168567 464.853673 L 275.432441 487.583735 L 229.978382 442.123611 L 252.708443 419.399614 Z M 298.168567 464.853673" stroke="#373431" stroke-width="12" stroke-miterlimit="10"/><path stroke-linecap="round" transform="matrix(.6441 0 0 .6441 -41.416 -41.416)" fill="none" stroke-linejoin="round" d="M 192.086859 616.377311 L 101.172676 525.475257 C 101.172676 525.475257 94.356083 532.273656 86.035474 540.618524 C 77.684541 548.945199 77.684541 562.596578 86.035474 570.917187 L 146.626735 631.526643 C 154.977668 639.877575 168.604789 639.877575 176.949657 631.526643 C 185.276331 623.199968 192.086859 616.377311 192.086859 616.377311 Z M 192.086859 616.377311" stroke="#373431" stroke-width="12" stroke-miterlimit="10"/><path stroke-linecap="round" transform="matrix(.6441 0 0 .6441 -41.416 -41.416)" fill="none" stroke-linejoin="round" d="M 267.869904 601.22798 L 116.334137 449.704341 L 86.035474 480.003004 C 77.684541 488.353937 77.684541 501.974993 86.035474 510.325926 L 207.24832 631.526643 C 215.599252 639.877575 229.220309 639.877575 237.546983 631.526643 Z M 267.869904 601.22798" stroke="#373431" stroke-width="12" stroke-miterlimit="10"/><path stroke-linecap="round" transform="matrix(.6441 0 0 .6441 -41.416 -41.416)" fill="none" stroke-linejoin="round" d="M 358.784087 570.917187 L 146.626735 358.784094 L 101.172676 404.238153 C 92.846002 412.576956 92.846002 426.210142 101.172676 434.548945 L 283.001042 616.377311 C 291.351974 624.703985 304.979095 624.703985 313.323963 616.377311 Z M 358.784087 570.917187" stroke="#373431" stroke-width="12" stroke-miterlimit="10"/><path stroke-linecap="round" transform="matrix(.6441 0 0 .6441 -41.416 -41.416)" fill="none" stroke-linejoin="round" d="M 525.481315 101.172683 L 616.377304 192.086866 C 616.377304 192.086866 623.212091 185.264209 631.538765 176.937534 C 639.865439 168.604796 639.865439 154.965546 631.538765 146.626742 L 570.91718 86.023352 C 562.566248 77.684548 548.945192 77.684548 540.618517 86.023352 C 532.267585 94.350026 525.481315 101.172683 525.481315 101.172683 Z M 525.481315 101.172683" stroke="#373431" stroke-width="12" stroke-miterlimit="10"/><path stroke-linecap="round" transform="matrix(.6441 0 0 .6441 -41.416 -41.416)" fill="none" stroke-linejoin="round" d="M 449.704334 116.322015 L 601.240102 267.857782 L 631.538765 237.54699 C 639.889697 229.208186 639.889697 215.575001 631.538765 207.236198 L 510.319854 86.023352 C 501.974986 77.684548 488.347865 77.684548 480.002997 86.023352 Z M 449.704334 116.322015" stroke="#373431" stroke-width="12" stroke-miterlimit="10"/><path stroke-linecap="round" transform="matrix(.6441 0 0 .6441 -41.416 -41.416)" fill="none" stroke-linejoin="round" d="M 358.784087 146.644936 L 570.91718 358.771965 L 616.377304 313.330035 C 624.728237 304.979102 624.728237 291.345917 616.377304 283.007113 L 434.542874 101.172683 C 426.2162 92.83388 412.570885 92.83388 404.219952 101.172683 Z M 358.784087 146.644936" stroke="#373431" stroke-width="12" stroke-miterlimit="10"/><path stroke-linecap="round" transform="matrix(.6441 0 0 .6441 -41.416 -41.416)" fill="none" stroke-linejoin="round" d="M 336.054025 593.63512 L 320.892564 608.80871 L 108.735213 396.663487 L 123.902738 381.508091 Z M 336.054025 593.63512" stroke="#373431" stroke-width="12" stroke-miterlimit="10"/><path stroke-linecap="round" transform="rotate(-44.996 248.214 172.535) scale(.64411)" fill="none" stroke-linejoin="round" d="M 484.440893 72.398361 L 505.882435 72.396864 L 505.881949 372.411211 L 484.444695 372.40842 Z M 484.440893 72.398361" stroke="#373431" stroke-width="12" stroke-miterlimit="10"/><path stroke-linecap="round" transform="matrix(.6441 0 0 .6441 -41.416 -41.416)" fill="none" stroke-linejoin="round" d="M 283.031365 192.098995 C 311.595557 220.663187 325.877653 258.11806 325.877653 295.578997 C 394.164872 345.078134 481.124946 420.515497 570.91718 510.325926 L 601.240102 540.594266 C 617.990483 557.344648 617.960161 584.483662 601.240102 601.21585 C 584.48972 617.966232 557.368899 617.966232 540.618517 601.21585 L 510.319854 570.917187 C 420.527619 481.112823 345.090256 394.152749 295.554731 325.87766 C 255.170665 325.87766 218.601221 309.509347 192.086859 283.019243 L 70.874013 161.788203 L 161.788196 252.70845 C 170.163387 261.071512 183.735926 261.071512 192.111117 252.696321 C 200.46205 244.345389 200.46205 230.772849 192.086859 222.397658 L 101.172676 131.477411 L 192.086859 222.397658 C 200.46205 230.772849 214.034589 230.772849 222.40978 222.397658 C 230.784971 214.034596 230.784971 200.462057 222.40978 192.098995 L 131.489533 101.172683 L 222.40978 192.098995 C 230.784971 200.462057 244.333253 200.462057 252.708443 192.098995 C 261.083634 183.723804 261.083634 170.151265 252.708443 161.788203 L 161.788196 70.87402 Z M 283.031365 192.098995" stroke="#373431" stroke-width="12" stroke-miterlimit="10"/><path stroke-linecap="round" transform="matrix(.6441 0 0 .6441 -41.416 -41.416)" fill="none" stroke-linejoin="round" d="M 405.172092 357.844083 L 464.865795 298.180703 L 419.405671 252.70845 L 354.80572 317.296273 C 370.846545 329.66196 387.718219 343.258758 405.172092 357.844083 Z M 405.172092 357.844083" stroke="#373431" stroke-width="12" stroke-miterlimit="10"/><path stroke-linecap="round" transform="matrix(.6441 0 0 .6441 -41.416 -41.416)" fill="none" stroke-linejoin="round" d="M 317.278072 354.817856 L 252.708443 419.399614 L 298.168567 464.853673 L 357.856206 405.172099 C 343.258751 387.712161 329.661953 370.852617 317.278072 354.817856 Z M 317.278072 354.817856" stroke="#373431" stroke-width="12" stroke-miterlimit="10"/></svg>