<svg xmlns="http://www.w3.org/2000/svg" width="375" viewBox="0 0 375 375" height="375" version="1.0"><defs><clipPath id="a"><path d="M 110 6.371094 L 248 6.371094 L 248 285 L 110 285 Z M 110 6.371094"/></clipPath></defs><g clip-path="url(#a)"><path fill="#4C81CB" d="M 114.296875 204.625 C 109.367188 180.238281 108.421875 159.394531 118.863281 136.300781 C 141.160156 87.023438 186.671875 59.25 223.457031 21.777344 C 228.164062 16.980469 232.53125 11.753906 236.773438 6.367188 C 241.734375 50.378906 250.707031 90.503906 245.660156 135.246094 C 240.648438 179.605469 217.28125 216.410156 182.46875 244.632812 C 171.058594 253.890625 153.726562 266.765625 141.699219 283.042969 C 133.007812 294.808594 117.09375 218.488281 114.296875 204.625"/></g><path fill="#1D1E32" d="M 146.769531 353.46875 L 146.921875 353.457031 C 147.414062 353.371094 147.757812 352.90625 147.675781 352.40625 C 134.429688 271.554688 145.363281 157.375 200.675781 97.75 C 201.015625 97.382812 200.996094 96.800781 200.625 96.460938 C 200.257812 96.117188 199.683594 96.136719 199.332031 96.507812 C 143.601562 156.582031 132.554688 271.421875 145.875 352.699219 C 145.945312 353.144531 146.332031 353.46875 146.769531 353.46875"/><path fill="#40BFC2" d="M 120.886719 298.523438 C 130.964844 245.742188 103.539062 164.28125 42.035156 154.925781 C 28.988281 152.941406 18.882812 153.953125 19.976562 168.902344 C 20.730469 179.152344 25.339844 189.265625 30.597656 198.152344 C 44.472656 221.609375 62.914062 236.558594 81.53125 255.953125 C 89.949219 264.71875 97.863281 272.980469 106.445312 281.226562 C 109.40625 284.078125 111.523438 287.046875 113.730469 290.40625 C 115.175781 292.609375 119.855469 300.871094 119.617188 299.15625 L 120.886719 298.523438"/><path fill="#1D1E32" d="M 53.519531 182.941406 C 69.773438 199.777344 83.761719 215.910156 94.828125 234.304688 C 105.894531 252.703125 114.050781 273.363281 118.636719 299.328125 C 121.671875 316.539062 122.332031 330.628906 122.332031 340.21875 C 122.332031 343.898438 122.234375 346.914062 122.136719 349.195312 C 122.039062 351.480469 121.9375 353.003906 121.929688 353.796875 C 121.925781 354.347656 122.371094 354.796875 122.917969 354.800781 C 123.46875 354.804688 123.917969 354.359375 123.921875 353.808594 C 123.925781 353.148438 124.027344 351.574219 124.128906 349.28125 C 124.226562 346.980469 124.328125 343.933594 124.328125 340.21875 C 124.328125 330.535156 123.65625 316.324219 120.597656 298.980469 C 115.976562 272.796875 107.71875 251.867188 96.535156 233.277344 C 85.347656 214.683594 71.25 198.4375 54.953125 181.554688 C 54.570312 181.15625 53.941406 181.148438 53.546875 181.53125 C 53.148438 181.914062 53.140625 182.542969 53.523438 182.941406 L 53.519531 182.941406"/><path fill="#57B7E5" d="M 279.167969 101.78125 C 274.011719 111.371094 282.011719 121.417969 281.441406 131.226562 C 279.828125 158.652344 232.890625 154.652344 238.117188 183.746094 C 239.167969 189.59375 242.820312 194.777344 246.6875 199.101562 C 249.859375 202.636719 255.796875 206.238281 256.707031 211.386719 C 258.410156 221.015625 244.152344 227.109375 239.074219 233.203125 C 231.601562 242.148438 229.121094 254.519531 236.667969 264.3125 C 243.890625 273.679688 244.785156 272.050781 243.832031 285.253906 C 242.988281 296.953125 245.460938 321.207031 253.679688 331.515625 C 263.828125 279.875 280.144531 286.503906 300.007812 284.777344 C 310.957031 283.816406 324.710938 275.4375 321.90625 264.285156 C 318.960938 252.578125 318.253906 249.660156 312.03125 240.40625 C 303.617188 227.898438 317.253906 221.082031 327.617188 218.457031 C 340.84375 215.113281 342.957031 211.46875 346.78125 196.253906 C 348.425781 189.699219 347.265625 183.042969 343.84375 177.207031 C 340.042969 170.742188 332.367188 167.828125 328.558594 161.828125 C 321.351562 150.476562 339.367188 146.425781 346.210938 141.695312 C 353.675781 136.53125 356.117188 129.902344 352.742188 121.425781 C 351.167969 117.472656 348.871094 114.066406 345.234375 111.894531 C 342.617188 110.332031 337.023438 110.226562 335.34375 107.519531 C 333.996094 105.351562 336.152344 100.285156 335.816406 97.492188 C 335.40625 94.136719 334.160156 90.683594 331.554688 88.320312 C 323.960938 81.425781 314.292969 90.75 305.960938 91.710938 C 296.105469 92.847656 284.738281 91.417969 279.167969 101.78125"/><path fill="#1D1E32" d="M 307.019531 134.996094 C 290.964844 162.324219 279.335938 194.773438 268.925781 224.515625 C 259.242188 252.191406 253.148438 280.679688 252.15625 309.847656 C 252.121094 310.871094 252.09375 312.335938 252.09375 314.179688 C 252.097656 325.472656 253.046875 350.773438 258.835938 372.25 C 258.984375 372.78125 259.53125 373.097656 260.0625 372.953125 C 260.589844 372.808594 260.90625 372.261719 260.765625 371.730469 C 255.046875 350.574219 254.082031 325.355469 254.085938 314.179688 C 254.085938 312.355469 254.113281 310.90625 254.148438 309.914062 C 255.132812 280.984375 261.179688 252.695312 270.808594 225.175781 C 281.210938 195.445312 292.8125 163.101562 308.738281 136.007812 C 309.015625 135.53125 308.859375 134.917969 308.386719 134.640625 C 307.910156 134.363281 307.300781 134.519531 307.023438 134.996094 L 307.019531 134.996094"/><path fill="#1D1E32" d="M 291.398438 137.460938 C 292.175781 145.425781 293.234375 153.246094 294.589844 159.292969 C 294.710938 159.828125 295.246094 160.164062 295.785156 160.042969 C 296.320312 159.921875 296.65625 159.390625 296.535156 158.851562 C 295.207031 152.945312 294.152344 145.179688 293.382812 137.265625 C 293.328125 136.71875 292.839844 136.316406 292.292969 136.371094 C 291.746094 136.421875 291.34375 136.910156 291.398438 137.460938"/><path fill="#1D1E32" d="M 289.015625 176.917969 C 293.851562 174.234375 297.570312 171.832031 301.097656 169.664062 C 304.625 167.492188 307.964844 165.558594 312.097656 163.757812 C 312.601562 163.539062 312.832031 162.949219 312.613281 162.445312 C 312.394531 161.941406 311.808594 161.710938 311.304688 161.929688 C 307.050781 163.777344 303.609375 165.777344 300.054688 167.964844 C 296.5 170.152344 292.824219 172.523438 288.050781 175.171875 C 287.570312 175.441406 287.394531 176.046875 287.660156 176.53125 C 287.929688 177.011719 288.535156 177.1875 289.015625 176.917969"/><path fill="#1D1E32" d="M 271.425781 180 C 273.019531 186.964844 275.457031 196.84375 276.820312 202.820312 C 276.941406 203.355469 277.476562 203.691406 278.015625 203.570312 C 278.550781 203.449219 278.886719 202.910156 278.761719 202.375 C 277.390625 196.371094 274.957031 186.492188 273.367188 179.554688 C 273.246094 179.015625 272.710938 178.679688 272.175781 178.804688 C 271.636719 178.925781 271.300781 179.460938 271.425781 180"/><path fill="#1D1E32" d="M 275.457031 211.121094 C 278.039062 209.523438 282.117188 207.761719 286.503906 205.871094 C 290.894531 203.976562 295.605469 201.941406 299.546875 199.707031 C 300.023438 199.433594 300.191406 198.824219 299.921875 198.347656 C 299.652344 197.867188 299.042969 197.699219 298.5625 197.96875 C 294.761719 200.128906 290.101562 202.148438 285.714844 204.039062 C 281.324219 205.933594 277.210938 207.695312 274.410156 209.425781 C 273.941406 209.710938 273.796875 210.328125 274.085938 210.796875 C 274.375 211.265625 274.988281 211.410156 275.457031 211.121094"/><path fill="#1D1E32" d="M 255.613281 221.789062 C 259.109375 229.839844 260.59375 233.082031 263.53125 240.808594 C 263.722656 241.324219 264.300781 241.582031 264.8125 241.386719 C 265.328125 241.191406 265.585938 240.613281 265.390625 240.097656 C 262.441406 232.332031 260.929688 229.019531 257.441406 220.996094 C 257.222656 220.492188 256.636719 220.257812 256.132812 220.476562 C 255.628906 220.699219 255.394531 221.285156 255.613281 221.789062"/><path fill="#1D1E32" d="M 261.039062 257.480469 C 266.976562 253.601562 271.289062 250.988281 274.929688 248.703125 C 278.570312 246.414062 281.546875 244.445312 284.757812 241.867188 C 285.191406 241.523438 285.257812 240.898438 284.914062 240.46875 C 284.570312 240.035156 283.945312 239.96875 283.515625 240.3125 C 280.382812 242.820312 277.492188 244.738281 273.871094 247.015625 C 270.25 249.285156 265.914062 251.914062 259.949219 255.808594 C 259.488281 256.109375 259.359375 256.726562 259.660156 257.191406 C 259.960938 257.652344 260.578125 257.78125 261.039062 257.480469"/><path fill="#1D1E32" d="M 244.515625 260.734375 C 245.746094 263.328125 247.667969 266.558594 249.632812 270.019531 C 251.597656 273.476562 253.597656 277.152344 254.96875 280.539062 C 255.175781 281.050781 255.753906 281.296875 256.265625 281.089844 C 256.773438 280.882812 257.019531 280.300781 256.816406 279.789062 C 255.382812 276.246094 253.339844 272.511719 251.363281 269.035156 C 249.390625 265.558594 247.476562 262.328125 246.320312 259.882812 C 246.082031 259.382812 245.488281 259.171875 244.992188 259.40625 C 244.496094 259.644531 244.28125 260.238281 244.515625 260.738281 L 244.515625 260.734375"/><path fill="#F57387" d="M 182.042969 64.289062 C 192.488281 63.328125 194.148438 72.109375 194.148438 72.109375 C 193.605469 72.976562 197.957031 67.164062 205.042969 71.195312 C 210.996094 74.585938 208.75 80.132812 208.75 80.132812 C 212.929688 77.65625 217.972656 80.832031 219.914062 86.328125 C 221.222656 90.019531 219.6875 95.558594 217.417969 96.777344 C 226.234375 95.855469 228.738281 112.433594 218.464844 113.25 C 222.191406 114.503906 222.714844 120.113281 221.390625 123.511719 C 219.765625 127.664062 216.171875 129.898438 211.496094 129.617188 C 213.832031 133.046875 213.316406 137.265625 210.179688 139.898438 C 206.429688 143.042969 201.066406 142.757812 198.3125 139.34375 C 196.644531 148.910156 183.199219 148.332031 182.042969 141.21875 L 182.042969 64.289062"/><path fill="#E6516A" d="M 193.292969 78.734375 C 193.867188 80.488281 193.570312 83.691406 192.476562 85.191406 C 190.851562 87.417969 187.777344 83.566406 186.195312 82.835938 C 186.054688 82.773438 185.882812 82.792969 185.796875 82.941406 C 184.601562 85.027344 184.628906 87.910156 184.914062 90.21875 C 185.195312 92.480469 185.820312 95.019531 187.851562 96.382812 C 189.453125 97.464844 190.40625 95.941406 191.503906 94.921875 C 193.121094 93.417969 196.121094 92.46875 198.109375 93.878906 C 201.640625 96.390625 200.113281 102.542969 197.203125 104.894531 C 194.859375 106.792969 192.164062 106.011719 189.402344 106.316406 C 187.511719 106.527344 185.261719 108.0625 185.359375 110.21875 C 185.480469 112.886719 188.40625 113.867188 190.660156 114.050781 C 193.285156 114.265625 196.316406 113.117188 198.824219 114.148438 C 200.601562 114.878906 202.054688 116.328125 203.121094 117.90625 C 203.929688 119.109375 204.925781 120.664062 204.824219 122.179688 C 204.558594 126.214844 199.789062 124.160156 197.855469 123 C 196.035156 121.910156 193.90625 120.460938 191.667969 120.726562 C 189.730469 120.960938 187.777344 122.136719 186.917969 123.9375 C 185.324219 127.285156 184.945312 132.230469 186.4375 135.683594 C 186.996094 136.972656 188.042969 138.265625 189.59375 138.203125 C 190.871094 138.152344 192.15625 137.679688 192.363281 136.304688 C 192.875 132.96875 190.328125 129.765625 190.683594 126.410156 C 190.9375 123.992188 193.605469 124.476562 195.308594 124.992188 C 197.191406 125.570312 198.441406 126.589844 199.261719 128.382812 C 199.816406 129.597656 200.222656 130.929688 200.960938 132.042969 C 201.496094 132.847656 203.699219 136.324219 205.023438 134.921875 C 205.613281 134.296875 205.691406 133.097656 205.863281 132.304688 C 206.1875 130.808594 206.535156 129.144531 207.386719 127.847656 C 208.121094 126.730469 209.164062 126.417969 210.253906 125.777344 C 211.40625 125.101562 212.550781 124.203125 213.390625 123.152344 C 214.628906 121.597656 215.371094 119.023438 212.824219 118.222656 C 211.160156 117.703125 209.378906 118.398438 207.691406 118.421875 C 206.691406 118.4375 205.566406 118.269531 205.109375 117.234375 C 204.507812 115.863281 204.59375 113.726562 205.273438 112.40625 C 206.605469 109.8125 209.765625 110.371094 212.199219 110.160156 C 214.394531 109.96875 217.03125 109.003906 217.976562 106.8125 C 218.789062 104.910156 216.644531 103.054688 215.621094 101.738281 C 214.558594 100.375 213.921875 98.964844 214.105469 97.191406 C 214.257812 95.714844 214.695312 94.230469 214.675781 92.738281 C 214.640625 90.441406 213.082031 87.550781 210.421875 87.613281 C 207.910156 87.675781 206.363281 90.1875 204.109375 90.972656 C 201.125 92.011719 197.179688 90.261719 195.570312 87.578125 C 194.738281 86.183594 194.394531 84.3125 195.660156 83.046875 C 196.476562 82.234375 197.492188 81.703125 198.492188 81.15625 C 199.992188 80.339844 201.867188 79.363281 201.785156 77.398438 C 201.710938 75.632812 199.980469 74.617188 198.464844 74.210938 C 194.511719 73.152344 188.261719 74.070312 185.558594 70.425781 C 185.703125 70.390625 185.816406 70.265625 185.746094 70.082031 C 184.957031 68.109375 184.878906 66.125 185.4375 64.335938 C 192.859375 65.316406 194.148438 72.109375 194.148438 72.109375 C 193.605469 72.976562 197.957031 67.167969 205.039062 71.195312 C 210.996094 74.582031 208.75 80.132812 208.75 80.132812 C 212.929688 77.65625 217.972656 80.832031 219.914062 86.328125 C 221.21875 90.019531 219.6875 95.5625 217.417969 96.78125 C 226.234375 95.859375 228.738281 112.433594 218.464844 113.25 C 222.191406 114.503906 222.714844 120.113281 221.386719 123.511719 C 219.765625 127.667969 216.171875 129.902344 211.492188 129.621094 C 213.832031 133.046875 213.316406 137.265625 210.179688 139.898438 C 206.429688 143.042969 201.066406 142.757812 198.3125 139.347656 C 196.644531 148.910156 183.199219 148.335938 182.042969 141.21875 L 182.042969 71.921875 C 183.71875 72.597656 185.457031 73.109375 187.132812 73.777344 C 189.511719 74.726562 192.433594 76.085938 193.292969 78.734375"/><path fill="#DB3460" d="M 182.042969 64.289062 L 182.257812 66.632812 C 182.730469 66.589844 183.179688 66.570312 183.597656 66.570312 C 185.523438 66.570312 186.90625 66.976562 187.976562 67.535156 C 188.78125 67.953125 189.414062 68.472656 189.929688 69.027344 C 190.699219 69.855469 191.195312 70.78125 191.484375 71.488281 C 191.632812 71.839844 191.726562 72.132812 191.78125 72.328125 C 191.808594 72.425781 191.824219 72.492188 191.835938 72.53125 L 191.839844 72.566406 L 192.71875 72.378906 L 191.839844 72.550781 L 191.839844 72.566406 L 192.71875 72.378906 L 191.839844 72.550781 L 194.148438 72.109375 L 192.167969 70.839844 C 192.140625 70.886719 192.105469 70.933594 192.054688 71.03125 C 192.023438 71.085938 191.992188 71.148438 191.9375 71.269531 C 191.914062 71.335938 191.878906 71.414062 191.839844 71.542969 C 191.808594 71.679688 191.753906 71.851562 191.753906 72.195312 C 191.753906 72.390625 191.773438 72.625 191.859375 72.898438 C 191.976562 73.300781 192.28125 73.796875 192.742188 74.113281 C 193.195312 74.441406 193.71875 74.554688 194.105469 74.550781 C 194.421875 74.546875 194.625 74.496094 194.777344 74.453125 C 195.070312 74.359375 195.191406 74.28125 195.292969 74.230469 C 195.46875 74.125 195.527344 74.074219 195.582031 74.03125 C 195.675781 73.960938 195.714844 73.921875 195.757812 73.886719 C 195.902344 73.757812 196.058594 73.621094 196.304688 73.433594 C 196.664062 73.160156 197.179688 72.824219 197.8125 72.558594 C 198.449219 72.296875 199.191406 72.109375 200.058594 72.109375 C 201.09375 72.113281 202.328125 72.363281 203.878906 73.238281 C 205.242188 74.023438 205.90625 74.816406 206.304688 75.550781 C 206.691406 76.28125 206.8125 77.011719 206.816406 77.667969 C 206.816406 78.160156 206.742188 78.601562 206.671875 78.898438 C 206.636719 79.046875 206.601562 79.15625 206.582031 79.21875 L 206.5625 79.277344 L 206.664062 79.3125 L 206.5625 79.273438 L 206.5625 79.277344 L 206.664062 79.3125 L 206.5625 79.273438 L 207.96875 79.820312 L 206.570312 79.253906 L 206.5625 79.273438 L 207.96875 79.820312 L 206.570312 79.253906 C 206.191406 80.1875 206.453125 81.257812 207.21875 81.917969 C 207.984375 82.574219 209.082031 82.671875 209.949219 82.15625 C 210.585938 81.78125 211.175781 81.632812 211.792969 81.632812 C 212.78125 81.628906 213.917969 82.058594 215.011719 83.007812 C 216.097656 83.945312 217.085938 85.367188 217.699219 87.113281 C 217.917969 87.734375 218.042969 88.539062 218.042969 89.394531 C 218.046875 90.65625 217.773438 92.027344 217.355469 93.058594 C 217.152344 93.574219 216.910156 94.007812 216.703125 94.292969 C 216.492188 94.585938 216.3125 94.710938 216.304688 94.710938 C 215.316406 95.242188 214.839844 96.402344 215.171875 97.472656 C 215.5 98.542969 216.546875 99.238281 217.660156 99.121094 C 217.824219 99.101562 217.976562 99.09375 218.117188 99.09375 C 218.816406 99.097656 219.386719 99.261719 219.921875 99.558594 C 220.722656 100.003906 221.457031 100.8125 221.980469 101.882812 C 222.511719 102.949219 222.8125 104.253906 222.808594 105.5 C 222.8125 106.964844 222.402344 108.304688 221.695312 109.210938 C 221.34375 109.671875 220.917969 110.042969 220.375 110.335938 C 219.832031 110.625 219.15625 110.835938 218.277344 110.90625 C 217.167969 110.996094 216.265625 111.855469 216.132812 112.964844 C 215.996094 114.070312 216.660156 115.125 217.71875 115.480469 C 218.015625 115.585938 218.25 115.726562 218.472656 115.941406 C 218.808594 116.253906 219.128906 116.761719 219.351562 117.441406 C 219.578125 118.113281 219.699219 118.9375 219.695312 119.773438 C 219.703125 120.824219 219.5 121.886719 219.199219 122.65625 L 219.199219 122.652344 C 218.582031 124.222656 217.683594 125.332031 216.554688 126.09375 C 215.425781 126.851562 214.019531 127.285156 212.269531 127.289062 C 212.0625 127.289062 211.847656 127.285156 211.621094 127.269531 C 210.730469 127.222656 209.886719 127.6875 209.445312 128.464844 C 209.007812 129.242188 209.050781 130.207031 209.550781 130.945312 C 210.277344 132.011719 210.59375 133.105469 210.59375 134.144531 C 210.585938 135.597656 209.992188 136.96875 208.667969 138.097656 L 208.671875 138.09375 C 207.335938 139.210938 205.761719 139.738281 204.285156 139.738281 C 203.445312 139.738281 202.644531 139.566406 201.941406 139.253906 C 201.238281 138.933594 200.628906 138.476562 200.140625 137.867188 C 199.5625 137.152344 198.613281 136.839844 197.722656 137.070312 C 196.828125 137.300781 196.15625 138.035156 195.996094 138.941406 C 195.828125 139.910156 195.519531 140.683594 195.121094 141.332031 C 194.523438 142.292969 193.710938 142.988281 192.742188 143.46875 C 191.777344 143.949219 190.65625 144.195312 189.550781 144.195312 C 188.1875 144.199219 186.875 143.8125 185.96875 143.203125 C 185.511719 142.902344 185.152344 142.546875 184.886719 142.160156 C 184.621094 141.773438 184.449219 141.355469 184.363281 140.84375 L 182.042969 141.21875 L 184.394531 141.21875 L 184.394531 64.289062 L 182.042969 64.289062 L 182.257812 66.632812 L 182.042969 64.289062 L 179.695312 64.289062 L 179.695312 141.21875 C 179.695312 141.355469 179.703125 141.457031 179.722656 141.59375 C 179.914062 142.789062 180.371094 143.890625 181.011719 144.824219 C 181.972656 146.226562 183.316406 147.242188 184.792969 147.90625 C 186.273438 148.570312 187.902344 148.898438 189.550781 148.898438 C 191.921875 148.894531 194.378906 148.21875 196.441406 146.703125 C 197.472656 145.949219 198.390625 144.976562 199.113281 143.804688 C 199.84375 142.636719 200.363281 141.269531 200.625 139.75 L 198.308594 139.347656 L 196.480469 140.824219 C 197.453125 142.03125 198.679688 142.941406 200.019531 143.542969 C 201.359375 144.148438 202.816406 144.441406 204.285156 144.441406 C 206.863281 144.441406 209.507812 143.527344 211.6875 141.703125 L 211.691406 141.703125 C 214.019531 139.753906 215.304688 136.980469 215.292969 134.144531 C 215.296875 132.125 214.65625 130.085938 213.433594 128.296875 L 211.492188 129.621094 L 211.367188 131.96875 C 211.664062 131.984375 211.964844 131.992188 212.269531 131.992188 C 214.816406 132 217.207031 131.328125 219.175781 130 C 221.152344 128.675781 222.660156 126.71875 223.574219 124.367188 L 223.578125 124.363281 C 224.125 122.949219 224.394531 121.378906 224.394531 119.773438 C 224.394531 118.074219 224.09375 116.332031 223.3125 114.734375 C 222.917969 113.9375 222.394531 113.179688 221.707031 112.527344 C 221.027344 111.875 220.175781 111.34375 219.210938 111.023438 L 218.464844 113.253906 L 218.652344 115.59375 C 220.105469 115.480469 221.433594 115.101562 222.582031 114.488281 C 224.3125 113.574219 225.585938 112.144531 226.371094 110.558594 C 227.164062 108.96875 227.507812 107.226562 227.507812 105.5 C 227.5 102.875 226.726562 100.25 225.183594 98.121094 C 224.402344 97.0625 223.417969 96.128906 222.21875 95.457031 C 221.023438 94.78125 219.613281 94.386719 218.117188 94.390625 C 217.800781 94.390625 217.484375 94.40625 217.171875 94.441406 L 217.417969 96.78125 L 218.53125 98.851562 C 219.367188 98.394531 219.980469 97.765625 220.488281 97.078125 C 221.242188 96.042969 221.773438 94.835938 222.15625 93.53125 C 222.53125 92.226562 222.742188 90.820312 222.742188 89.394531 C 222.742188 88.105469 222.570312 86.796875 222.128906 85.546875 C 221.257812 83.085938 219.855469 80.988281 218.085938 79.449219 C 216.324219 77.921875 214.140625 76.929688 211.792969 76.929688 C 210.351562 76.925781 208.882812 77.316406 207.554688 78.109375 L 208.75 80.132812 L 210.929688 81.011719 C 210.996094 80.835938 211.507812 79.558594 211.511719 77.667969 C 211.511719 76.421875 211.273438 74.878906 210.449219 73.335938 C 209.628906 71.792969 208.234375 70.304688 206.199219 69.152344 C 204.027344 67.910156 201.921875 67.402344 200.058594 67.40625 C 197.699219 67.40625 195.808594 68.195312 194.535156 68.957031 C 193.898438 69.34375 193.402344 69.722656 193.0625 70.003906 C 192.894531 70.144531 192.761719 70.261719 192.691406 70.324219 L 192.65625 70.351562 L 192.652344 70.355469 L 193.699219 71.59375 L 192.75 70.277344 L 192.652344 70.355469 L 193.699219 71.59375 L 192.75 70.277344 L 194.046875 72.082031 L 192.988281 70.128906 C 192.851562 70.207031 192.796875 70.25 192.75 70.277344 L 194.046875 72.082031 L 192.988281 70.128906 L 194.097656 72.164062 L 193.308594 69.984375 C 193.15625 70.042969 193.0625 70.089844 192.988281 70.128906 L 194.097656 72.164062 L 193.308594 69.984375 L 194.105469 72.1875 L 194.105469 69.84375 C 193.691406 69.851562 193.46875 69.929688 193.308594 69.984375 L 194.105469 72.1875 L 194.105469 69.84375 L 194.105469 72.191406 L 194.992188 70.023438 C 194.675781 69.890625 194.363281 69.84375 194.105469 69.84375 L 194.105469 72.191406 L 194.992188 70.023438 L 194.105469 72.195312 L 196.164062 71.074219 C 195.941406 70.636719 195.480469 70.210938 194.992188 70.023438 L 194.105469 72.195312 L 196.164062 71.074219 L 194.105469 72.195312 L 196.453125 72.195312 C 196.449219 71.90625 196.402344 71.511719 196.164062 71.074219 L 194.105469 72.195312 L 196.453125 72.195312 L 194.117188 72.195312 L 196.363281 72.835938 C 196.394531 72.707031 196.449219 72.535156 196.453125 72.195312 L 194.117188 72.195312 L 196.363281 72.835938 L 194.167969 72.210938 L 196.222656 73.203125 C 196.253906 73.132812 196.296875 73.050781 196.363281 72.835938 L 194.167969 72.210938 L 196.222656 73.203125 L 194.707031 72.46875 L 196.125 73.378906 C 196.125 73.375 196.136719 73.378906 196.222656 73.203125 L 194.707031 72.46875 L 196.125 73.378906 C 196.449219 72.875 196.570312 72.265625 196.457031 71.671875 C 196.410156 71.460938 195.980469 69.171875 194.136719 66.734375 C 193.214844 65.527344 191.914062 64.285156 190.152344 63.367188 C 188.402344 62.441406 186.203125 61.859375 183.597656 61.863281 C 183.027344 61.863281 182.4375 61.894531 181.828125 61.949219 C 180.621094 62.058594 179.695312 63.078125 179.695312 64.289062 L 182.042969 64.289062"/><path fill="#DB3460" d="M 200.101562 141.734375 C 200.84375 140.003906 201.238281 138.261719 201.238281 136.546875 C 201.242188 134.800781 200.816406 133.101562 200.027344 131.5625 C 199.238281 130.023438 198.097656 128.640625 196.695312 127.402344 C 195.71875 126.542969 194.234375 126.636719 193.375 127.609375 C 192.519531 128.585938 192.613281 130.070312 193.585938 130.929688 C 194.636719 131.855469 195.375 132.789062 195.847656 133.710938 C 196.3125 134.632812 196.539062 135.539062 196.539062 136.546875 C 196.539062 137.535156 196.316406 138.632812 195.78125 139.882812 C 195.269531 141.074219 195.824219 142.457031 197.015625 142.972656 C 198.210938 143.480469 199.589844 142.929688 200.101562 141.734375"/><path fill="#DB3460" d="M 219.679688 111.292969 C 219.03125 111.242188 218.414062 111.027344 217.542969 110.703125 C 217.113281 110.546875 216.621094 110.367188 216.050781 110.222656 C 215.484375 110.074219 214.832031 109.96875 214.117188 109.96875 C 213.417969 109.96875 212.660156 110.074219 211.894531 110.316406 L 212.589844 112.558594 L 212.207031 110.238281 C 210.59375 110.511719 208.980469 111.109375 207.617188 112.230469 C 206.941406 112.789062 206.335938 113.492188 205.886719 114.320312 C 205.4375 115.152344 205.152344 116.113281 205.074219 117.125 C 204.976562 118.421875 205.945312 119.550781 207.238281 119.648438 C 208.535156 119.75 209.664062 118.78125 209.761719 117.484375 C 209.792969 117.097656 209.886719 116.8125 210.023438 116.558594 C 210.226562 116.183594 210.558594 115.839844 211.070312 115.535156 C 211.574219 115.238281 212.25 115 212.972656 114.882812 C 213.070312 114.863281 213.191406 114.835938 213.285156 114.808594 C 213.621094 114.703125 213.875 114.671875 214.117188 114.671875 C 214.359375 114.671875 214.597656 114.707031 214.890625 114.78125 C 215.328125 114.890625 215.878906 115.109375 216.601562 115.367188 C 217.320312 115.617188 218.21875 115.894531 219.289062 115.980469 C 220.578125 116.089844 221.71875 115.128906 221.824219 113.835938 C 221.933594 112.542969 220.972656 111.402344 219.679688 111.296875 L 219.679688 111.292969"/><path fill="#DB3460" d="M 206.578125 75.902344 C 206.582031 77.355469 206.515625 78.679688 206.242188 79.789062 C 205.960938 80.902344 205.527344 81.789062 204.679688 82.648438 L 206.34375 84.308594 L 204.816406 82.523438 C 204.539062 82.765625 203.875 83.199219 203.167969 83.503906 C 202.460938 83.824219 201.6875 84.007812 201.203125 84.003906 C 200.972656 84.003906 200.816406 83.964844 200.726562 83.933594 L 200.550781 83.816406 C 199.679688 82.847656 198.191406 82.773438 197.230469 83.644531 C 196.265625 84.511719 196.1875 86 197.058594 86.964844 C 197.625 87.597656 198.335938 88.0625 199.0625 88.332031 C 199.785156 88.605469 200.515625 88.707031 201.203125 88.707031 C 202.636719 88.699219 203.921875 88.300781 205.050781 87.816406 C 206.179688 87.316406 207.125 86.726562 207.871094 86.09375 L 208.003906 85.972656 C 209.527344 84.460938 210.386719 82.652344 210.804688 80.910156 C 211.230469 79.160156 211.273438 77.464844 211.277344 75.902344 C 211.277344 74.601562 210.226562 73.550781 208.925781 73.550781 C 207.628906 73.550781 206.578125 74.601562 206.578125 75.902344"/><path fill="#DB3460" d="M 184.265625 78.664062 L 183.597656 78.128906 L 184.015625 78.890625 C 184.039062 78.875 184.140625 78.820312 184.265625 78.664062 L 183.597656 78.128906 L 184.015625 78.890625 L 183.9375 78.753906 L 184.007812 78.894531 L 184.015625 78.890625 L 183.9375 78.753906 L 184.007812 78.894531 C 184.007812 78.890625 184.128906 78.84375 184.324219 78.816406 C 184.519531 78.78125 184.777344 78.761719 185.046875 78.761719 C 185.378906 78.761719 185.730469 78.792969 186.015625 78.835938 C 186.15625 78.855469 186.277344 78.882812 186.367188 78.90625 L 186.503906 78.945312 L 186.507812 78.945312 L 186.644531 78.996094 C 186.785156 79.039062 187.097656 79.199219 187.429688 79.464844 C 187.933594 79.851562 188.484375 80.460938 188.84375 81.050781 C 189.214844 81.640625 189.359375 82.210938 189.34375 82.371094 C 189.34375 83.671875 190.398438 84.722656 191.695312 84.722656 C 192.992188 84.722656 194.046875 83.671875 194.046875 82.371094 C 194.042969 81.398438 193.792969 80.527344 193.445312 79.730469 C 192.917969 78.535156 192.152344 77.484375 191.261719 76.589844 C 190.363281 75.699219 189.363281 74.957031 188.128906 74.53125 L 187.386719 76.765625 L 188.265625 74.582031 C 187.75 74.378906 187.273438 74.273438 186.738281 74.1875 C 186.207031 74.105469 185.640625 74.058594 185.046875 74.058594 C 184.359375 74.058594 183.648438 74.117188 182.90625 74.3125 C 182.53125 74.414062 182.148438 74.550781 181.753906 74.765625 C 181.363281 74.980469 180.953125 75.28125 180.597656 75.726562 C 179.785156 76.738281 179.949219 78.21875 180.960938 79.03125 C 181.972656 79.84375 183.453125 79.679688 184.265625 78.667969 L 184.265625 78.664062"/><path fill="#DB3460" d="M 194.800781 96.035156 C 194.488281 97.308594 193.582031 98.578125 192.332031 99.5 C 191.097656 100.425781 189.5625 100.960938 188.269531 100.953125 C 187.515625 100.949219 186.847656 100.789062 186.265625 100.472656 C 185.679688 100.148438 185.152344 99.671875 184.671875 98.863281 C 184.015625 97.742188 182.578125 97.367188 181.457031 98.023438 C 180.335938 98.679688 179.964844 100.121094 180.621094 101.242188 C 181.484375 102.722656 182.667969 103.875 184.015625 104.601562 C 185.359375 105.335938 186.832031 105.65625 188.269531 105.65625 C 190.757812 105.648438 193.152344 104.742188 195.136719 103.277344 C 197.109375 101.804688 198.714844 99.722656 199.359375 97.175781 C 199.671875 95.914062 198.910156 94.636719 197.648438 94.320312 C 196.390625 94.007812 195.113281 94.773438 194.800781 96.035156"/><path fill="#DB3460" d="M 208.199219 96.394531 C 208.429688 96.609375 208.597656 96.859375 208.730469 97.207031 C 208.859375 97.550781 208.933594 97.984375 208.933594 98.472656 C 208.9375 99.1875 208.765625 100.003906 208.464844 100.722656 C 208.167969 101.445312 207.734375 102.0625 207.34375 102.410156 L 208.925781 104.148438 L 207.496094 102.285156 C 206.867188 102.769531 206.285156 103.097656 205.75 103.300781 C 205.214844 103.503906 204.722656 103.59375 204.222656 103.59375 C 203.425781 103.59375 202.546875 103.363281 201.476562 102.753906 C 200.347656 102.113281 198.910156 102.503906 198.269531 103.632812 C 197.628906 104.761719 198.019531 106.199219 199.148438 106.84375 C 200.753906 107.761719 202.46875 108.300781 204.222656 108.300781 C 205.3125 108.300781 206.398438 108.089844 207.429688 107.695312 C 208.457031 107.300781 209.433594 106.730469 210.359375 106.015625 L 210.507812 105.886719 C 211.527344 104.957031 212.269531 103.796875 212.804688 102.535156 C 213.328125 101.269531 213.632812 99.890625 213.636719 98.472656 C 213.636719 97.503906 213.488281 96.515625 213.132812 95.5625 C 212.777344 94.605469 212.199219 93.679688 211.378906 92.929688 C 210.417969 92.050781 208.933594 92.117188 208.054688 93.074219 C 207.179688 94.03125 207.246094 95.519531 208.203125 96.398438 L 208.199219 96.394531"/><path fill="#DB3460" d="M 204.664062 120.140625 C 204.109375 119.265625 203.378906 118.558594 202.585938 118 C 201.390625 117.15625 200.035156 116.613281 198.636719 116.253906 C 197.234375 115.898438 195.785156 115.738281 194.371094 115.738281 C 193.183594 115.738281 192.023438 115.851562 190.933594 116.085938 C 189.839844 116.324219 188.820312 116.675781 187.890625 117.230469 L 187.894531 117.230469 C 185.855469 118.472656 183.90625 120.355469 182.347656 122.566406 C 181.574219 123.671875 180.90625 124.859375 180.417969 126.109375 C 179.933594 127.363281 179.617188 128.683594 179.617188 130.050781 C 179.617188 130.332031 179.628906 130.628906 179.664062 130.933594 C 179.804688 132.226562 180.96875 133.15625 182.257812 133.015625 C 183.546875 132.871094 184.476562 131.707031 184.335938 130.417969 C 184.324219 130.308594 184.316406 130.1875 184.316406 130.050781 C 184.3125 129.425781 184.472656 128.65625 184.796875 127.824219 C 185.28125 126.574219 186.136719 125.21875 187.152344 124.039062 C 188.160156 122.859375 189.328125 121.855469 190.324219 121.261719 L 190.324219 121.257812 C 190.636719 121.066406 191.210938 120.835938 191.921875 120.683594 C 192.636719 120.527344 193.488281 120.441406 194.371094 120.441406 C 195.769531 120.4375 197.246094 120.667969 198.40625 121.097656 C 198.988281 121.308594 199.488281 121.566406 199.875 121.839844 C 200.261719 122.113281 200.527344 122.394531 200.699219 122.664062 C 201.394531 123.761719 202.84375 124.085938 203.941406 123.386719 C 205.035156 122.691406 205.359375 121.234375 204.664062 120.140625"/><path fill="#F57387" d="M 176.460938 64.289062 C 166.019531 63.328125 164.359375 72.109375 164.359375 72.109375 C 164.902344 72.976562 160.546875 67.164062 153.464844 71.195312 C 147.511719 74.585938 149.753906 80.132812 149.753906 80.132812 C 145.578125 77.65625 140.53125 80.832031 138.59375 86.328125 C 137.289062 90.019531 138.820312 95.558594 141.089844 96.777344 C 132.273438 95.855469 129.769531 112.433594 140.042969 113.25 C 136.3125 114.503906 135.792969 120.113281 137.117188 123.511719 C 138.742188 127.664062 142.335938 129.898438 147.011719 129.617188 C 144.675781 133.046875 145.1875 137.265625 148.328125 139.898438 C 152.078125 143.042969 157.441406 142.757812 160.195312 139.34375 C 161.863281 148.910156 175.3125 148.332031 176.460938 141.21875 L 176.460938 64.289062"/><path fill="#E6516A" d="M 165.210938 78.734375 C 164.640625 80.488281 164.9375 83.691406 166.03125 85.191406 C 167.65625 87.417969 170.730469 83.566406 172.308594 82.835938 C 172.453125 82.773438 172.625 82.792969 172.710938 82.941406 C 173.902344 85.027344 173.875 87.910156 173.589844 90.21875 C 173.3125 92.480469 172.6875 95.019531 170.652344 96.382812 C 169.054688 97.464844 168.101562 95.941406 167 94.921875 C 165.382812 93.417969 162.382812 92.46875 160.398438 93.878906 C 156.863281 96.390625 158.394531 102.542969 161.300781 104.894531 C 163.644531 106.792969 166.339844 106.011719 169.101562 106.316406 C 170.996094 106.527344 173.242188 108.0625 173.144531 110.21875 C 173.027344 112.886719 170.101562 113.867188 167.847656 114.050781 C 165.222656 114.265625 162.191406 113.117188 159.683594 114.148438 C 157.90625 114.878906 156.449219 116.328125 155.386719 117.90625 C 154.578125 119.109375 153.578125 120.664062 153.679688 122.179688 C 153.945312 126.214844 158.714844 124.160156 160.652344 123 C 162.46875 121.910156 164.601562 120.460938 166.839844 120.726562 C 168.773438 120.960938 170.730469 122.136719 171.585938 123.9375 C 173.179688 127.285156 173.5625 132.230469 172.066406 135.683594 C 171.507812 136.972656 170.460938 138.265625 168.914062 138.203125 C 167.636719 138.152344 166.351562 137.679688 166.140625 136.304688 C 165.628906 132.96875 168.175781 129.765625 167.824219 126.410156 C 167.570312 123.992188 164.902344 124.476562 163.195312 124.992188 C 161.316406 125.570312 160.066406 126.589844 159.246094 128.382812 C 158.691406 129.597656 158.285156 130.929688 157.542969 132.042969 C 157.011719 132.847656 154.808594 136.324219 153.480469 134.921875 C 152.890625 134.296875 152.8125 133.097656 152.644531 132.304688 C 152.316406 130.808594 151.972656 129.144531 151.117188 127.847656 C 150.382812 126.730469 149.34375 126.417969 148.25 125.777344 C 147.097656 125.101562 145.953125 124.203125 145.117188 123.152344 C 143.875 121.597656 143.136719 119.023438 145.679688 118.222656 C 147.34375 117.703125 149.125 118.398438 150.8125 118.421875 C 151.816406 118.4375 152.941406 118.269531 153.394531 117.234375 C 154 115.863281 153.914062 113.726562 153.234375 112.40625 C 151.902344 109.8125 148.738281 110.371094 146.304688 110.160156 C 144.109375 109.96875 141.472656 109.003906 140.53125 106.8125 C 139.714844 104.910156 141.863281 103.054688 142.882812 101.738281 C 143.945312 100.375 144.582031 98.964844 144.398438 97.191406 C 144.246094 95.714844 143.808594 94.230469 143.832031 92.738281 C 143.863281 90.441406 145.425781 87.550781 148.085938 87.613281 C 150.59375 87.675781 152.140625 90.1875 154.398438 90.972656 C 157.378906 92.011719 161.328125 90.261719 162.933594 87.578125 C 163.769531 86.183594 164.113281 84.3125 162.84375 83.046875 C 162.027344 82.234375 161.011719 81.703125 160.011719 81.15625 C 158.511719 80.339844 156.636719 79.363281 156.71875 77.398438 C 156.796875 75.632812 158.527344 74.617188 160.039062 74.210938 C 163.992188 73.152344 170.25 74.070312 172.949219 70.425781 C 172.800781 70.390625 172.6875 70.265625 172.757812 70.082031 C 173.550781 68.109375 173.625 66.125 173.066406 64.335938 C 165.644531 65.316406 164.355469 72.109375 164.355469 72.109375 C 164.902344 72.976562 160.546875 67.167969 153.464844 71.195312 C 147.511719 74.582031 149.753906 80.132812 149.753906 80.132812 C 145.578125 77.65625 140.53125 80.832031 138.59375 86.328125 C 137.285156 90.019531 138.816406 95.5625 141.089844 96.78125 C 132.273438 95.859375 129.765625 112.433594 140.039062 113.25 C 136.3125 114.503906 135.789062 120.113281 137.117188 123.511719 C 138.742188 127.667969 142.335938 129.902344 147.011719 129.621094 C 144.675781 133.046875 145.1875 137.265625 148.328125 139.898438 C 152.078125 143.042969 157.441406 142.757812 160.195312 139.347656 C 161.863281 148.910156 175.308594 148.335938 176.460938 141.21875 L 176.460938 71.921875 C 174.789062 72.597656 173.050781 73.109375 171.375 73.777344 C 168.992188 74.726562 166.070312 76.085938 165.210938 78.734375"/><path fill="#DB3460" d="M 176.460938 64.289062 L 176.675781 61.949219 C 176.070312 61.894531 175.476562 61.863281 174.902344 61.863281 C 172.300781 61.859375 170.101562 62.441406 168.347656 63.367188 C 167.027344 64.054688 165.964844 64.925781 165.128906 65.828125 C 163.875 67.183594 163.125 68.597656 162.675781 69.691406 C 162.226562 70.78125 162.070312 71.554688 162.046875 71.671875 C 161.9375 72.253906 162.054688 72.867188 162.371094 73.367188 L 163.632812 72.570312 L 162.3125 73.261719 L 162.371094 73.367188 L 163.632812 72.570312 L 162.3125 73.261719 L 164.230469 72.25 L 162.214844 73.058594 C 162.261719 73.171875 162.289062 73.222656 162.3125 73.261719 L 164.230469 72.25 L 162.214844 73.058594 L 164.351562 72.203125 L 162.132812 72.800781 C 162.164062 72.921875 162.191406 72.996094 162.214844 73.058594 L 164.351562 72.203125 L 162.132812 72.800781 L 164.382812 72.195312 L 162.050781 72.195312 C 162.054688 72.515625 162.101562 72.675781 162.132812 72.800781 L 164.382812 72.195312 L 162.050781 72.195312 L 164.398438 72.195312 L 162.371094 71.011719 C 162.164062 71.363281 162.046875 71.804688 162.050781 72.195312 L 164.398438 72.195312 L 162.371094 71.011719 L 164.398438 72.195312 L 163.460938 70.042969 C 163.121094 70.191406 162.6875 70.476562 162.371094 71.011719 L 164.398438 72.195312 L 163.460938 70.042969 L 164.398438 72.191406 L 164.398438 69.84375 C 164.105469 69.851562 163.808594 69.890625 163.460938 70.042969 L 164.398438 72.191406 L 164.398438 69.84375 L 164.398438 72.1875 L 165.070312 69.945312 C 164.917969 69.902344 164.714844 69.847656 164.398438 69.84375 L 164.398438 72.1875 L 165.070312 69.945312 L 164.402344 72.164062 L 165.566406 70.160156 C 165.476562 70.109375 165.363281 70.035156 165.070312 69.945312 L 164.402344 72.164062 L 165.566406 70.160156 L 164.492188 72.011719 L 165.808594 70.324219 C 165.773438 70.296875 165.734375 70.261719 165.566406 70.160156 L 164.492188 72.011719 L 165.808594 70.324219 L 165.03125 71.320312 L 165.847656 70.355469 L 165.808594 70.324219 L 165.03125 71.320312 L 165.847656 70.355469 C 165.847656 70.351562 165.75 70.269531 165.628906 70.164062 C 165.191406 69.789062 164.34375 69.101562 163.136719 68.507812 C 161.929688 67.914062 160.332031 67.402344 158.441406 67.40625 C 156.582031 67.402344 154.472656 67.910156 152.300781 69.152344 L 152.304688 69.152344 C 150.269531 70.300781 148.871094 71.789062 148.054688 73.335938 C 147.230469 74.878906 146.988281 76.417969 146.988281 77.667969 C 146.996094 79.5625 147.507812 80.839844 147.578125 81.015625 L 149.753906 80.132812 L 150.953125 78.109375 C 149.625 77.316406 148.148438 76.925781 146.710938 76.929688 C 144.363281 76.929688 142.179688 77.921875 140.417969 79.449219 C 138.648438 80.988281 137.246094 83.085938 136.375 85.546875 L 136.375 85.542969 C 135.933594 86.796875 135.761719 88.105469 135.761719 89.394531 C 135.765625 91.296875 136.132812 93.160156 136.78125 94.800781 C 137.109375 95.625 137.507812 96.390625 138.015625 97.082031 C 138.523438 97.765625 139.136719 98.398438 139.976562 98.855469 L 141.089844 96.78125 L 141.332031 94.441406 C 141.019531 94.40625 140.703125 94.390625 140.386719 94.390625 C 138.890625 94.386719 137.480469 94.78125 136.285156 95.457031 C 134.484375 96.46875 133.171875 98.046875 132.304688 99.800781 C 131.441406 101.566406 130.996094 103.527344 130.992188 105.5 C 130.996094 107.792969 131.601562 110.144531 133.078125 112.078125 C 133.8125 113.039062 134.773438 113.875 135.921875 114.488281 C 137.070312 115.101562 138.398438 115.480469 139.855469 115.59375 L 140.039062 113.253906 L 139.292969 111.023438 C 138.328125 111.34375 137.480469 111.875 136.796875 112.527344 C 135.765625 113.507812 135.105469 114.714844 134.691406 115.957031 C 134.28125 117.203125 134.105469 118.5 134.105469 119.773438 C 134.109375 121.378906 134.378906 122.953125 134.929688 124.367188 C 135.84375 126.71875 137.355469 128.675781 139.328125 130 C 141.296875 131.328125 143.683594 132 146.230469 131.992188 C 146.539062 131.992188 146.839844 131.984375 147.140625 131.96875 L 147.011719 129.621094 L 145.070312 128.292969 C 143.847656 130.085938 143.207031 132.121094 143.207031 134.144531 C 143.199219 136.980469 144.480469 139.757812 146.816406 141.703125 C 148.996094 143.527344 151.636719 144.441406 154.21875 144.441406 C 155.6875 144.441406 157.140625 144.148438 158.484375 143.542969 C 159.824219 142.941406 161.046875 142.03125 162.019531 140.828125 L 160.195312 139.347656 L 157.878906 139.75 C 158.140625 141.269531 158.664062 142.636719 159.386719 143.804688 C 160.472656 145.566406 162.003906 146.863281 163.675781 147.6875 C 165.351562 148.515625 167.171875 148.898438 168.953125 148.898438 C 171.148438 148.894531 173.316406 148.324219 175.132812 147.121094 C 176.035156 146.523438 176.851562 145.753906 177.492188 144.824219 C 178.132812 143.890625 178.585938 142.789062 178.78125 141.597656 C 178.800781 141.457031 178.8125 141.355469 178.8125 141.21875 L 178.8125 64.289062 C 178.8125 63.078125 177.882812 62.058594 176.675781 61.949219 L 176.460938 64.289062 L 174.113281 64.289062 L 174.113281 141.21875 L 176.460938 141.21875 L 174.140625 140.839844 C 174.058594 141.355469 173.878906 141.773438 173.617188 142.160156 C 173.222656 142.738281 172.601562 143.25 171.785156 143.617188 C 170.96875 143.984375 169.972656 144.195312 168.953125 144.195312 C 167.476562 144.195312 165.984375 143.757812 164.847656 142.914062 C 164.277344 142.496094 163.78125 141.972656 163.382812 141.332031 C 162.988281 140.683594 162.675781 139.910156 162.507812 138.945312 C 162.351562 138.035156 161.675781 137.304688 160.785156 137.070312 C 159.890625 136.839844 158.949219 137.148438 158.367188 137.867188 C 157.875 138.476562 157.265625 138.933594 156.558594 139.253906 C 155.855469 139.566406 155.054688 139.738281 154.21875 139.738281 C 152.742188 139.738281 151.164062 139.210938 149.835938 138.09375 C 148.507812 136.96875 147.917969 135.597656 147.90625 134.144531 C 147.910156 133.105469 148.226562 132.011719 148.953125 130.945312 C 149.453125 130.210938 149.496094 129.246094 149.058594 128.46875 C 148.621094 127.6875 147.777344 127.222656 146.886719 127.269531 C 146.65625 127.285156 146.4375 127.289062 146.230469 127.289062 C 144.480469 127.285156 143.078125 126.851562 141.949219 126.097656 C 140.820312 125.332031 139.921875 124.222656 139.304688 122.652344 C 139 121.886719 138.800781 120.824219 138.804688 119.773438 C 138.800781 118.660156 139.027344 117.566406 139.40625 116.820312 C 139.589844 116.445312 139.804688 116.152344 140.027344 115.941406 C 140.257812 115.726562 140.488281 115.585938 140.789062 115.480469 C 141.84375 115.128906 142.507812 114.070312 142.371094 112.964844 C 142.238281 111.855469 141.335938 110.996094 140.226562 110.90625 C 139.347656 110.835938 138.671875 110.625 138.128906 110.335938 C 137.316406 109.898438 136.753906 109.28125 136.332031 108.453125 C 135.917969 107.632812 135.691406 106.59375 135.691406 105.5 C 135.683594 103.835938 136.234375 102.082031 137.109375 100.902344 C 137.546875 100.308594 138.046875 99.859375 138.582031 99.558594 C 139.117188 99.261719 139.6875 99.097656 140.386719 99.09375 C 140.527344 99.09375 140.679688 99.101562 140.84375 99.121094 C 141.957031 99.238281 143.003906 98.542969 143.335938 97.472656 C 143.664062 96.398438 143.1875 95.238281 142.199219 94.707031 C 142.191406 94.707031 142.007812 94.582031 141.800781 94.292969 C 141.480469 93.863281 141.113281 93.109375 140.863281 92.230469 C 140.609375 91.347656 140.457031 90.339844 140.460938 89.394531 C 140.457031 88.539062 140.582031 87.734375 140.804688 87.117188 L 140.804688 87.113281 C 141.421875 85.367188 142.40625 83.945312 143.492188 83.007812 C 144.582031 82.0625 145.71875 81.628906 146.710938 81.632812 C 147.328125 81.632812 147.917969 81.78125 148.558594 82.15625 C 149.425781 82.671875 150.523438 82.574219 151.285156 81.914062 C 152.050781 81.257812 152.3125 80.183594 151.933594 79.25 L 150.542969 79.8125 L 151.941406 79.273438 L 151.933594 79.25 L 150.542969 79.8125 L 151.941406 79.273438 L 151.859375 79.304688 L 151.941406 79.273438 L 151.859375 79.304688 L 151.941406 79.273438 C 151.925781 79.238281 151.683594 78.535156 151.6875 77.667969 C 151.691406 77.011719 151.8125 76.285156 152.203125 75.550781 C 152.597656 74.816406 153.265625 74.023438 154.625 73.242188 L 154.628906 73.238281 C 156.175781 72.363281 157.410156 72.113281 158.441406 72.109375 C 159.742188 72.109375 160.785156 72.539062 161.550781 72.996094 C 161.933594 73.222656 162.230469 73.453125 162.445312 73.628906 C 162.554688 73.71875 162.636719 73.789062 162.71875 73.863281 L 162.878906 74 C 162.921875 74.035156 162.96875 74.078125 163.089844 74.15625 C 163.152344 74.195312 163.230469 74.25 163.386719 74.320312 C 163.46875 74.359375 163.566406 74.402344 163.71875 74.449219 C 163.871094 74.496094 164.074219 74.546875 164.398438 74.550781 C 164.785156 74.542969 165.191406 74.480469 165.703125 74.152344 C 165.953125 73.988281 166.226562 73.734375 166.429688 73.382812 C 166.640625 73.03125 166.753906 72.589844 166.75 72.195312 C 166.746094 71.875 166.703125 71.707031 166.667969 71.582031 C 166.609375 71.367188 166.566406 71.273438 166.53125 71.195312 C 166.429688 70.988281 166.390625 70.933594 166.34375 70.855469 L 164.355469 72.109375 L 166.664062 72.546875 L 165.609375 72.347656 L 166.660156 72.566406 L 166.664062 72.546875 L 165.609375 72.347656 L 166.660156 72.566406 C 166.65625 72.546875 167.035156 70.90625 168.214844 69.449219 C 168.804688 68.714844 169.574219 68.015625 170.625 67.484375 C 171.683594 66.953125 173.039062 66.570312 174.902344 66.570312 C 175.324219 66.570312 175.769531 66.589844 176.246094 66.632812 L 176.460938 64.289062 L 174.113281 64.289062 L 176.460938 64.289062"/><path fill="#DB3460" d="M 162.722656 139.882812 C 162.1875 138.632812 161.964844 137.53125 161.964844 136.546875 C 161.964844 135.539062 162.1875 134.632812 162.660156 133.710938 C 163.128906 132.792969 163.867188 131.859375 164.917969 130.929688 C 165.890625 130.070312 165.984375 128.585938 165.128906 127.609375 C 164.269531 126.636719 162.785156 126.542969 161.8125 127.402344 C 160.40625 128.640625 159.265625 130.023438 158.476562 131.5625 C 157.683594 133.101562 157.261719 134.800781 157.265625 136.546875 C 157.265625 138.261719 157.664062 140.003906 158.402344 141.734375 C 158.914062 142.929688 160.296875 143.480469 161.488281 142.972656 C 162.683594 142.457031 163.234375 141.074219 162.722656 139.882812"/><path fill="#DB3460" d="M 139.21875 115.980469 C 140.648438 115.859375 141.753906 115.417969 142.570312 115.125 C 142.980469 114.972656 143.324219 114.851562 143.617188 114.78125 C 143.90625 114.707031 144.144531 114.671875 144.386719 114.671875 C 144.628906 114.671875 144.878906 114.703125 145.222656 114.808594 C 145.316406 114.835938 145.433594 114.863281 145.527344 114.882812 C 146.503906 115.039062 147.363281 115.410156 147.890625 115.855469 C 148.15625 116.078125 148.347656 116.304688 148.484375 116.558594 C 148.621094 116.8125 148.710938 117.097656 148.742188 117.484375 C 148.839844 118.78125 149.972656 119.75 151.265625 119.648438 C 152.558594 119.550781 153.527344 118.421875 153.429688 117.125 C 153.351562 116.109375 153.066406 115.152344 152.617188 114.320312 C 151.941406 113.070312 150.925781 112.136719 149.824219 111.484375 C 148.714844 110.832031 147.511719 110.441406 146.300781 110.238281 L 145.914062 112.558594 L 146.605469 110.3125 C 145.839844 110.074219 145.085938 109.96875 144.386719 109.96875 C 143.671875 109.96875 143.019531 110.074219 142.453125 110.222656 C 141.597656 110.445312 140.921875 110.726562 140.351562 110.925781 C 139.773438 111.125 139.3125 111.253906 138.824219 111.292969 C 137.53125 111.402344 136.570312 112.542969 136.679688 113.835938 C 136.789062 115.128906 137.925781 116.089844 139.21875 115.984375 L 139.21875 115.980469"/><path fill="#DB3460" d="M 147.226562 75.902344 C 147.230469 77.464844 147.273438 79.160156 147.699219 80.910156 C 148.117188 82.652344 148.980469 84.460938 150.5 85.972656 L 150.632812 86.09375 C 151.378906 86.726562 152.324219 87.316406 153.453125 87.816406 C 154.578125 88.300781 155.863281 88.699219 157.300781 88.707031 C 157.988281 88.707031 158.714844 88.605469 159.441406 88.332031 C 160.164062 88.0625 160.875 87.597656 161.445312 86.964844 C 162.316406 86.003906 162.242188 84.515625 161.277344 83.644531 C 160.316406 82.773438 158.832031 82.847656 157.960938 83.808594 L 157.777344 83.933594 C 157.6875 83.964844 157.53125 84.003906 157.300781 84.003906 C 156.816406 84.007812 156.042969 83.824219 155.335938 83.503906 C 154.628906 83.199219 153.964844 82.765625 153.691406 82.523438 L 152.160156 84.308594 L 153.824219 82.648438 C 152.976562 81.789062 152.542969 80.902344 152.261719 79.789062 C 151.988281 78.679688 151.925781 77.355469 151.925781 75.902344 C 151.925781 74.601562 150.875 73.550781 149.578125 73.550781 C 148.28125 73.550781 147.230469 74.601562 147.230469 75.902344 L 147.226562 75.902344"/><path fill="#DB3460" d="M 177.910156 75.722656 C 177.554688 75.28125 177.140625 74.980469 176.75 74.765625 C 176.160156 74.445312 175.59375 74.292969 175.046875 74.191406 C 174.503906 74.09375 173.96875 74.058594 173.457031 74.058594 C 172.863281 74.058594 172.296875 74.105469 171.765625 74.1875 C 171.230469 74.273438 170.753906 74.378906 170.238281 74.585938 L 171.121094 76.765625 L 170.378906 74.53125 C 169.546875 74.8125 168.839844 75.246094 168.179688 75.757812 C 167.199219 76.527344 166.339844 77.488281 165.660156 78.585938 C 165 79.683594 164.476562 80.910156 164.460938 82.371094 C 164.460938 83.671875 165.511719 84.722656 166.808594 84.722656 C 168.109375 84.722656 169.160156 83.671875 169.160156 82.371094 C 169.15625 82.265625 169.203125 81.972656 169.363281 81.617188 C 169.59375 81.082031 170.054688 80.425781 170.566406 79.914062 C 171.066406 79.402344 171.644531 79.054688 171.859375 78.996094 L 172.003906 78.945312 L 172.003906 78.941406 C 172.046875 78.925781 172.273438 78.863281 172.542969 78.828125 C 172.816406 78.789062 173.144531 78.761719 173.457031 78.761719 C 173.839844 78.761719 174.203125 78.804688 174.386719 78.859375 L 174.480469 78.886719 L 174.496094 78.894531 L 174.859375 78.167969 L 174.238281 78.667969 C 174.378906 78.839844 174.488281 78.890625 174.496094 78.894531 L 174.859375 78.167969 L 174.238281 78.667969 C 175.050781 79.679688 176.53125 79.84375 177.542969 79.03125 C 178.554688 78.21875 178.71875 76.738281 177.910156 75.722656"/><path fill="#DB3460" d="M 159.144531 97.175781 C 159.789062 99.722656 161.394531 101.804688 163.367188 103.277344 C 165.351562 104.742188 167.746094 105.648438 170.234375 105.65625 C 171.671875 105.65625 173.144531 105.335938 174.488281 104.601562 C 175.835938 103.875 177.019531 102.726562 177.886719 101.246094 C 178.542969 100.125 178.167969 98.683594 177.050781 98.027344 C 175.929688 97.367188 174.488281 97.742188 173.832031 98.863281 C 173.355469 99.671875 172.824219 100.148438 172.238281 100.472656 C 171.65625 100.789062 170.988281 100.949219 170.234375 100.953125 C 168.941406 100.960938 167.40625 100.425781 166.171875 99.5 C 164.921875 98.578125 164.015625 97.308594 163.707031 96.035156 C 163.390625 94.773438 162.113281 94.007812 160.855469 94.320312 C 159.597656 94.636719 158.832031 95.914062 159.144531 97.175781"/><path fill="#DB3460" d="M 147.128906 92.929688 C 146.308594 93.679688 145.726562 94.605469 145.371094 95.558594 C 145.015625 96.515625 144.871094 97.503906 144.867188 98.472656 C 144.871094 99.890625 145.175781 101.269531 145.703125 102.535156 C 146.230469 103.800781 146.980469 104.960938 147.996094 105.890625 L 148.144531 106.015625 C 149.070312 106.726562 150.046875 107.300781 151.074219 107.695312 C 152.105469 108.089844 153.191406 108.300781 154.28125 108.300781 C 156.035156 108.300781 157.75 107.761719 159.355469 106.84375 C 160.484375 106.199219 160.878906 104.765625 160.234375 103.632812 C 159.59375 102.507812 158.160156 102.113281 157.03125 102.753906 C 155.957031 103.363281 155.074219 103.59375 154.28125 103.59375 C 153.78125 103.59375 153.289062 103.503906 152.753906 103.300781 C 152.21875 103.097656 151.640625 102.769531 151.011719 102.285156 L 149.578125 104.148438 L 151.160156 102.410156 C 150.765625 102.058594 150.335938 101.445312 150.039062 100.722656 C 149.738281 100.003906 149.566406 99.1875 149.566406 98.472656 C 149.566406 97.984375 149.644531 97.550781 149.773438 97.207031 C 149.90625 96.863281 150.074219 96.609375 150.300781 96.398438 C 151.257812 95.519531 151.324219 94.03125 150.449219 93.074219 C 149.570312 92.117188 148.085938 92.050781 147.128906 92.929688"/><path fill="#DB3460" d="M 157.808594 122.664062 C 157.976562 122.394531 158.246094 122.113281 158.628906 121.839844 C 159.207031 121.429688 160.050781 121.058594 161.023438 120.8125 C 161.992188 120.566406 163.085938 120.441406 164.132812 120.441406 C 165.011719 120.441406 165.863281 120.527344 166.578125 120.683594 C 167.292969 120.835938 167.867188 121.066406 168.183594 121.261719 C 169.511719 122.054688 171.132812 123.578125 172.304688 125.265625 C 172.898438 126.109375 173.382812 126.992188 173.707031 127.824219 C 174.03125 128.652344 174.1875 129.425781 174.1875 130.050781 C 174.1875 130.179688 174.179688 130.3125 174.167969 130.445312 C 174.039062 131.738281 174.984375 132.890625 176.273438 133.015625 C 177.566406 133.144531 178.71875 132.199219 178.84375 130.90625 C 178.871094 130.625 178.886719 130.339844 178.886719 130.050781 C 178.882812 128.683594 178.570312 127.363281 178.085938 126.109375 C 177.347656 124.234375 176.222656 122.496094 174.921875 120.972656 C 173.613281 119.457031 172.144531 118.160156 170.613281 117.230469 C 169.683594 116.675781 168.660156 116.324219 167.570312 116.085938 C 166.480469 115.851562 165.320312 115.738281 164.132812 115.738281 C 162.246094 115.738281 160.296875 116.023438 158.488281 116.675781 C 157.582031 117.007812 156.714844 117.4375 155.917969 118 C 155.125 118.558594 154.398438 119.265625 153.84375 120.140625 C 153.144531 121.234375 153.46875 122.691406 154.5625 123.386719 C 155.660156 124.085938 157.109375 123.761719 157.808594 122.664062"/><path fill="#1D2A65" d="M 224.582031 122.429688 C 234.378906 134.488281 241.902344 153.296875 240.445312 182.609375 L 240.445312 309.203125 L 118.507812 309.203125 L 118.507812 179.144531 C 118.507812 179.144531 117.082031 145.664062 133.667969 122.429688 L 224.582031 122.429688"/><path fill="#1D2A65" d="M 222.472656 122.429688 C 225.640625 126.5625 228.335938 131.082031 230.125 135.433594 C 238.503906 155.839844 234.582031 187.746094 219.414062 207.773438 C 214.046875 214.855469 206.730469 220.648438 198.613281 224.1875 C 186.6875 229.386719 173.039062 229.71875 161.355469 222.09375 C 155.882812 218.523438 150.074219 213.496094 146.070312 208.3125 C 127.121094 183.792969 127.226562 146.933594 141.714844 122.429688 L 222.472656 122.429688"/><path fill="#F8A18F" d="M 200.863281 257.625 L 161.632812 257.625 C 170.652344 243 163.574219 223.253906 162.535156 220.5625 L 199.960938 220.5625 C 198.921875 223.253906 191.84375 243 200.863281 257.625"/><path fill="#F68373" d="M 166.140625 239.542969 C 166.039062 230.226562 163.171875 222.207031 162.535156 220.5625 L 199.960938 220.5625 C 199.324219 222.207031 196.449219 230.226562 196.355469 239.542969 C 196.355469 239.542969 182.019531 255.511719 166.140625 239.542969"/><path fill="#F8A18F" d="M 172.972656 122.429688 L 190.917969 122.429688 C 208.84375 128.3125 224.175781 150.230469 220.421875 175.894531 C 219.410156 182.863281 218.796875 187.367188 217.527344 201.007812 C 217.527344 201.007812 216.589844 208.585938 209.234375 215.441406 C 209.234375 215.441406 198.179688 226.433594 186.660156 230.671875 C 186.660156 230.671875 184.792969 231.335938 181.945312 231.386719 C 179.09375 231.335938 177.226562 230.671875 177.226562 230.671875 C 177.226562 230.671875 160.558594 221.921875 154.652344 215.441406 C 146.878906 209.3125 146.367188 201.007812 146.367188 201.007812 C 145.089844 187.367188 144.476562 182.863281 143.464844 175.894531 C 139.714844 150.230469 155.046875 128.3125 172.972656 122.429688"/><path fill="#172345" d="M 156.460938 162.464844 C 156.917969 162.464844 157.378906 162.273438 157.703125 161.894531 C 159.53125 159.773438 163.191406 158.859375 166.644531 161.210938 C 167.390625 161.726562 168.414062 161.53125 168.925781 160.78125 C 169.4375 160.035156 169.242188 159.011719 168.496094 158.5 C 163.511719 155.09375 157.9375 156.601562 155.21875 159.75 C 154.625 160.4375 154.703125 161.472656 155.386719 162.066406 C 155.699219 162.332031 156.082031 162.464844 156.460938 162.464844"/><path fill="#172345" d="M 205.691406 162.464844 C 206.070312 162.464844 206.453125 162.332031 206.761719 162.066406 C 207.449219 161.472656 207.527344 160.4375 206.933594 159.75 C 204.207031 156.597656 198.636719 155.09375 193.660156 158.5 C 192.914062 159.011719 192.71875 160.035156 193.234375 160.78125 C 193.742188 161.53125 194.761719 161.726562 195.511719 161.210938 C 198.957031 158.851562 202.621094 159.773438 204.449219 161.894531 C 204.773438 162.273438 205.234375 162.464844 205.691406 162.464844"/><path fill="#F57C6E" d="M 180.609375 195.113281 C 181.308594 195.113281 181.871094 194.546875 181.871094 193.84375 C 181.871094 191.136719 183.699219 189.976562 186.089844 188.738281 C 187.453125 188.027344 188.746094 187.359375 188.820312 186 C 188.890625 184.695312 187.71875 183.734375 186.558594 182.964844 L 186.144531 182.691406 C 183.445312 180.902344 183.445312 180.902344 183.445312 175.894531 C 183.445312 175.195312 182.878906 174.628906 182.179688 174.628906 C 181.480469 174.628906 180.917969 175.195312 180.917969 175.894531 C 180.917969 181.816406 181.003906 182.324219 184.746094 184.804688 L 185.160156 185.078125 C 185.667969 185.417969 185.957031 185.660156 186.121094 185.820312 C 185.816406 186.023438 185.316406 186.28125 184.921875 186.488281 C 182.835938 187.570312 179.34375 189.378906 179.34375 193.84375 C 179.34375 194.546875 179.90625 195.113281 180.609375 195.113281"/><path fill="#F57C6E" d="M 180.398438 203.582031 C 184.183594 203.582031 188.527344 201.941406 189.859375 198.125 C 190.089844 197.464844 189.742188 196.742188 189.082031 196.511719 C 188.417969 196.273438 187.695312 196.628906 187.46875 197.289062 C 186.511719 200.019531 182.828125 201.242188 179.707031 201.023438 C 177.195312 200.855469 174.320312 199.742188 173.785156 197.121094 C 173.644531 196.433594 172.96875 195.996094 172.289062 196.136719 C 171.605469 196.277344 171.164062 196.945312 171.304688 197.632812 C 171.992188 200.988281 175.148438 203.257812 179.535156 203.550781 C 179.820312 203.574219 180.109375 203.582031 180.398438 203.582031"/><path fill="#172345" d="M 164.390625 175.121094 C 166.203125 175.121094 167.945312 174.308594 169.179688 172.890625 C 169.636719 172.363281 169.578125 171.566406 169.054688 171.105469 C 168.527344 170.652344 167.730469 170.703125 167.273438 171.230469 C 165.746094 172.988281 163.035156 172.988281 161.511719 171.230469 C 161.054688 170.703125 160.257812 170.648438 159.730469 171.105469 C 159.207031 171.566406 159.148438 172.363281 159.605469 172.890625 C 160.835938 174.308594 162.582031 175.121094 164.390625 175.121094"/><path fill="#172345" d="M 199.496094 175.121094 L 199.5 175.121094 C 201.308594 175.121094 203.050781 174.308594 204.285156 172.890625 C 204.738281 172.363281 204.683594 171.566406 204.15625 171.105469 C 203.628906 170.652344 202.835938 170.703125 202.375 171.230469 C 201.613281 172.109375 200.589844 172.597656 199.496094 172.597656 C 198.40625 172.597656 197.382812 172.109375 196.621094 171.230469 C 196.160156 170.703125 195.363281 170.652344 194.839844 171.105469 C 194.3125 171.566406 194.253906 172.363281 194.710938 172.890625 C 195.945312 174.308594 197.691406 175.121094 199.496094 175.121094"/><path fill="#F57984" d="M 152.703125 182.863281 C 152.703125 185.304688 156.613281 187.285156 161.4375 187.285156 C 166.257812 187.285156 170.167969 185.304688 170.167969 182.863281 C 170.167969 180.421875 166.257812 178.441406 161.4375 178.441406 C 156.613281 178.441406 152.703125 180.421875 152.703125 182.863281"/><path fill="#F57984" d="M 192.886719 182.863281 C 192.886719 185.304688 196.796875 187.285156 201.617188 187.285156 C 206.4375 187.285156 210.351562 185.304688 210.351562 182.863281 C 210.351562 180.421875 206.4375 178.441406 201.617188 178.441406 C 196.796875 178.441406 192.886719 180.421875 192.886719 182.863281"/><path fill="#F8A18F" d="M 238.078125 377.1875 L 124.417969 377.1875 C 115.46875 353.660156 106.046875 329.578125 106.046875 329.578125 C 97.039062 309.433594 99.171875 295.832031 99.171875 295.832031 C 103.796875 276.683594 132.816406 270.050781 132.816406 270.050781 C 161.785156 261.207031 164.949219 252.46875 164.949219 252.46875 L 197.546875 252.46875 C 197.546875 252.46875 200.710938 261.207031 229.679688 270.050781 C 229.679688 270.050781 258.699219 276.683594 263.324219 295.832031 C 263.324219 295.832031 265.453125 309.433594 256.449219 329.578125 C 256.449219 329.578125 247.027344 353.660156 238.078125 377.1875"/><path fill="#F8A18F" d="M 134.265625 189.007812 C 134.898438 194.765625 138.929688 199.042969 143.273438 198.566406 C 147.613281 198.089844 150.628906 193.035156 149.996094 187.28125 C 149.363281 181.523438 145.332031 177.246094 140.988281 177.722656 C 136.640625 178.199219 133.636719 183.253906 134.265625 189.007812"/><path fill="#F57C6E" d="M 141.515625 194.46875 C 141.886719 194.46875 142.261719 194.300781 142.507812 193.984375 C 142.941406 193.433594 142.847656 192.636719 142.296875 192.203125 C 141.058594 191.222656 140.257812 188.585938 140.511719 186.328125 C 140.660156 185.023438 141.152344 184.085938 141.851562 183.753906 C 142.488281 183.453125 142.753906 182.699219 142.457031 182.066406 C 142.15625 181.429688 141.394531 181.160156 140.773438 181.460938 C 139.238281 182.1875 138.253906 183.816406 138 186.042969 C 137.695312 188.707031 138.546875 192.464844 140.730469 194.191406 C 140.960938 194.378906 141.238281 194.46875 141.515625 194.46875"/><path fill="#F57C6E" d="M 139.390625 188.921875 C 139.710938 188.921875 140.039062 188.796875 140.285156 188.550781 C 140.75 188.085938 142.066406 187.917969 143.421875 188.160156 C 144.097656 188.289062 144.765625 187.832031 144.890625 187.140625 C 145.015625 186.453125 144.558594 185.792969 143.871094 185.667969 C 143.019531 185.515625 140.113281 185.136719 138.496094 186.757812 C 138 187.253906 138 188.054688 138.496094 188.550781 C 138.742188 188.796875 139.066406 188.921875 139.390625 188.921875"/><path fill="#F8A18F" d="M 228.789062 189.007812 C 228.15625 194.765625 224.125 199.042969 219.777344 198.566406 C 215.433594 198.089844 212.425781 193.035156 213.058594 187.28125 C 213.6875 181.523438 217.722656 177.246094 222.066406 177.722656 C 226.410156 178.199219 229.417969 183.253906 228.789062 189.007812"/><path fill="#F57C6E" d="M 221.539062 194.46875 C 221.816406 194.46875 222.089844 194.378906 222.324219 194.191406 C 224.507812 192.464844 225.355469 188.707031 225.054688 186.042969 C 224.800781 183.816406 223.816406 182.1875 222.28125 181.460938 C 221.65625 181.164062 220.894531 181.429688 220.597656 182.066406 C 220.300781 182.699219 220.566406 183.453125 221.199219 183.753906 C 221.902344 184.085938 222.390625 185.023438 222.539062 186.328125 C 222.796875 188.585938 221.996094 191.222656 220.753906 192.203125 C 220.207031 192.636719 220.109375 193.433594 220.542969 193.984375 C 220.796875 194.300781 221.167969 194.46875 221.539062 194.46875"/><path fill="#F57C6E" d="M 223.664062 188.921875 C 223.988281 188.921875 224.3125 188.796875 224.558594 188.550781 C 225.054688 188.050781 225.050781 187.25 224.554688 186.753906 C 222.933594 185.136719 220.03125 185.515625 219.183594 185.667969 C 218.496094 185.792969 218.039062 186.453125 218.164062 187.140625 C 218.289062 187.832031 218.960938 188.285156 219.632812 188.160156 C 220.988281 187.914062 222.300781 188.085938 222.773438 188.550781 C 223.019531 188.796875 223.339844 188.921875 223.664062 188.921875"/><path fill="#F8A18F" d="M 248.863281 377.1875 C 243.863281 364.945312 237.558594 349.125 228.59375 327.027344 C 228.59375 327.027344 216.832031 293.011719 240.15625 274.121094 C 240.15625 274.121094 258.917969 277.117188 268.191406 306.058594 C 274.367188 325.742188 283.449219 352.617188 291.535156 377.1875 L 248.863281 377.1875"/><path fill="#F8A18F" d="M 112.246094 377.1875 L 69.578125 377.1875 C 77.660156 352.617188 86.742188 325.742188 92.917969 306.058594 C 102.191406 277.117188 120.953125 274.121094 120.953125 274.121094 C 144.277344 293.011719 132.515625 327.027344 132.515625 327.027344 C 123.546875 349.125 117.242188 364.945312 112.246094 377.1875"/><path fill="#4375C3" d="M 238.097656 377.1875 L 124.40625 377.1875 C 122.34375 371.757812 120.308594 366.429688 118.507812 361.730469 C 138.921875 321.707031 132.816406 270.050781 132.816406 270.050781 C 136.878906 268.808594 140.441406 267.570312 143.550781 266.355469 C 147.683594 296.875 180.324219 293.121094 180.324219 293.121094 C 222.496094 293.964844 220.644531 267.003906 220.644531 267.003906 C 223.332031 268.011719 226.335938 269.03125 229.679688 270.050781 C 229.679688 270.050781 220.648438 321.707031 243.3125 363.488281 C 241.75 367.578125 239.945312 372.304688 238.097656 377.1875"/><path fill="#172345" d="M 179.382812 294.375 C 188.914062 294.375 198.441406 293.300781 204.550781 291.410156 C 214.40625 288.363281 224.109375 278.691406 222.679688 266.773438 C 222.597656 266.078125 221.957031 265.585938 221.28125 265.667969 C 220.585938 265.753906 220.09375 266.378906 220.179688 267.074219 C 221.394531 277.25 212.808594 286.210938 203.804688 288.996094 C 195.957031 291.421875 182.167969 292.457031 170.269531 291.496094 C 169.570312 291.460938 168.964844 291.957031 168.910156 292.652344 C 168.855469 293.347656 169.371094 293.957031 170.070312 294.015625 C 173.089844 294.257812 176.238281 294.375 179.382812 294.375"/><path fill="#172345" d="M 197.394531 364.027344 C 204.464844 364.027344 212.625 361.964844 219.257812 360.050781 C 229.800781 357 231.621094 350.632812 233.191406 341.261719 C 233.308594 340.574219 232.84375 339.921875 232.15625 339.808594 C 231.480469 339.707031 230.816406 340.15625 230.703125 340.84375 C 229.078125 350.535156 227.433594 355.054688 218.554688 357.621094 C 210.902344 359.832031 201.175781 362.25 193.828125 361.28125 C 193.148438 361.183594 192.496094 361.675781 192.40625 362.371094 C 192.320312 363.0625 192.804688 363.695312 193.496094 363.789062 C 194.742188 363.949219 196.046875 364.027344 197.394531 364.027344"/><path fill="#1D2A65" d="M 153.914062 122.429688 L 212.324219 122.429688 C 222.625 132.628906 229.402344 150.679688 219.410156 182.609375 C 219.410156 182.609375 217.984375 117.175781 181.25 129.742188 C 181.25 129.742188 144.847656 117.636719 144.433594 182.863281 C 144.433594 182.863281 131.78125 144.09375 153.914062 122.429688"/><path fill="#F8A18F" d="M 191.457031 377.1875 C 191.285156 377.03125 191.09375 376.863281 190.957031 376.714844 L 200.664062 366.539062 C 200.664062 366.539062 213.945312 371.054688 237.875 377.1875 L 191.457031 377.1875"/><path fill="#F8A18F" d="M 186.308594 377.1875 C 181.835938 373.265625 181.242188 366.070312 181.242188 366.070312 L 181.242188 318.542969 C 183.832031 315.128906 187.125 320.574219 187.125 320.574219 C 187.125 320.574219 188.328125 325.003906 190.957031 342.273438 C 190.957031 342.273438 193.046875 359.59375 200.664062 366.539062 L 196.253906 377.1875 L 186.308594 377.1875"/><path fill="#F8A18F" d="M 123.945312 377.1875 C 148.355469 371.03125 161.730469 366.539062 161.730469 366.539062 L 171.441406 376.714844 C 171.296875 376.863281 171.109375 377.03125 170.941406 377.1875 L 123.945312 377.1875"/><path fill="#F8A18F" d="M 174.769531 377.1875 L 165.445312 377.1875 L 161.730469 366.539062 C 169.34375 359.59375 171.441406 342.273438 171.441406 342.273438 C 174.066406 325.003906 175.273438 320.574219 175.273438 320.574219 C 175.273438 320.574219 178.558594 315.128906 181.152344 318.542969 L 181.152344 366.070312 C 181.152344 366.070312 181.183594 372.617188 174.769531 377.1875"/></svg>