<svg xmlns="http://www.w3.org/2000/svg" width="375" viewBox="0 0 375 375" height="375" version="1.0"><g><g><g><path d="M 61.046875 -107.574219 C 57.417969 -113.183594 49.664062 -115.328125 43.394531 -115.328125 C 31.019531 -115.328125 16.167969 -104.273438 15.839844 -91.074219 C 15.507812 -85.632812 16.167969 -80.019531 17.488281 -74.742188 C 19.800781 -65.171875 22.605469 -55.601562 25.574219 -46.199219 C 28.378906 -37.289062 29.535156 -28.214844 29.699219 -18.972656 C 29.699219 -11.714844 26.234375 -5.941406 20.789062 -1.484375 C 18.972656 0 16.996094 0.660156 15.34375 0.660156 C 12.210938 0.660156 9.570312 -1.484375 8.25 -5.445312 C 6.269531 -12.375 7.425781 -18.644531 11.878906 -24.253906 C 14.519531 -27.222656 17.324219 -30.027344 20.128906 -33.164062 C 18.808594 -33.492188 17.820312 -33.824219 16.996094 -33.824219 C 13.199219 -33.824219 6.105469 -26.070312 4.289062 -23.265625 C 0 -16.996094 -1.320312 -9.898438 1.816406 -2.476562 C 2.96875 0.660156 5.113281 3.136719 8.578125 3.628906 C 11.714844 4.125 14.847656 4.785156 17.984375 4.785156 C 18.808594 4.785156 19.632812 4.785156 20.460938 4.621094 C 34.976562 3.464844 42.238281 -1.648438 43.722656 -16.335938 C 44.382812 -23.429688 43.886719 -30.6875 42.238281 -37.785156 C 39.597656 -48.011719 36.296875 -58.242188 33.660156 -68.472656 C 32.339844 -73.089844 30.523438 -77.546875 30.523438 -82.332031 C 30.523438 -83.320312 30.027344 -84.476562 29.863281 -85.464844 C 29.367188 -89.097656 28.378906 -92.726562 28.378906 -96.519531 C 28.214844 -104.933594 33.660156 -110.214844 42.074219 -110.875 C 49.664062 -110.875 56.425781 -106.914062 60.386719 -100.480469 C 64.183594 -94.046875 60.882812 -85.300781 51.808594 -82.992188 C 51.476562 -82.828125 50.984375 -82.828125 50.488281 -82.828125 C 49.992188 -82.828125 49.496094 -82.828125 49.167969 -83.15625 C 47.1875 -84.804688 45.207031 -86.621094 43.558594 -88.601562 C 42.238281 -90.414062 42.402344 -92.726562 44.382812 -94.375 C 45.042969 -94.871094 45.539062 -95.695312 46.03125 -96.519531 C 45.539062 -96.851562 45.207031 -97.34375 44.878906 -97.34375 C 42.402344 -97.015625 39.761719 -93.878906 39.761719 -91.570312 C 39.761719 -86.457031 46.03125 -80.847656 51.3125 -80.847656 C 55.109375 -80.847656 60.71875 -84.3125 63.027344 -87.117188 C 64.84375 -89.097656 65.667969 -91.570312 65.832031 -94.375 C 66.328125 -99.65625 63.6875 -103.617188 61.046875 -107.574219 Z M 61.046875 -107.574219" transform="translate(24.156 236.625)"/></g></g></g><g><g><g><path d="M 43.558594 -51.972656 C 40.421875 -49.828125 36.957031 -49.496094 33.328125 -48.671875 C 33 -55.109375 28.378906 -61.707031 21.449219 -61.707031 C 17.324219 -61.707031 13.859375 -58.902344 10.230469 -56.425781 C 9.570312 -58.40625 9.074219 -60.058594 8.578125 -61.542969 C 7.917969 -62.863281 7.257812 -64.183594 6.433594 -65.335938 C 5.773438 -66.492188 4.785156 -66.988281 3.628906 -66.988281 C 3.300781 -66.988281 2.96875 -66.820312 2.640625 -66.820312 C 0.988281 -66.492188 0.328125 -65.503906 0.164062 -64.015625 C 0 -61.542969 -0.496094 -59.066406 -0.328125 -56.59375 C 0.164062 -50.324219 0.164062 -44.382812 -2.96875 -38.773438 C -5.609375 -33.824219 -8.414062 -28.875 -10.722656 -23.925781 C -17.984375 -8.910156 -22.769531 7.09375 -27.058594 23.097656 C -27.390625 24.417969 -27.554688 25.738281 -27.71875 27.058594 C -28.378906 32.667969 -26.398438 34.976562 -20.953125 34.976562 C -20.625 34.976562 -20.460938 34.976562 -20.292969 34.976562 C -19.632812 34.976562 -18.972656 34.976562 -18.3125 34.976562 C 0.660156 33.492188 6.929688 -5.941406 8.25 -21.285156 C 9.074219 -30.195312 10.230469 -38.9375 10.558594 -47.847656 C 10.558594 -51.3125 11.878906 -53.292969 14.519531 -54.941406 C 15.839844 -55.765625 17.488281 -56.425781 19.140625 -57.253906 C 22.605469 -52.796875 19.964844 -47.683594 21.613281 -43.0625 C 16.5 -40.421875 12.703125 -37.289062 11.054688 -32.339844 C 9.734375 -28.875 10.394531 -25.410156 12.871094 -22.769531 C 14.023438 -21.449219 15.34375 -20.953125 16.828125 -20.953125 C 18.3125 -20.953125 19.632812 -21.449219 21.117188 -21.777344 C 21.449219 -21.777344 21.777344 -21.945312 22.273438 -22.109375 C 32.832031 -26.730469 33.660156 -35.144531 33.660156 -45.042969 C 36.792969 -46.03125 39.433594 -46.859375 42.238281 -47.683594 C 45.042969 -48.507812 47.847656 -49.167969 49.167969 -52.300781 C 48.34375 -52.960938 47.519531 -53.128906 46.691406 -53.128906 C 45.539062 -53.128906 44.546875 -52.632812 43.558594 -51.972656 Z M -20.128906 30.523438 C -21.945312 28.707031 -22.109375 26.5625 -22.109375 24.582031 C -21.945312 21.449219 -21.449219 18.480469 -20.789062 15.507812 C -17.984375 0.660156 -10.890625 -14.519531 -4.125 -28.046875 C -3.792969 -27.882812 -3.464844 -27.882812 -2.96875 -27.71875 C -3.300781 -24.253906 -3.628906 -20.625 -3.792969 -17.160156 C -4.289062 -8.910156 -10.066406 29.039062 -20.128906 30.523438 Z M 16.335938 -24.417969 C 11.550781 -28.875 13.859375 -35.804688 20.953125 -38.9375 C 21.613281 -33.492188 19.800781 -28.875 16.335938 -24.417969 Z M 16.335938 -24.417969" transform="translate(97.246 236.625)"/></g></g></g><g><g><g><path d="M 35.804688 -51.148438 C 35.472656 -51.3125 35.144531 -51.476562 34.8125 -51.476562 C 34.152344 -51.476562 33.492188 -51.148438 32.832031 -50.984375 C 32.339844 -50.816406 31.84375 -50.15625 31.511719 -49.664062 C 29.863281 -47.1875 28.542969 -44.714844 26.894531 -42.238281 C 24.089844 -38.113281 21.117188 -33.988281 18.148438 -29.863281 C 17.324219 -28.707031 15.839844 -27.71875 14.519531 -26.894531 C 13.859375 -26.5625 13.199219 -26.398438 12.375 -26.398438 C 11.382812 -26.398438 10.394531 -26.730469 9.734375 -27.554688 C 8.910156 -28.378906 8.746094 -30.195312 8.910156 -31.511719 C 9.570312 -35.144531 10.558594 -38.773438 11.21875 -42.402344 C 12.375 -47.351562 13.53125 -52.300781 14.355469 -57.253906 C 15.015625 -60.71875 13.53125 -62.53125 10.230469 -63.191406 C 9.238281 -63.355469 8.414062 -63.523438 7.589844 -63.523438 C 5.113281 -63.523438 3.464844 -62.203125 2.640625 -59.726562 C 1.816406 -56.59375 0.988281 -53.457031 0 -50.488281 C -1.648438 -45.867188 -2.640625 -41.25 -2.96875 -36.464844 C -3.136719 -32.832031 -2.308594 -29.863281 0.496094 -27.222656 C 3.300781 -24.417969 5.941406 -23.925781 9.734375 -23.925781 C 16.003906 -23.925781 18.972656 -24.75 21.777344 -28.214844 C 26.894531 -34.648438 31.84375 -41.25 35.96875 -48.507812 C 36.464844 -49.332031 37.125 -50.652344 35.804688 -51.148438 Z M 8.910156 -72.761719 C 11.382812 -72.761719 13.695312 -72.925781 16.003906 -73.585938 C 17.652344 -74.082031 18.148438 -75.566406 18.148438 -77.382812 C 17.984375 -79.195312 16.996094 -79.855469 15.179688 -80.019531 C 14.519531 -80.019531 13.859375 -80.019531 13.695312 -80.019531 C 10.066406 -80.019531 7.753906 -79.195312 6.765625 -77.214844 C 5.28125 -74.90625 6.269531 -72.761719 8.910156 -72.761719 Z M 8.910156 -72.761719" transform="translate(158.458 236.625)"/></g></g></g><g><g><g><path d="M 45.042969 -52.632812 C 42.402344 -52.632812 40.753906 -51.972656 39.433594 -49.496094 C 34.152344 -39.597656 24.253906 -26.5625 15.839844 -18.644531 C 15.015625 -17.652344 14.023438 -16.828125 12.375 -16.828125 C 12.375 -16.828125 12.210938 -16.828125 12.042969 -16.828125 C 12.210938 -18.3125 12.375 -19.632812 12.375 -20.953125 C 12.375 -26.070312 13.53125 -30.6875 15.675781 -35.144531 C 17.488281 -39.101562 18.808594 -43.0625 20.292969 -47.023438 C 21.117188 -49.496094 20.460938 -50.816406 17.820312 -51.476562 C 16.003906 -51.972656 13.859375 -51.972656 12.042969 -52.46875 C 10.558594 -52.632812 9.074219 -53.292969 7.257812 -53.953125 C 9.734375 -57.582031 11.878906 -60.222656 13.53125 -63.191406 C 14.847656 -65.667969 15.839844 -68.308594 16.5 -70.945312 C 17.160156 -73.585938 16.335938 -76.226562 13.859375 -77.710938 C 12.375 -78.535156 10.722656 -79.03125 8.746094 -79.03125 C 5.113281 -79.03125 1.15625 -77.382812 -0.824219 -74.742188 C -3.792969 -70.945312 -5.113281 -66.65625 -4.949219 -61.707031 C -4.785156 -52.46875 1.15625 -49.167969 9.074219 -47.519531 C 7.09375 -41.742188 4.949219 -36.132812 2.96875 -30.6875 C 1.648438 -26.894531 0.496094 -23.097656 0.824219 -18.972656 C 0.988281 -16.003906 2.476562 -14.1875 4.949219 -13.199219 C 6.929688 -12.539062 8.910156 -12.042969 10.890625 -12.042969 C 18.3125 -12.042969 23.265625 -18.3125 27.390625 -23.757812 C 31.679688 -29.367188 35.96875 -34.976562 40.09375 -40.589844 C 41.90625 -43.0625 43.394531 -45.539062 44.714844 -48.011719 C 45.371094 -49.332031 46.199219 -50.984375 45.042969 -52.632812 Z M 3.792969 -58.902344 C 4.125 -65.335938 2.804688 -71.441406 8.910156 -75.402344 C 11.382812 -70.78125 9.570312 -64.347656 3.792969 -58.902344 Z M 3.792969 -58.902344" transform="translate(207.46 236.625)"/></g></g></g><g><g><g><path d="M 35.804688 -51.148438 C 35.472656 -51.3125 35.144531 -51.476562 34.8125 -51.476562 C 34.152344 -51.476562 33.492188 -51.148438 32.832031 -50.984375 C 32.339844 -50.816406 31.84375 -50.15625 31.511719 -49.664062 C 29.863281 -47.1875 28.542969 -44.714844 26.894531 -42.238281 C 24.089844 -38.113281 21.117188 -33.988281 18.148438 -29.863281 C 17.324219 -28.707031 15.839844 -27.71875 14.519531 -26.894531 C 13.859375 -26.5625 13.199219 -26.398438 12.375 -26.398438 C 11.382812 -26.398438 10.394531 -26.730469 9.734375 -27.554688 C 8.910156 -28.378906 8.746094 -30.195312 8.910156 -31.511719 C 9.570312 -35.144531 10.558594 -38.773438 11.21875 -42.402344 C 12.375 -47.351562 13.53125 -52.300781 14.355469 -57.253906 C 15.015625 -60.71875 13.53125 -62.53125 10.230469 -63.191406 C 9.238281 -63.355469 8.414062 -63.523438 7.589844 -63.523438 C 5.113281 -63.523438 3.464844 -62.203125 2.640625 -59.726562 C 1.816406 -56.59375 0.988281 -53.457031 0 -50.488281 C -1.648438 -45.867188 -2.640625 -41.25 -2.96875 -36.464844 C -3.136719 -32.832031 -2.308594 -29.863281 0.496094 -27.222656 C 3.300781 -24.417969 5.941406 -23.925781 9.734375 -23.925781 C 16.003906 -23.925781 18.972656 -24.75 21.777344 -28.214844 C 26.894531 -34.648438 31.84375 -41.25 35.96875 -48.507812 C 36.464844 -49.332031 37.125 -50.652344 35.804688 -51.148438 Z M 8.910156 -72.761719 C 11.382812 -72.761719 13.695312 -72.925781 16.003906 -73.585938 C 17.652344 -74.082031 18.148438 -75.566406 18.148438 -77.382812 C 17.984375 -79.195312 16.996094 -79.855469 15.179688 -80.019531 C 14.519531 -80.019531 13.859375 -80.019531 13.695312 -80.019531 C 10.066406 -80.019531 7.753906 -79.195312 6.765625 -77.214844 C 5.28125 -74.90625 6.269531 -72.761719 8.910156 -72.761719 Z M 8.910156 -72.761719" transform="translate(264.383 236.625)"/></g></g></g><g><g><g><path d="M 48.011719 -100.480469 C 47.519531 -101.800781 46.859375 -102.128906 46.03125 -102.128906 C 45.539062 -102.128906 45.042969 -101.964844 44.382812 -101.800781 C 39.761719 -100.316406 27.71875 -98.335938 23.429688 -97.839844 C 23.265625 -98.664062 23.097656 -98.996094 23.265625 -99.324219 C 23.59375 -101.636719 24.253906 -103.78125 24.582031 -105.925781 C 24.75 -108.566406 24.75 -111.203125 24.582031 -113.84375 C 24.089844 -116.484375 21.613281 -116.980469 19.304688 -116.980469 C 16.828125 -116.980469 15.179688 -115.824219 15.015625 -112.03125 C 14.519531 -106.585938 13.035156 -101.140625 11.054688 -96.027344 C 0.496094 -94.539062 1.320312 -94.210938 -9.074219 -92.726562 C -10.394531 -92.394531 -11.878906 -91.40625 -13.035156 -90.910156 C -14.023438 -90.25 -15.015625 -89.261719 -15.015625 -88.269531 C -15.179688 -87.445312 -14.519531 -87.28125 -13.859375 -87.28125 C -13.199219 -87.28125 -12.539062 -87.445312 -12.042969 -87.445312 C -4.125 -88.4375 3.464844 -91.242188 9.898438 -91.242188 C 9.734375 -90.25 9.40625 -89.757812 9.238281 -89.261719 C 8.085938 -85.464844 6.765625 -81.671875 5.609375 -77.875 C 1.15625 -62.039062 -0.496094 -45.703125 -3.792969 -29.699219 C -4.621094 -25.738281 -4.621094 -21.613281 -4.453125 -17.488281 C -4.453125 -9.570312 1.816406 -4.453125 9.40625 -4.453125 C 13.695312 -4.453125 17.820312 -6.105469 20.292969 -9.074219 C 22.4375 -11.714844 24.75 -14.1875 26.5625 -16.996094 C 33.328125 -27.222656 39.761719 -37.453125 45.371094 -48.34375 C 46.199219 -49.992188 46.691406 -51.644531 45.042969 -52.960938 C 44.382812 -53.457031 43.722656 -53.789062 42.898438 -53.789062 C 40.257812 -53.789062 37.617188 -49.496094 36.464844 -47.519531 C 33.328125 -41.742188 30.195312 -35.804688 27.390625 -29.863281 C 23.925781 -22.933594 19.46875 -16.664062 14.1875 -10.890625 C 13.363281 -9.898438 12.042969 -9.238281 10.890625 -8.414062 C 8.414062 -10.558594 7.753906 -13.199219 7.753906 -15.839844 C 7.753906 -19.632812 7.753906 -23.429688 8.25 -27.058594 C 11.21875 -49.332031 16.335938 -71.441406 22.273438 -93.222656 C 30.855469 -94.375 32.667969 -94.707031 40.917969 -95.859375 C 42.734375 -96.191406 44.21875 -96.519531 45.867188 -97.179688 C 47.683594 -97.839844 48.507812 -98.996094 48.011719 -100.480469 Z M 48.011719 -100.480469" transform="translate(313.385 236.625)"/></g></g></g></svg>