<svg xmlns="http://www.w3.org/2000/svg" width="375" viewBox="0 0 375 375" height="375" version="1.0"><defs><clipPath id="a"><path d="M 122.339844 103.179688 L 254.339844 103.179688 L 254.339844 244.929688 L 122.339844 244.929688 Z M 122.339844 103.179688"/></clipPath><clipPath id="b"><path d="M 122.339844 131 L 232 131 L 232 244.929688 L 122.339844 244.929688 Z M 122.339844 131"/></clipPath><clipPath id="c"><path d="M 122.339844 125 L 231 125 L 231 240 L 122.339844 240 Z M 122.339844 125"/></clipPath><clipPath id="d"><path d="M 122.339844 140 L 233 140 L 233 244.929688 L 122.339844 244.929688 Z M 122.339844 140"/></clipPath><clipPath id="e"><path d="M 122.339844 103.179688 L 220 103.179688 L 220 244.929688 L 122.339844 244.929688 Z M 122.339844 103.179688"/></clipPath><clipPath id="f"><path d="M 122.339844 103.179688 L 210 103.179688 L 210 238 L 122.339844 238 Z M 122.339844 103.179688"/></clipPath><clipPath id="g"><path d="M 122.339844 103.179688 L 198 103.179688 L 198 215 L 122.339844 215 Z M 122.339844 103.179688"/></clipPath><clipPath id="h"><path d="M 122.339844 103.179688 L 211 103.179688 L 211 221 L 122.339844 221 Z M 122.339844 103.179688"/></clipPath><clipPath id="i"><path d="M 122.339844 113 L 218 113 L 218 227 L 122.339844 227 Z M 122.339844 113"/></clipPath><clipPath id="j"><path d="M 122.339844 103.179688 L 239 103.179688 L 239 183 L 122.339844 183 Z M 122.339844 103.179688"/></clipPath><clipPath id="k"><path d="M 153 103.179688 L 254.339844 103.179688 L 254.339844 200 L 153 200 Z M 153 103.179688"/></clipPath><clipPath id="l"><path d="M 122.339844 127 L 195 127 L 195 244.929688 L 122.339844 244.929688 Z M 122.339844 127"/></clipPath><clipPath id="m"><path d="M 122.339844 103.179688 L 189 103.179688 L 189 177 L 122.339844 177 Z M 122.339844 103.179688"/></clipPath><clipPath id="n"><path d="M 122.339844 103.179688 L 235 103.179688 L 235 207 L 122.339844 207 Z M 122.339844 103.179688"/></clipPath><clipPath id="o"><path d="M 190 132 L 254.339844 132 L 254.339844 244.929688 L 190 244.929688 Z M 190 132"/></clipPath><clipPath id="p"><path d="M 122.339844 181 L 204 181 L 204 244.929688 L 122.339844 244.929688 Z M 122.339844 181"/></clipPath></defs><g clip-path="url(#a)"><path transform="matrix(.02134 0 0 -.02134 122.298 245.064)" fill="none" d="M 2496.491617 2005.57466 C 2396.739458 2073.657763 2297.17033 2141.557848 2206.569745 2254.846667 C 2115.96916 2368.135487 2034.337118 2526.630023 2005.052081 2673.777375 C 1975.584012 2820.924727 1998.096884 2956.907914 2054.836644 3110.826973 C 2111.393373 3264.92905 2201.993958 3436.966999 2256.354309 3568.374709 C 2310.71466 3699.782419 2328.834777 3790.376871 2319.683203 3869.624139 C 2310.71466 3948.871407 2274.474426 4016.771491 2238.234192 4016.771491 C 2201.993958 4016.771491 2165.753724 3948.871407 2104.621208 3849.309019 C 2043.488692 3749.563613 1957.463895 3618.155903 1880.40764 3459.661367 C 1803.351385 3301.166831 1735.446704 3115.40245 1708.358044 2922.866362 C 1681.086353 2730.330275 1694.630683 2531.2055 1769.49056 2338.669412 C 1844.167406 2146.133325 1979.976767 1960.368944 2168.133133 1813.038573 C 2355.923436 1665.891221 2596.060744 1557.177878 2833.818643 1455.236243 C 3071.576541 1353.477626 3307.138062 1258.307697 3456.674785 1158.56229 C 3606.211508 1058.999903 3669.540401 954.862038 3726.280162 809.910915 C 3782.83689 664.959792 3832.621454 479.195411 3839.57665 359.134885 C 3846.348815 239.074359 3810.108581 184.717688 3873.437475 166.598797 C 3936.9494 148.479907 4099.847422 166.598797 4258.535719 216.379991 C 4417.040984 266.344204 4570.970463 347.787701 4661.571048 424.83874 C 4752.171633 501.70676 4779.443324 574.182321 4792.804622 610.420102 C 4806.531983 646.840902 4806.531983 646.840902 4799.759819 757.750473 C 4792.804622 868.660044 4779.443324 1090.662206 4768.095372 1353.477626 C 4756.74742 1616.110027 4747.778877 1919.555686 4700.190691 2191.339041 C 4652.602505 2463.122397 4566.394676 2703.243449 4480.369878 2913.898427 C 4394.34508 3124.370386 4308.320282 3305.742308 4197.220171 3464.053825 C 4086.303092 3622.73138 3950.310699 3758.714568 3832.621454 3883.167552 C 3714.932209 4007.803555 3615.18005 4121.092375 3517.807301 4225.047221 C 3420.434551 4329.368105 3325.44121 4424.538034 3268.70145 4503.785302 C 3212.144721 4583.03257 3194.024604 4646.357176 3157.78437 4626.042057 C 3121.544136 4605.726937 3067.183786 4501.406054 3071.759573 4367.802114 C 3076.33536 4234.198175 3139.664253 4071.128162 3234.657594 3946.492159 C 3329.833966 3822.039174 3456.674785 3736.0202 3558.623322 3643.0465 C 3660.571859 3550.255819 3737.628114 3450.510412 3789.609055 3357.719731 C 3841.773028 3264.92905 3868.861688 3178.910076 3864.285901 3104.055266 C 3859.893145 3029.383476 3823.652911 2966.058869 3825.849289 2909.322949 C 3828.228698 2852.770049 3868.861688 2802.805836 3864.285901 2820.924727 C 3859.893145 2839.043617 3810.108581 2925.245611 3674.116188 2977.223034 C 3538.123795 3029.383476 3316.289636 3047.502366 3105.620397 3079.164669 C 2894.951159 3110.826973 2695.812903 3156.215708 2537.124606 3201.421424 C 2378.619341 3246.81016 2260.930096 3292.198895 2143.05782 3337.221593" stroke="#231F20" stroke-width="80" stroke-miterlimit="22.926"/></g><g clip-path="url(#b)"><path transform="matrix(.02134 0 0 -.02134 122.298 245.064)" fill="none" d="M 1997.54779 2718.617053 C 2046.051133 2662.247172 2094.554477 2605.694271 2166.48585 2561.58667 C 2238.234192 2517.479068 2333.410564 2485.816764 2394.54308 2466.59976 C 2455.675596 2447.382755 2482.764255 2440.428029 2510.035946 2433.656323" stroke="#231F20" stroke-width="80" stroke-miterlimit="22.926"/></g><g clip-path="url(#c)"><path transform="matrix(.02134 0 0 -.02134 122.298 245.064)" fill="none" d="M 2020.792788 3005.041936 C 2072.77373 2961.66641 2124.937703 2918.473904 2201.993958 2891.204059 C 2279.050213 2863.934214 2380.815718 2852.770049 2482.764255 2841.422865" stroke="#231F20" stroke-width="80" stroke-miterlimit="22.926"/></g><g clip-path="url(#d)"><path transform="matrix(.02134 0 0 -.02134 122.298 245.064)" fill="none" d="M 2550.851968 2121.242728 C 2480.93394 2120.327633 2411.198945 2119.412537 2350.432492 2146.316344 C 2289.483008 2173.037132 2237.502066 2227.576822 2185.704156 2282.116512" stroke="#231F20" stroke-width="80" stroke-miterlimit="22.926"/></g><g clip-path="url(#e)"><path transform="matrix(.02134 0 0 -.02134 122.298 245.064)" fill="none" d="M 1751.187411 3124.187367 C 1743.683121 3249.555446 1736.17883 3375.106545 1749.357097 3501.023682 C 1762.718395 3627.306858 1796.57922 3754.13909 1832.819454 3875.297731 C 1869.059688 3996.456371 1907.496299 4111.94142 1926.897637 4201.437757 C 1946.115943 4290.751076 1946.115943 4354.258701 1924.518227 4407.334239 C 1903.103544 4460.775815 1860.091145 4503.785302 1826.047289 4523.002307 C 1792.186464 4542.219312 1767.111151 4537.643834 1754.66501 4501.406054 C 1742.218869 4465.168273 1742.218869 4397.268189 1712.7508 4288.554846 C 1683.282731 4179.841504 1624.529624 4030.314904 1571.267462 3833.386358 C 1518.0053 3636.274793 1470.417114 3391.761283 1453.395186 3195.747833 C 1436.373258 2999.917401 1450.100619 2852.770049 1487.439042 2733.807638 C 1524.777465 2614.845226 1585.909981 2524.250774 1641.002458 2453.422385 C 1696.094935 2382.410976 1745.147372 2331.16563 1794.19981 2279.920283" stroke="#231F20" stroke-width="80" stroke-miterlimit="22.926"/></g><g clip-path="url(#f)"><path transform="matrix(.02134 0 0 -.02134 122.298 245.064)" fill="none" d="M 1448.270304 2962.947544 C 1335.705941 3119.42887 1222.958547 3275.910196 1133.822214 3450.510412 C 1044.685881 3624.927609 978.977578 3817.463697 950.790729 4005.424307 C 922.420849 4193.567936 931.572424 4376.953069 925.715416 4537.643834 C 920.224471 4698.517618 899.724945 4836.697035 880.506639 4939.736785 C 861.288333 5042.776535 843.168216 5110.676619 847.744004 5158.261584 C 852.136759 5205.846549 879.40845 5232.933375 925.715416 5213.71637 C 972.205413 5194.499365 1037.913716 5128.79551 1080.926115 5017.885939 C 1123.938514 4906.793348 1144.255009 4750.495041 1157.799338 4603.347689 C 1171.5267 4456.200337 1178.298865 4318.020921 1205.387524 4177.462256 C 1232.659216 4037.26963 1280.247402 3894.514736 1329.848934 3767.865522 C 1379.267435 3641.399328 1430.882313 3530.855795 1482.314161 3420.495281" stroke="#231F20" stroke-width="80" stroke-miterlimit="22.926"/></g><g clip-path="url(#g)"><path transform="matrix(.02134 0 0 -.02134 122.298 245.064)" fill="none" d="M 950.790729 4005.424307 C 886.180615 4117.98105 821.570501 4230.354774 747.44275 4335.407735 C 673.314999 4440.277676 589.486579 4537.643834 521.581898 4612.498644 C 453.677217 4687.170435 401.513244 4739.330877 408.285409 4774.470543 C 415.057574 4809.42719 480.765877 4827.54608 546.47418 4816.198896 C 612.182483 4804.851712 677.707754 4764.221473 741.21968 4705.289325 C 804.548573 4646.540196 865.864121 4569.672176 926.996636 4492.621137" stroke="#231F20" stroke-width="80" stroke-miterlimit="22.926"/></g><g clip-path="url(#h)"><path transform="matrix(.02134 0 0 -.02134 122.298 245.064)" fill="none" d="M 1205.387524 4177.462256 C 1264.323662 4089.979129 1323.259801 4002.496002 1375.423774 3933.863841 C 1427.404715 3865.048662 1472.796523 3815.267468 1499.51912 3783.239126 C 1526.424748 3751.393804 1535.027228 3737.484353 1543.263645 3723.391882" stroke="#231F20" stroke-width="80" stroke-miterlimit="22.926"/></g><g clip-path="url(#i)"><path transform="matrix(.02134 0 0 -.02134 122.298 245.064)" fill="none" d="M 1760.705049 3582.28416 C 1800.605912 3541.470902 1840.506776 3500.474625 1880.40764 3459.661367" stroke="#231F20" stroke-width="80" stroke-miterlimit="22.926"/></g><path fill="#35858B" d="M 172.027344 104.054688 C 178.375 104.054688 183.519531 109.199219 183.519531 115.550781 C 183.519531 121.898438 178.375 127.042969 172.027344 127.042969 C 165.679688 127.042969 160.53125 121.898438 160.53125 115.550781 C 160.53125 109.199219 165.679688 104.054688 172.027344 104.054688" fill-rule="evenodd"/><g clip-path="url(#j)"><path transform="matrix(.02134 0 0 -.02134 122.298 245.064)" fill="none" d="M 2330.115997 6606.674699 C 2627.54216 6606.674699 2868.594625 6365.638551 2868.594625 6068.049503 C 2868.594625 5770.643475 2627.54216 5529.607327 2330.115997 5529.607327 C 2032.689835 5529.607327 1791.454338 5770.643475 1791.454338 6068.049503 C 1791.454338 6365.638551 2032.689835 6606.674699 2330.115997 6606.674699 Z M 2330.115997 6606.674699" stroke="#231F20" stroke-width="79.999" stroke-miterlimit="22.926"/></g><path fill="#35858B" d="M 208.941406 122.414062 C 210.351562 121.796875 211.910156 121.457031 213.546875 121.457031 C 219.894531 121.457031 225.039062 126.601562 225.039062 132.949219 C 225.039062 139.296875 219.894531 144.445312 213.546875 144.445312 C 212.113281 144.445312 210.742188 144.183594 209.472656 143.703125 C 213.53125 141.925781 216.367188 137.878906 216.367188 133.167969 C 216.367188 128.25 213.28125 124.058594 208.941406 122.414062" fill-rule="evenodd"/><g clip-path="url(#k)"><path transform="matrix(.02134 0 0 -.02134 122.298 245.064)" fill="none" d="M 4059.763526 5746.484954 C 4125.837892 5775.401971 4198.867455 5791.324632 4275.557647 5791.324632 C 4572.983809 5791.324632 4814.036274 5550.288485 4814.036274 5252.882456 C 4814.036274 4955.476427 4572.983809 4714.257261 4275.557647 4714.257261 C 4208.385092 4714.257261 4144.141041 4726.51954 4084.655808 4749.030889 C 4274.825521 4832.304577 4407.706379 5021.912359 4407.706379 5242.633387 C 4407.706379 5473.054427 4263.111506 5669.433915 4059.763526 5746.484954 Z M 4059.763526 5746.484954" stroke="#231F20" stroke-width="79.999" stroke-miterlimit="22.926"/></g><path fill="#35858B" d="M 139.292969 204.980469 C 137.882812 205.597656 136.328125 205.941406 134.691406 205.941406 C 128.339844 205.941406 123.195312 200.792969 123.195312 194.445312 C 123.195312 188.097656 128.339844 182.949219 134.691406 182.949219 C 136.125 182.949219 137.496094 183.214844 138.761719 183.691406 C 134.703125 185.46875 131.871094 189.515625 131.871094 194.230469 C 131.871094 199.144531 134.953125 203.335938 139.292969 204.980469" fill-rule="evenodd"/><g clip-path="url(#l)"><path transform="matrix(.02134 0 0 -.02134 122.298 245.064)" fill="none" d="M 796.312156 1878.010351 C 730.23779 1849.093334 657.39126 1832.987654 580.701068 1832.987654 C 283.091874 1832.987654 42.039408 2074.206821 42.039408 2371.612849 C 42.039408 2669.018878 283.091874 2910.238045 580.701068 2910.238045 C 647.873622 2910.238045 712.117674 2897.792746 771.419875 2875.464417 C 581.250162 2792.190729 448.552336 2602.582947 448.552336 2381.6789 C 448.552336 2151.440879 592.964177 1955.06139 796.312156 1878.010351 Z M 796.312156 1878.010351" stroke="#231F20" stroke-width="79.999" stroke-miterlimit="22.926"/></g><path fill="#35858B" d="M 130.332031 115.871094 L 131.042969 118.078125 L 133.359375 118.070312 L 131.484375 119.429688 L 132.203125 121.632812 L 130.332031 120.265625 L 128.460938 121.632812 L 129.179688 119.429688 L 127.304688 118.070312 L 129.621094 118.078125 L 130.332031 115.871094" fill-rule="evenodd"/><g clip-path="url(#m)"><path transform="matrix(.02134 0 0 -.02134 122.298 245.064)" fill="none" d="M 376.437931 6053.041938 L 409.749661 5949.636149 L 518.287331 5950.002187 L 430.432219 5886.311542 L 464.110012 5783.088773 L 376.437931 5847.145456 L 288.76585 5783.088773 L 322.443643 5886.311542 L 234.58853 5950.002187 L 343.126201 5949.636149 Z M 376.437931 6053.041938" stroke="#231F20" stroke-width="79.999" stroke-miterlimit="22.926"/></g><path fill="#35858B" d="M 176.425781 145.777344 L 177.140625 147.984375 L 179.457031 147.980469 L 177.578125 149.335938 L 178.300781 151.539062 L 176.425781 150.175781 L 174.554688 151.539062 L 175.277344 149.335938 L 173.398438 147.980469 L 175.714844 147.984375 L 176.425781 145.777344" fill-rule="evenodd"/><g clip-path="url(#n)"><path transform="matrix(.02134 0 0 -.02134 122.298 245.064)" fill="none" d="M 2536.209449 4651.847749 L 2569.70421 4548.441961 L 2678.241881 4548.62498 L 2590.203737 4485.117354 L 2624.064561 4381.894585 L 2536.209449 4445.768249 L 2448.537368 4381.894585 L 2482.398192 4485.117354 L 2394.360048 4548.62498 L 2502.897719 4548.441961 Z M 2536.209449 4651.847749" stroke="#231F20" stroke-width="79.999" stroke-miterlimit="22.926"/></g><path fill="#35858B" d="M 248.667969 188.320312 L 249.378906 190.523438 L 251.695312 190.519531 L 249.820312 191.878906 L 250.539062 194.082031 L 248.667969 192.714844 L 246.796875 194.082031 L 247.515625 191.878906 L 245.640625 190.519531 L 247.957031 190.523438 L 248.667969 188.320312" fill-rule="evenodd"/><g clip-path="url(#o)"><path transform="matrix(.02134 0 0 -.02134 122.298 245.064)" fill="none" d="M 5921.193725 2658.58679 L 5954.505455 2555.36402 L 6063.043125 2555.54704 L 5975.188012 2491.856395 L 6008.865806 2388.633625 L 5921.193725 2452.690308 L 5833.521643 2388.633625 L 5867.199437 2491.856395 L 5779.344324 2555.54704 L 5887.881994 2555.36402 Z M 5921.193725 2658.58679" stroke="#231F20" stroke-width="79.999" stroke-miterlimit="22.926"/></g><path fill="#35858B" d="M 145.582031 236.914062 L 146.292969 239.117188 L 148.609375 239.113281 L 146.734375 240.472656 L 147.453125 242.675781 L 145.582031 241.308594 L 143.710938 242.675781 L 144.429688 240.472656 L 142.550781 239.113281 L 144.867188 239.117188 L 145.582031 236.914062" fill-rule="evenodd"/><g clip-path="url(#p)"><path transform="matrix(.02134 0 0 -.02134 122.298 245.064)" fill="none" d="M 1090.992847 381.829253 L 1124.304577 278.606483 L 1232.842247 278.789502 L 1144.987135 215.098858 L 1178.664928 111.876088 L 1090.992847 175.932771 L 1003.320765 111.876088 L 1036.998559 215.098858 L 948.960415 278.789502 L 1057.498085 278.606483 Z M 1090.992847 381.829253" stroke="#231F20" stroke-width="79.999" stroke-miterlimit="22.926"/></g><g><g><g><path d="M 25.15625 -44.332031 C 23.664062 -46.644531 20.464844 -47.527344 17.882812 -47.527344 C 12.78125 -47.527344 6.664062 -42.972656 6.527344 -37.535156 C 6.390625 -35.289062 6.664062 -32.976562 7.207031 -30.800781 C 8.160156 -26.859375 9.316406 -22.914062 10.539062 -19.039062 C 11.695312 -15.367188 12.171875 -11.628906 12.238281 -7.820312 C 12.238281 -4.828125 10.8125 -2.449219 8.566406 -0.613281 C 7.820312 0 7.003906 0.273438 6.324219 0.273438 C 5.03125 0.273438 3.945312 -0.613281 3.398438 -2.242188 C 2.582031 -5.101562 3.058594 -7.683594 4.894531 -9.996094 C 5.984375 -11.21875 7.140625 -12.375 8.296875 -13.667969 C 7.75 -13.804688 7.34375 -13.9375 7.003906 -13.9375 C 5.441406 -13.9375 2.515625 -10.742188 1.769531 -9.585938 C 0 -7.003906 -0.542969 -4.078125 0.746094 -1.019531 C 1.222656 0.273438 2.109375 1.292969 3.535156 1.496094 C 4.828125 1.699219 6.121094 1.972656 7.410156 1.972656 C 7.75 1.972656 8.089844 1.972656 8.429688 1.902344 C 14.414062 1.429688 17.40625 -0.679688 18.019531 -6.730469 C 18.289062 -9.65625 18.085938 -12.648438 17.40625 -15.570312 C 16.320312 -19.785156 14.957031 -24.003906 13.871094 -28.21875 C 13.328125 -30.121094 12.578125 -31.957031 12.578125 -33.929688 C 12.578125 -34.335938 12.375 -34.8125 12.308594 -35.222656 C 12.101562 -36.71875 11.695312 -38.214844 11.695312 -39.777344 C 11.628906 -43.246094 13.871094 -45.421875 17.339844 -45.691406 C 20.464844 -45.691406 23.253906 -44.0625 24.886719 -41.410156 C 26.449219 -38.757812 25.089844 -35.152344 21.351562 -34.203125 C 21.214844 -34.132812 21.011719 -34.132812 20.804688 -34.132812 C 20.601562 -34.132812 20.398438 -34.132812 20.261719 -34.269531 C 19.445312 -34.949219 18.628906 -35.699219 17.949219 -36.511719 C 17.40625 -37.261719 17.476562 -38.214844 18.289062 -38.894531 C 18.5625 -39.097656 18.765625 -39.4375 18.96875 -39.777344 C 18.765625 -39.914062 18.628906 -40.117188 18.496094 -40.117188 C 17.476562 -39.980469 16.386719 -38.6875 16.386719 -37.738281 C 16.386719 -35.628906 18.96875 -33.316406 21.144531 -33.316406 C 22.710938 -33.316406 25.023438 -34.746094 25.972656 -35.902344 C 26.722656 -36.71875 27.0625 -37.738281 27.128906 -38.894531 C 27.335938 -41.070312 26.246094 -42.699219 25.15625 -44.332031 Z M 25.15625 -44.332031" transform="translate(119.43 82.98)"/></g></g></g><g><g><g><path d="M 17.949219 -21.417969 C 16.660156 -20.535156 15.230469 -20.398438 13.734375 -20.058594 C 13.597656 -22.710938 11.695312 -25.429688 8.839844 -25.429688 C 7.140625 -25.429688 5.710938 -24.273438 4.214844 -23.253906 C 3.945312 -24.070312 3.738281 -24.75 3.535156 -25.363281 C 3.265625 -25.90625 2.992188 -26.449219 2.652344 -26.925781 C 2.378906 -27.402344 1.972656 -27.605469 1.496094 -27.605469 C 1.359375 -27.605469 1.222656 -27.539062 1.089844 -27.539062 C 0.40625 -27.402344 0.136719 -26.992188 0.0664062 -26.382812 C 0 -25.363281 -0.203125 -24.34375 -0.136719 -23.324219 C 0.0664062 -20.738281 0.0664062 -18.289062 -1.222656 -15.980469 C -2.3125 -13.9375 -3.46875 -11.898438 -4.417969 -9.859375 C -7.410156 -3.671875 -9.382812 2.921875 -11.152344 9.519531 C -11.289062 10.0625 -11.355469 10.605469 -11.421875 11.152344 C -11.695312 13.464844 -10.878906 14.414062 -8.636719 14.414062 C -8.5 14.414062 -8.429688 14.414062 -8.363281 14.414062 C -8.089844 14.414062 -7.820312 14.414062 -7.546875 14.414062 C 0.273438 13.804688 2.855469 -2.449219 3.398438 -8.769531 C 3.738281 -12.441406 4.214844 -16.046875 4.351562 -19.71875 C 4.351562 -21.144531 4.894531 -21.960938 5.984375 -22.640625 C 6.527344 -22.980469 7.207031 -23.253906 7.886719 -23.59375 C 9.316406 -21.757812 8.226562 -19.652344 8.90625 -17.746094 C 6.800781 -16.660156 5.234375 -15.367188 4.554688 -13.328125 C 4.011719 -11.898438 4.285156 -10.472656 5.304688 -9.382812 C 5.78125 -8.839844 6.324219 -8.636719 6.933594 -8.636719 C 7.546875 -8.636719 8.089844 -8.839844 8.703125 -8.976562 C 8.839844 -8.976562 8.976562 -9.042969 9.179688 -9.113281 C 13.53125 -11.015625 13.871094 -14.484375 13.871094 -18.5625 C 15.164062 -18.96875 16.25 -19.3125 17.40625 -19.652344 C 18.5625 -19.992188 19.71875 -20.261719 20.261719 -21.554688 C 19.921875 -21.828125 19.582031 -21.894531 19.242188 -21.894531 C 18.765625 -21.894531 18.359375 -21.691406 17.949219 -21.417969 Z M -8.296875 12.578125 C -9.042969 11.832031 -9.113281 10.945312 -9.113281 10.132812 C -9.042969 8.839844 -8.839844 7.617188 -8.566406 6.390625 C -7.410156 0.273438 -4.488281 -5.984375 -1.699219 -11.558594 C -1.5625 -11.492188 -1.429688 -11.492188 -1.222656 -11.421875 C -1.359375 -9.996094 -1.496094 -8.5 -1.5625 -7.070312 C -1.769531 -3.671875 -4.148438 11.96875 -8.296875 12.578125 Z M 6.730469 -10.0625 C 4.757812 -11.898438 5.710938 -14.753906 8.636719 -16.046875 C 8.90625 -13.804688 8.160156 -11.898438 6.730469 -10.0625 Z M 6.730469 -10.0625" transform="translate(149.552 82.98)"/></g></g></g><g><g><g><path d="M 14.753906 -21.078125 C 14.617188 -21.144531 14.484375 -21.214844 14.347656 -21.214844 C 14.074219 -21.214844 13.804688 -21.078125 13.53125 -21.011719 C 13.328125 -20.941406 13.121094 -20.671875 12.988281 -20.464844 C 12.308594 -19.445312 11.761719 -18.425781 11.082031 -17.40625 C 9.925781 -15.707031 8.703125 -14.007812 7.480469 -12.308594 C 7.140625 -11.832031 6.527344 -11.421875 5.984375 -11.082031 C 5.710938 -10.945312 5.441406 -10.878906 5.101562 -10.878906 C 4.691406 -10.878906 4.285156 -11.015625 4.011719 -11.355469 C 3.671875 -11.695312 3.605469 -12.441406 3.671875 -12.988281 C 3.945312 -14.484375 4.351562 -15.980469 4.625 -17.476562 C 5.101562 -19.515625 5.574219 -21.554688 5.914062 -23.59375 C 6.1875 -25.023438 5.574219 -25.769531 4.214844 -26.042969 C 3.808594 -26.109375 3.46875 -26.179688 3.128906 -26.179688 C 2.109375 -26.179688 1.429688 -25.632812 1.089844 -24.613281 C 0.746094 -23.324219 0.40625 -22.03125 0 -20.804688 C -0.679688 -18.902344 -1.089844 -17 -1.222656 -15.027344 C -1.292969 -13.53125 -0.953125 -12.308594 0.203125 -11.21875 C 1.359375 -10.0625 2.449219 -9.859375 4.011719 -9.859375 C 6.59375 -9.859375 7.820312 -10.199219 8.976562 -11.628906 C 11.082031 -14.277344 13.121094 -17 14.824219 -19.992188 C 15.027344 -20.332031 15.300781 -20.875 14.753906 -21.078125 Z M 3.671875 -29.984375 C 4.691406 -29.984375 5.644531 -30.054688 6.59375 -30.324219 C 7.277344 -30.53125 7.480469 -31.140625 7.480469 -31.890625 C 7.410156 -32.636719 7.003906 -32.910156 6.253906 -32.976562 C 5.984375 -32.976562 5.710938 -32.976562 5.644531 -32.976562 C 4.148438 -32.976562 3.195312 -32.636719 2.789062 -31.820312 C 2.175781 -30.871094 2.582031 -29.984375 3.671875 -29.984375 Z M 3.671875 -29.984375" transform="translate(174.778 82.98)"/></g></g></g><g><g><g><path d="M 18.5625 -21.691406 C 17.476562 -21.691406 16.792969 -21.417969 16.25 -20.398438 C 14.074219 -16.320312 9.996094 -10.945312 6.527344 -7.683594 C 6.1875 -7.277344 5.78125 -6.933594 5.101562 -6.933594 C 5.101562 -6.933594 5.03125 -6.933594 4.964844 -6.933594 C 5.03125 -7.546875 5.101562 -8.089844 5.101562 -8.636719 C 5.101562 -10.742188 5.574219 -12.648438 6.460938 -14.484375 C 7.207031 -16.113281 7.75 -17.746094 8.363281 -19.378906 C 8.703125 -20.398438 8.429688 -20.941406 7.34375 -21.214844 C 6.59375 -21.417969 5.710938 -21.417969 4.964844 -21.621094 C 4.351562 -21.691406 3.738281 -21.960938 2.992188 -22.234375 C 4.011719 -23.730469 4.894531 -24.816406 5.574219 -26.042969 C 6.121094 -27.0625 6.527344 -28.148438 6.800781 -29.238281 C 7.070312 -30.324219 6.730469 -31.414062 5.710938 -32.027344 C 5.101562 -32.367188 4.417969 -32.570312 3.605469 -32.570312 C 2.109375 -32.570312 0.476562 -31.890625 -0.339844 -30.800781 C -1.5625 -29.238281 -2.109375 -27.46875 -2.039062 -25.429688 C -1.972656 -21.621094 0.476562 -20.261719 3.738281 -19.582031 C 2.921875 -17.203125 2.039062 -14.890625 1.222656 -12.648438 C 0.679688 -11.082031 0.203125 -9.519531 0.339844 -7.820312 C 0.40625 -6.59375 1.019531 -5.847656 2.039062 -5.441406 C 2.855469 -5.167969 3.671875 -4.964844 4.488281 -4.964844 C 7.546875 -4.964844 9.585938 -7.546875 11.289062 -9.792969 C 13.054688 -12.101562 14.824219 -14.414062 16.523438 -16.726562 C 17.269531 -17.746094 17.882812 -18.765625 18.425781 -19.785156 C 18.699219 -20.332031 19.039062 -21.011719 18.5625 -21.691406 Z M 1.5625 -24.273438 C 1.699219 -26.925781 1.15625 -29.441406 3.671875 -31.074219 C 4.691406 -29.167969 3.945312 -26.519531 1.5625 -24.273438 Z M 1.5625 -24.273438" transform="translate(194.973 82.98)"/></g></g></g><g><g><g><path d="M 14.753906 -21.078125 C 14.617188 -21.144531 14.484375 -21.214844 14.347656 -21.214844 C 14.074219 -21.214844 13.804688 -21.078125 13.53125 -21.011719 C 13.328125 -20.941406 13.121094 -20.671875 12.988281 -20.464844 C 12.308594 -19.445312 11.761719 -18.425781 11.082031 -17.40625 C 9.925781 -15.707031 8.703125 -14.007812 7.480469 -12.308594 C 7.140625 -11.832031 6.527344 -11.421875 5.984375 -11.082031 C 5.710938 -10.945312 5.441406 -10.878906 5.101562 -10.878906 C 4.691406 -10.878906 4.285156 -11.015625 4.011719 -11.355469 C 3.671875 -11.695312 3.605469 -12.441406 3.671875 -12.988281 C 3.945312 -14.484375 4.351562 -15.980469 4.625 -17.476562 C 5.101562 -19.515625 5.574219 -21.554688 5.914062 -23.59375 C 6.1875 -25.023438 5.574219 -25.769531 4.214844 -26.042969 C 3.808594 -26.109375 3.46875 -26.179688 3.128906 -26.179688 C 2.109375 -26.179688 1.429688 -25.632812 1.089844 -24.613281 C 0.746094 -23.324219 0.40625 -22.03125 0 -20.804688 C -0.679688 -18.902344 -1.089844 -17 -1.222656 -15.027344 C -1.292969 -13.53125 -0.953125 -12.308594 0.203125 -11.21875 C 1.359375 -10.0625 2.449219 -9.859375 4.011719 -9.859375 C 6.59375 -9.859375 7.820312 -10.199219 8.976562 -11.628906 C 11.082031 -14.277344 13.121094 -17 14.824219 -19.992188 C 15.027344 -20.332031 15.300781 -20.875 14.753906 -21.078125 Z M 3.671875 -29.984375 C 4.691406 -29.984375 5.644531 -30.054688 6.59375 -30.324219 C 7.277344 -30.53125 7.480469 -31.140625 7.480469 -31.890625 C 7.410156 -32.636719 7.003906 -32.910156 6.253906 -32.976562 C 5.984375 -32.976562 5.710938 -32.976562 5.644531 -32.976562 C 4.148438 -32.976562 3.195312 -32.636719 2.789062 -31.820312 C 2.175781 -30.871094 2.582031 -29.984375 3.671875 -29.984375 Z M 3.671875 -29.984375" transform="translate(218.43 82.98)"/></g></g></g><g><g><g><path d="M 19.785156 -41.410156 C 19.582031 -41.953125 19.3125 -42.089844 18.96875 -42.089844 C 18.765625 -42.089844 18.5625 -42.019531 18.289062 -41.953125 C 16.386719 -41.339844 11.421875 -40.523438 9.65625 -40.320312 C 9.585938 -40.660156 9.519531 -40.796875 9.585938 -40.933594 C 9.722656 -41.886719 9.996094 -42.769531 10.132812 -43.652344 C 10.199219 -44.742188 10.199219 -45.828125 10.132812 -46.917969 C 9.925781 -48.003906 8.90625 -48.207031 7.957031 -48.207031 C 6.933594 -48.207031 6.253906 -47.734375 6.1875 -46.167969 C 5.984375 -43.925781 5.371094 -41.679688 4.554688 -39.574219 C 0.203125 -38.960938 0.542969 -38.824219 -3.738281 -38.214844 C -4.285156 -38.078125 -4.894531 -37.667969 -5.371094 -37.464844 C -5.78125 -37.191406 -6.1875 -36.785156 -6.1875 -36.378906 C -6.253906 -36.039062 -5.984375 -35.96875 -5.710938 -35.96875 C -5.441406 -35.96875 -5.167969 -36.039062 -4.964844 -36.039062 C -1.699219 -36.445312 1.429688 -37.601562 4.078125 -37.601562 C 4.011719 -37.191406 3.875 -36.988281 3.808594 -36.785156 C 3.332031 -35.222656 2.789062 -33.65625 2.3125 -32.09375 C 0.476562 -25.566406 -0.203125 -18.835938 -1.5625 -12.238281 C -1.902344 -10.605469 -1.902344 -8.90625 -1.835938 -7.207031 C -1.835938 -3.945312 0.746094 -1.835938 3.875 -1.835938 C 5.644531 -1.835938 7.34375 -2.515625 8.363281 -3.738281 C 9.246094 -4.828125 10.199219 -5.847656 10.945312 -7.003906 C 13.734375 -11.21875 16.386719 -15.433594 18.699219 -19.921875 C 19.039062 -20.601562 19.242188 -21.28125 18.5625 -21.828125 C 18.289062 -22.03125 18.019531 -22.167969 17.679688 -22.167969 C 16.589844 -22.167969 15.503906 -20.398438 15.027344 -19.582031 C 13.734375 -17.203125 12.441406 -14.753906 11.289062 -12.308594 C 9.859375 -9.453125 8.023438 -6.867188 5.847656 -4.488281 C 5.507812 -4.078125 4.964844 -3.808594 4.488281 -3.46875 C 3.46875 -4.351562 3.195312 -5.441406 3.195312 -6.527344 C 3.195312 -8.089844 3.195312 -9.65625 3.398438 -11.152344 C 4.625 -20.332031 6.730469 -29.441406 9.179688 -38.417969 C 12.714844 -38.894531 13.464844 -39.027344 16.863281 -39.503906 C 17.609375 -39.640625 18.222656 -39.777344 18.902344 -40.050781 C 19.652344 -40.320312 19.992188 -40.796875 19.785156 -41.410156 Z M 19.785156 -41.410156" transform="translate(238.625 82.98)"/></g></g></g><g><g><g><path d="M 20.816406 -6.71875 C 19.195312 -6.71875 17.546875 -6.71875 15.894531 -6.6875 C 17.277344 -8.15625 18.296875 -9.296875 18.535156 -9.6875 C 18.714844 -9.957031 18.625 -10.316406 18.355469 -10.46875 C 18.085938 -10.648438 17.726562 -10.558594 17.574219 -10.289062 C 17.304688 -9.898438 16.015625 -8.457031 14.304688 -6.6875 C 13.617188 -6.660156 12.898438 -6.660156 12.207031 -6.660156 C 14.457031 -8.757812 16.527344 -10.527344 17.785156 -11.21875 C 18.054688 -11.367188 18.175781 -11.726562 17.996094 -11.996094 C 17.84375 -12.296875 17.484375 -12.386719 17.214844 -12.238281 C 15.6875 -11.367188 13.136719 -9.148438 10.527344 -6.660156 C 8.519531 -6.628906 6.539062 -6.660156 4.617188 -6.71875 C 4.289062 -6.75 4.019531 -6.476562 4.019531 -6.179688 C 4.019531 -5.847656 4.257812 -5.578125 4.589844 -5.578125 C 6.117188 -5.519531 7.707031 -5.488281 9.328125 -5.488281 C 8.609375 -4.796875 7.917969 -4.109375 7.226562 -3.417969 C 5.578125 -3.449219 3.929688 -3.449219 2.371094 -3.449219 L 2.070312 -3.449219 C 1.738281 -3.449219 1.5 -3.179688 1.5 -2.878906 C 1.5 -2.550781 1.738281 -2.28125 2.070312 -2.28125 L 2.371094 -2.28125 C 3.597656 -2.308594 4.859375 -2.308594 6.117188 -2.28125 C 4.230469 -0.359375 2.640625 1.351562 1.828125 2.308594 C 1.621094 2.550781 1.648438 2.910156 1.890625 3.121094 C 1.980469 3.210938 2.128906 3.238281 2.25 3.238281 C 2.429688 3.238281 2.578125 3.179688 2.699219 3.058594 C 3.75 1.828125 5.609375 -0.148438 7.707031 -2.28125 C 8.457031 -2.25 9.207031 -2.25 9.957031 -2.21875 C 7.707031 0.0898438 5.609375 2.128906 4.769531 2.847656 C 4.527344 3.058594 4.5 3.417969 4.707031 3.660156 C 4.828125 3.808594 5.007812 3.867188 5.160156 3.867188 C 5.277344 3.867188 5.429688 3.839844 5.546875 3.71875 C 6.386719 3 8.90625 0.511719 11.515625 -2.160156 C 13.226562 -2.070312 14.90625 -1.949219 16.496094 -1.769531 C 16.527344 -1.769531 16.527344 -1.769531 16.554688 -1.769531 C 16.855469 -1.769531 17.097656 -1.980469 17.125 -2.28125 C 17.15625 -2.578125 16.945312 -2.878906 16.617188 -2.910156 C 15.324219 -3.058594 13.976562 -3.179688 12.597656 -3.238281 C 13.347656 -4.019531 14.097656 -4.796875 14.785156 -5.519531 C 14.996094 -5.519531 15.207031 -5.519531 15.417969 -5.519531 C 17.214844 -5.546875 19.046875 -5.578125 20.816406 -5.578125 C 21.144531 -5.578125 21.414062 -5.820312 21.414062 -6.148438 C 21.414062 -6.476562 21.144531 -6.71875 20.816406 -6.71875 Z M 11.066406 -3.328125 C 10.316406 -3.359375 9.566406 -3.390625 8.847656 -3.390625 C 9.539062 -4.109375 10.257812 -4.796875 10.976562 -5.488281 C 11.726562 -5.488281 12.445312 -5.488281 13.167969 -5.519531 C 12.507812 -4.796875 11.785156 -4.050781 11.066406 -3.328125 Z M 11.066406 -3.328125" transform="translate(90.594 295.25)"/></g></g></g><g><g><g><path d="M 24.742188 -12.265625 C 23.605469 -13.675781 22.042969 -14.578125 20.15625 -14.996094 C 20.363281 -15.234375 20.542969 -15.476562 20.726562 -15.6875 C 22.644531 -18.265625 25.402344 -23.09375 22.40625 -26.691406 C 20.425781 -29.09375 16.375 -30.113281 12.296875 -29.511719 C 12.296875 -29.574219 12.328125 -29.601562 12.328125 -29.664062 C 12.386719 -29.960938 12.175781 -30.261719 11.847656 -30.324219 C 11.546875 -30.382812 11.246094 -30.171875 11.1875 -29.84375 C 11.15625 -29.664062 11.128906 -29.484375 11.097656 -29.300781 C 9.925781 -29.03125 8.789062 -28.644531 7.679688 -28.101562 C 2.757812 -25.703125 0.628906 -21.265625 1.800781 -15.894531 C 1.859375 -15.597656 2.1875 -15.386719 2.488281 -15.476562 C 2.789062 -15.535156 3 -15.835938 2.9375 -16.164062 C 1.859375 -20.933594 3.777344 -24.921875 8.1875 -27.082031 C 9.058594 -27.503906 9.925781 -27.804688 10.855469 -28.042969 C 10.257812 -24.984375 9.386719 -20.664062 8.398438 -15.804688 C 7.976562 -13.707031 7.589844 -11.757812 7.199219 -9.925781 C 6.808594 -9.296875 6.507812 -8.609375 6.328125 -7.886719 C 6.179688 -7.316406 6.386719 -6.988281 6.566406 -6.808594 C 2.039062 15.835938 2.28125 16.945312 3.238281 17.246094 C 3.300781 17.277344 3.390625 17.277344 3.449219 17.277344 C 4.019531 17.277344 4.4375 16.527344 5.070312 14.996094 C 5.1875 14.695312 5.039062 14.367188 4.738281 14.246094 C 4.4375 14.125 4.109375 14.246094 3.988281 14.546875 C 3.960938 14.667969 3.898438 14.757812 3.867188 14.847656 C 4.199219 11.21875 5.96875 2.128906 7.707031 -6.566406 C 10.226562 -6.867188 15.835938 -10.46875 19.253906 -13.976562 C 21.175781 -13.738281 22.734375 -12.925781 23.84375 -11.546875 C 25.914062 -8.96875 26.09375 -4.796875 24.292969 -0.691406 C 21.535156 5.636719 15.234375 9.746094 7.40625 10.316406 C 7.078125 10.347656 6.839844 10.617188 6.867188 10.945312 C 6.898438 11.246094 7.136719 11.488281 7.4375 11.488281 C 7.46875 11.488281 7.46875 11.488281 7.5 11.488281 C 15.746094 10.886719 22.433594 6.507812 25.375 -0.238281 C 27.324219 -4.738281 27.082031 -9.359375 24.742188 -12.265625 Z M 7.949219 -7.769531 C 8.066406 -8.367188 8.1875 -8.9375 8.308594 -9.539062 C 9.835938 -11.9375 12.71875 -13.285156 15.265625 -13.796875 C 16.136719 -13.945312 16.945312 -14.035156 17.726562 -14.066406 C 14.304688 -10.796875 9.71875 -8.246094 7.949219 -7.769531 Z M 18.804688 -15.175781 C 17.636719 -15.265625 16.375 -15.175781 15.027344 -14.90625 C 12.507812 -14.425781 10.347656 -13.347656 8.757812 -11.847656 C 9.027344 -13.136719 9.296875 -14.394531 9.539062 -15.566406 C 10.585938 -20.695312 11.488281 -25.222656 12.085938 -28.3125 C 15.867188 -28.941406 19.734375 -28.101562 21.503906 -25.972656 C 23.363281 -23.722656 22.734375 -20.335938 19.796875 -16.375 C 19.496094 -15.984375 19.164062 -15.566406 18.804688 -15.175781 Z M 18.804688 -15.175781" transform="translate(113.505 295.25)"/></g></g></g><g><g><g><path d="M 13.167969 -6.777344 C 12.867188 -6.929688 12.507812 -6.808594 12.386719 -6.507812 C 8.9375 0.75 5.667969 4.46875 4.949219 4.347656 C 4.890625 4.320312 3.839844 3.300781 7.226562 -7.109375 C 7.316406 -7.378906 7.527344 -8.007812 7.046875 -8.339844 C 6.597656 -8.699219 6.089844 -8.367188 5.25 -7.796875 C 4.347656 -7.226562 3.121094 -6.417969 2.160156 -6.539062 C 5.21875 -11.816406 4.917969 -12.988281 4.230469 -13.4375 C 3.148438 -14.066406 1.589844 -12.238281 0.871094 -11.1875 C -0.601562 -8.90625 -0.570312 -6.839844 0.988281 -5.789062 C 2.578125 -4.679688 4.648438 -6.027344 5.878906 -6.839844 C 5.910156 -6.867188 5.910156 -6.867188 5.9375 -6.898438 C 4.769531 -3.210938 4.019531 -0.300781 3.75 1.710938 C 3.417969 3.929688 3.660156 5.097656 4.5 5.429688 C 4.648438 5.457031 4.769531 5.488281 4.917969 5.488281 C 7.316406 5.488281 11.488281 -1.890625 13.4375 -6 C 13.554688 -6.296875 13.4375 -6.660156 13.167969 -6.777344 Z M 1.050781 -8.847656 C 1.46875 -10.46875 2.878906 -11.96875 3.507812 -12.328125 C 3.449219 -11.847656 3.121094 -10.496094 1.199219 -7.167969 C 0.988281 -7.5 0.839844 -8.007812 1.050781 -8.847656 Z M 1.050781 -8.847656" transform="translate(142.863 295.25)"/></g></g></g><g><g><g><path d="M 10.136719 -6.6875 C 9.867188 -6.867188 9.507812 -6.808594 9.328125 -6.539062 C 7.078125 -3.390625 5.25 -1.410156 3.449219 -0.121094 C 2.550781 0.511719 1.679688 0.628906 1.109375 0.210938 C 0.75 -0.0585938 -0.359375 -1.257812 0.929688 -5.457031 C 3.839844 -7.859375 5.429688 -10.136719 5.007812 -11.335938 C 4.859375 -11.695312 4.5 -11.9375 4.109375 -11.9375 C 2.910156 -11.90625 1.078125 -9.835938 -0.121094 -5.96875 C -1.589844 -1.199219 -0.390625 0.539062 0.449219 1.140625 C 0.871094 1.46875 1.351562 1.621094 1.890625 1.621094 C 2.578125 1.621094 3.359375 1.351562 4.109375 0.808594 C 6.027344 -0.570312 7.917969 -2.609375 10.257812 -5.878906 C 10.4375 -6.148438 10.378906 -6.507812 10.136719 -6.6875 Z M 3.867188 -10.675781 C 3.75 -10.199219 3.238281 -9.238281 1.828125 -7.796875 C 2.609375 -9.539062 3.449219 -10.378906 3.867188 -10.675781 Z M 3.867188 -10.675781" transform="translate(154.829 295.25)"/></g></g></g><g><g><g><path d="M 12.535156 -6.660156 C 12.265625 -6.777344 11.90625 -6.660156 11.785156 -6.386719 C 9.507812 -1.738281 7.796875 -0.269531 6.988281 -0.417969 C 6.660156 -0.480469 5.578125 -1.109375 5.308594 -6.359375 C 5.308594 -6.597656 5.128906 -6.808594 4.917969 -6.867188 C 4.679688 -6.929688 4.410156 -6.867188 4.289062 -6.660156 C 4.109375 -6.449219 3.929688 -6.207031 3.75 -5.9375 C 3 -4.917969 2.007812 -3.539062 0.808594 -2.25 C 0.628906 -2.039062 0.480469 -1.917969 0.390625 -1.859375 C 0.179688 -2.910156 1.289062 -6.929688 3.058594 -8.1875 C 3.570312 -8.546875 4.257812 -8.816406 5.1875 -7.738281 C 5.398438 -7.5 5.757812 -7.46875 6 -7.679688 C 6.238281 -7.859375 6.269531 -8.246094 6.089844 -8.488281 C 4.949219 -9.808594 3.867188 -9.777344 3.148438 -9.539062 C 0.839844 -8.726562 -0.71875 -4.289062 -0.78125 -2.25 C -0.808594 -1.410156 -0.570312 -0.871094 -0.0898438 -0.691406 C 0.660156 -0.390625 1.410156 -1.199219 1.648438 -1.46875 C 2.667969 -2.578125 3.597656 -3.777344 4.257812 -4.707031 C 4.589844 -1.289062 5.398438 0.417969 6.75 0.71875 C 6.867188 0.71875 6.988281 0.75 7.109375 0.75 C 9.148438 0.75 11.335938 -2.820312 12.808594 -5.878906 C 12.957031 -6.179688 12.835938 -6.507812 12.535156 -6.660156 Z M 12.535156 -6.660156" transform="translate(163.555 295.25)"/></g></g></g><g><g><g><path d="M 12.898438 -6.75 C 12.625 -6.898438 12.265625 -6.808594 12.117188 -6.539062 C 9.566406 -2.460938 4.980469 0.988281 3.269531 0.660156 C 3 0.628906 2.640625 0.480469 2.460938 -0.210938 C 2.550781 -0.328125 2.699219 -0.449219 2.847656 -0.570312 C 3.328125 -0.988281 4.019531 -1.589844 4.617188 -2.339844 C 5.578125 -3.597656 6 -5.128906 5.636719 -6 C 5.457031 -6.359375 5.160156 -6.597656 4.769531 -6.628906 C 3.929688 -6.6875 2.96875 -5.847656 1.828125 -4.078125 C 1.289062 -3.238281 0.78125 -2.308594 0.328125 -1.320312 C 1.257812 -5.488281 2.398438 -10.496094 3.269531 -14.246094 C 7.289062 -21.445312 9.296875 -26.84375 8.457031 -28.011719 C 8.277344 -28.253906 7.976562 -28.371094 7.679688 -28.3125 C 6.386719 -28.074219 4.378906 -23.695312 3.027344 -18.144531 C 2.820312 -17.304688 2.519531 -16.074219 2.1875 -14.636719 C 2.160156 -14.605469 2.160156 -14.546875 2.160156 -14.488281 C 0.449219 -7.257812 -2.429688 5.519531 -2.460938 6.507812 C -2.460938 6.808594 -2.25 7.046875 -1.980469 7.078125 C -1.949219 7.109375 -1.917969 7.109375 -1.859375 7.109375 C -1.621094 7.109375 -1.410156 6.929688 -1.320312 6.6875 L -1.199219 6.269531 C -0.210938 3.148438 1.050781 -0.78125 2.789062 -3.449219 C 3.808594 -5.039062 4.410156 -5.398438 4.589844 -5.457031 C 4.679688 -5.128906 4.527344 -4.109375 3.6875 -3.027344 C 3.179688 -2.398438 2.550781 -1.828125 2.070312 -1.441406 C 1.46875 -0.898438 1.199219 -0.660156 1.257812 -0.238281 C 1.558594 1.230469 2.398438 1.679688 3.058594 1.800781 C 3.210938 1.828125 3.359375 1.828125 3.507812 1.828125 C 6.386719 1.828125 11.066406 -2.699219 13.078125 -5.9375 C 13.257812 -6.207031 13.167969 -6.566406 12.898438 -6.75 Z M 7.46875 -26.664062 C 7.257812 -25.433594 6.386719 -22.882812 4.378906 -18.804688 C 5.546875 -23.152344 6.777344 -25.644531 7.46875 -26.664062 Z M 7.46875 -26.664062" transform="translate(174.711 295.25)"/></g></g></g><g><g><g><path d="M 38.78125 -34.671875 C 38.691406 -34.972656 38.359375 -35.152344 38.058594 -35.03125 C 35.960938 -34.371094 32.75 -33.410156 29.0625 -32.273438 C 23.183594 -30.503906 15.835938 -28.28125 10.136719 -26.394531 C 6.988281 -25.3125 4.648438 -24.472656 3 -23.785156 C 0.300781 -22.644531 -0.179688 -22.105469 -0.148438 -21.503906 C -0.121094 -21.203125 0.0585938 -20.785156 0.871094 -20.636719 C 0.898438 -20.636719 0.929688 -20.636719 0.960938 -20.636719 C 1.230469 -20.636719 1.46875 -20.816406 1.53125 -21.085938 C 1.589844 -21.324219 1.46875 -21.566406 1.289062 -21.683594 C 2.070312 -22.164062 4.347656 -23.246094 11.128906 -25.492188 C 12.6875 -26.003906 14.335938 -26.542969 16.015625 -27.082031 C 15.054688 -23.125 13.675781 -16.976562 12.238281 -10.496094 C 10.226562 -1.410156 7.617188 10.347656 6.207031 15.265625 C 6.207031 14.90625 6.269531 14.515625 6.296875 14.035156 C 6.328125 13.738281 6.089844 13.4375 5.757812 13.40625 C 5.457031 13.375 5.1875 13.617188 5.160156 13.945312 C 4.796875 17.816406 4.949219 18.445312 5.609375 18.535156 C 5.667969 18.535156 5.699219 18.566406 5.757812 18.566406 C 6.296875 18.566406 6.628906 17.933594 7.289062 15.65625 C 7.707031 14.125 8.277344 11.96875 8.996094 9.027344 C 10.289062 3.597656 11.847656 -3.417969 13.375 -10.257812 C 14.90625 -17.097656 16.347656 -23.605469 17.304688 -27.472656 C 21.414062 -28.761719 25.703125 -30.050781 29.394531 -31.164062 C 33.113281 -32.300781 36.289062 -33.261719 38.421875 -33.953125 C 38.71875 -34.042969 38.898438 -34.371094 38.78125 -34.671875 Z M 38.78125 -34.671875" transform="translate(186.407 295.25)"/></g></g></g><g><g><g><path d="M 14.1875 -6.839844 C 13.917969 -7.019531 13.554688 -6.929688 13.40625 -6.660156 C 9.148438 0.210938 7.648438 0.0585938 7.5 0.03125 C 7.199219 -0.0585938 6.867188 -0.660156 6.777344 -2.128906 C 6.75 -2.789062 6.597656 -4.769531 5.277344 -4.949219 C 3.75 -5.160156 1.917969 -2.488281 0.269531 0.960938 C 1.289062 -3.597656 2.757812 -9.867188 3.839844 -14.304688 C 7.859375 -21.535156 9.898438 -26.964844 9.058594 -28.132812 C 8.878906 -28.402344 8.578125 -28.492188 8.277344 -28.433594 C 6.988281 -28.191406 4.980469 -23.8125 3.628906 -18.265625 C 3.570312 -18.054688 -1.800781 3.867188 -1.980469 6.566406 C -1.980469 6.867188 -1.800781 7.109375 -1.5 7.167969 C -1.46875 7.167969 -1.441406 7.167969 -1.410156 7.167969 C -1.167969 7.167969 -0.929688 7.019531 -0.839844 6.808594 C 1.769531 -0.691406 4.320312 -3.808594 5.070312 -3.808594 C 5.097656 -3.808594 5.097656 -3.808594 5.097656 -3.808594 C 5.21875 -3.808594 5.546875 -3.449219 5.636719 -2.070312 C 5.667969 -1.351562 5.820312 0.78125 7.199219 1.140625 C 7.796875 1.289062 9.566406 1.738281 14.367188 -6.058594 C 14.546875 -6.328125 14.457031 -6.6875 14.1875 -6.839844 Z M 8.066406 -26.785156 C 7.828125 -25.582031 6.988281 -23.003906 4.980469 -18.957031 C 6.117188 -23.273438 7.347656 -25.761719 8.066406 -26.785156 Z M 8.066406 -26.785156" transform="translate(202.66 295.25)"/></g></g></g><g><g><g><path d="M 10.136719 -6.6875 C 9.867188 -6.867188 9.507812 -6.808594 9.328125 -6.539062 C 7.078125 -3.390625 5.25 -1.410156 3.449219 -0.121094 C 2.550781 0.511719 1.679688 0.628906 1.109375 0.210938 C 0.75 -0.0585938 -0.359375 -1.257812 0.929688 -5.457031 C 3.839844 -7.859375 5.429688 -10.136719 5.007812 -11.335938 C 4.859375 -11.695312 4.5 -11.9375 4.109375 -11.9375 C 2.910156 -11.90625 1.078125 -9.835938 -0.121094 -5.96875 C -1.589844 -1.199219 -0.390625 0.539062 0.449219 1.140625 C 0.871094 1.46875 1.351562 1.621094 1.890625 1.621094 C 2.578125 1.621094 3.359375 1.351562 4.109375 0.808594 C 6.027344 -0.570312 7.917969 -2.609375 10.257812 -5.878906 C 10.4375 -6.148438 10.378906 -6.507812 10.136719 -6.6875 Z M 3.867188 -10.675781 C 3.75 -10.199219 3.238281 -9.238281 1.828125 -7.796875 C 2.609375 -9.539062 3.449219 -10.378906 3.867188 -10.675781 Z M 3.867188 -10.675781" transform="translate(215.585 295.25)"/></g></g></g><g><g><g><path d="M 24.355469 -6.988281 C 24.054688 -7.109375 23.722656 -6.988281 23.605469 -6.6875 C 20.183594 0.570312 16.886719 5.910156 13.765625 9.175781 C 11.128906 11.9375 8.757812 13.078125 6.867188 12.507812 C 5.160156 11.96875 3.839844 9.957031 3.179688 6.839844 C 2.429688 3.480469 2.460938 -0.839844 3.238281 -5.636719 C 4.347656 -12.476562 7.558594 -22.164062 11.308594 -26.664062 C 12.417969 -27.984375 13.375 -28.613281 13.945312 -28.3125 C 15.355469 -27.625 15.925781 -21.894531 12.835938 -8.007812 C 12.746094 -7.707031 12.957031 -7.40625 13.257812 -7.316406 C 13.585938 -7.257812 13.886719 -7.46875 13.945312 -7.769531 C 15.957031 -16.734375 17.664062 -27.773438 14.457031 -29.363281 C 13.675781 -29.753906 12.355469 -29.722656 10.4375 -27.414062 C 8.039062 -24.535156 6.207031 -20.246094 5.097656 -17.125 C 3.75 -13.4375 2.667969 -9.296875 2.097656 -5.820312 C 0.417969 4.46875 2.21875 12.265625 6.539062 13.617188 C 6.957031 13.738281 7.40625 13.796875 7.859375 13.796875 C 12.597656 13.796875 18.625 6.660156 24.625 -6.207031 C 24.773438 -6.507812 24.652344 -6.839844 24.355469 -6.988281 Z M 24.355469 -6.988281" transform="translate(224.312 295.25)"/></g></g></g><g><g><g><path d="M 14.667969 -6.597656 C 14.488281 -6.867188 14.125 -6.929688 13.855469 -6.75 C 11.277344 -5.070312 8.636719 -3.210938 6.117188 -0.871094 C 6.476562 -3.089844 6.839844 -5.457031 7.167969 -7.949219 C 7.226562 -8.21875 7.046875 -8.488281 6.777344 -8.578125 C 6.539062 -8.667969 6.238281 -8.546875 6.117188 -8.308594 C 5.519531 -7.289062 4.199219 -5.1875 3.027344 -3.777344 C 2.609375 -3.269531 2.1875 -3 1.980469 -3.148438 C 1.46875 -3.449219 1.109375 -5.519531 2.28125 -8.367188 C 2.398438 -8.667969 2.25 -8.996094 1.980469 -9.117188 C 1.679688 -9.238281 1.351562 -9.085938 1.230469 -8.789062 C 0 -5.789062 0.0585938 -2.9375 1.410156 -2.160156 C 1.738281 -1.917969 2.699219 -1.589844 3.898438 -3.027344 C 4.527344 -3.777344 5.128906 -4.617188 5.667969 -5.429688 C 5.367188 -3.359375 5.070312 -1.378906 4.738281 0.511719 C 2.21875 3.089844 -0.148438 6.207031 -2.1875 10.167969 C -5.609375 16.734375 -6.238281 24.023438 -4.527344 26.125 C -4.199219 26.542969 -3.777344 26.753906 -3.328125 26.753906 C -3.179688 26.753906 -3.058594 26.722656 -2.910156 26.691406 C -0.960938 26.125 0.78125 21.804688 1.917969 18.265625 C 3.328125 13.855469 4.617188 8.097656 5.820312 1.050781 C 8.609375 -1.738281 11.578125 -3.898438 14.488281 -5.789062 C 14.757812 -5.96875 14.847656 -6.328125 14.667969 -6.597656 Z M 0.808594 17.90625 C -1.351562 24.742188 -2.910156 25.492188 -3.210938 25.582031 C -3.328125 25.613281 -3.449219 25.613281 -3.628906 25.402344 C -4.707031 24.082031 -4.796875 17.695312 -1.167969 10.675781 C 0.511719 7.46875 2.371094 4.828125 4.378906 2.578125 C 3.300781 8.789062 2.097656 13.917969 0.808594 17.90625 Z M 0.808594 17.90625" transform="translate(247.463 295.25)"/></g></g></g><g><g><g><path d="M 9.898438 -6.808594 C 9.628906 -6.957031 9.269531 -6.898438 9.117188 -6.628906 C 7.078125 -3.539062 3.6875 1.621094 1.46875 1.140625 C 1.109375 1.050781 0.808594 0.808594 0.601562 0.417969 C 0 -0.660156 0.0898438 -2.820312 0.78125 -4.707031 C 1.53125 -6.71875 2.429688 -7.226562 2.609375 -7.199219 C 2.640625 -7.167969 2.820312 -6.777344 2.578125 -5.847656 C 2.488281 -5.519531 2.667969 -5.21875 2.96875 -5.128906 C 3.300781 -5.070312 3.597656 -5.25 3.6875 -5.546875 C 4.257812 -7.707031 3.269531 -8.1875 2.96875 -8.308594 C 1.859375 -8.636719 0.511719 -7.316406 -0.300781 -5.097656 C -0.988281 -3.238281 -1.289062 -0.601562 -0.390625 0.988281 C -0.03125 1.679688 0.539062 2.097656 1.230469 2.25 C 1.410156 2.308594 1.589844 2.308594 1.769531 2.308594 C 4.378906 2.308594 7.199219 -1.621094 10.078125 -6 C 10.257812 -6.269531 10.167969 -6.628906 9.898438 -6.808594 Z M 9.898438 -6.808594" transform="translate(260.748 295.25)"/></g></g></g><g><g><g><path d="M 8.816406 -28.101562 C 8.609375 -28.371094 8.308594 -28.492188 8.007812 -28.460938 C 6.296875 -28.164062 4.46875 -21.773438 3.960938 -19.824219 C 2.460938 -14.097656 0.570312 -5.96875 -0.960938 1.320312 C -1.679688 4.769531 -2.25 7.679688 -2.609375 9.777344 C -3.210938 13.316406 -3.121094 13.765625 -2.550781 13.917969 C -2.488281 13.945312 -2.429688 13.945312 -2.371094 13.945312 C -1.828125 13.945312 -1.558594 13.226562 -1.289062 12.445312 C -1.199219 12.148438 -1.351562 11.816406 -1.648438 11.726562 C -1.679688 11.695312 -1.710938 11.695312 -1.738281 11.695312 C -1.109375 7.378906 1.46875 -5.1875 4.109375 -15.714844 C 4.109375 -15.746094 4.140625 -15.777344 4.167969 -15.804688 C 8.066406 -21.984375 9.597656 -26.902344 8.816406 -28.101562 Z M 5.128906 -19.765625 C 6.269531 -23.992188 7.289062 -26.035156 7.828125 -26.875 C 7.707031 -25.761719 7.046875 -23.363281 5.128906 -19.765625 Z M 5.128906 -19.765625" transform="translate(269.624 295.25)"/></g></g></g><g><g><g><path d="M 10.136719 -6.6875 C 9.867188 -6.867188 9.507812 -6.808594 9.328125 -6.539062 C 7.078125 -3.390625 5.25 -1.410156 3.449219 -0.121094 C 2.550781 0.511719 1.679688 0.628906 1.109375 0.210938 C 0.75 -0.0585938 -0.359375 -1.257812 0.929688 -5.457031 C 3.839844 -7.859375 5.429688 -10.136719 5.007812 -11.335938 C 4.859375 -11.695312 4.5 -11.9375 4.109375 -11.9375 C 2.910156 -11.90625 1.078125 -9.835938 -0.121094 -5.96875 C -1.589844 -1.199219 -0.390625 0.539062 0.449219 1.140625 C 0.871094 1.46875 1.351562 1.621094 1.890625 1.621094 C 2.578125 1.621094 3.359375 1.351562 4.109375 0.808594 C 6.027344 -0.570312 7.917969 -2.609375 10.257812 -5.878906 C 10.4375 -6.148438 10.378906 -6.507812 10.136719 -6.6875 Z M 3.867188 -10.675781 C 3.75 -10.199219 3.238281 -9.238281 1.828125 -7.796875 C 2.609375 -9.539062 3.449219 -10.378906 3.867188 -10.675781 Z M 3.867188 -10.675781" transform="translate(274.182 295.25)"/></g></g></g></svg>